MFile 1 4 120
MTrk
0 TimeSig 4/4 24 8
0 Tempo 500000
0 Meta TrkEnd
TrkEnd
MTrk
323 On ch=1 n=84 v=80
348 On ch=1 n=84 v=0
360 On ch=1 n=80 v=80
384 On ch=1 n=80 v=0
396 On ch=1 n=77 v=80
420 On ch=1 n=77 v=0
431 On ch=1 n=74 v=80
456 On ch=1 n=74 v=0
468 On ch=1 n=75 v=80
491 On ch=1 n=75 v=0
504 On ch=1 n=68 v=80
528 On ch=1 n=68 v=0
540 On ch=1 n=70 v=80
564 On ch=1 n=70 v=0
576 On ch=1 n=62 v=80
576 On ch=1 n=71 v=80
600 On ch=1 n=71 v=0
612 On ch=1 n=67 v=80
636 On ch=1 n=67 v=0
647 On ch=1 n=62 v=0
647 On ch=1 n=68 v=80
672 On ch=1 n=68 v=0
684 On ch=1 n=61 v=80
684 On ch=1 n=70 v=80
684 On ch=1 n=67 v=80
756 On ch=1 n=61 v=0
756 On ch=1 n=70 v=0
756 On ch=1 n=67 v=0
756 On ch=1 n=75 v=80
780 On ch=1 n=75 v=0
792 On ch=1 n=87 v=80
816 On ch=1 n=87 v=0
827 On ch=1 n=85 v=80
852 On ch=1 n=85 v=0
900 On ch=1 n=84 v=80
924 On ch=1 n=84 v=0
936 On ch=1 n=80 v=80
960 On ch=1 n=80 v=0
972 On ch=1 n=77 v=80
995 On ch=1 n=77 v=0
1008 On ch=1 n=74 v=80
1032 On ch=1 n=74 v=0
1044 On ch=1 n=75 v=80
1067 On ch=1 n=75 v=0
1080 On ch=1 n=68 v=80
1104 On ch=1 n=68 v=0
1115 On ch=1 n=70 v=80
1139 On ch=1 n=70 v=0
1152 On ch=1 n=62 v=80
1152 On ch=1 n=71 v=80
1175 On ch=1 n=71 v=0
1188 On ch=1 n=67 v=80
1212 On ch=1 n=67 v=0
1224 On ch=1 n=62 v=0
1224 On ch=1 n=68 v=80
1247 On ch=1 n=68 v=0
1260 On ch=1 n=61 v=80
1260 On ch=1 n=67 v=80
1260 On ch=1 n=70 v=80
1332 On ch=1 n=61 v=0
1332 On ch=1 n=67 v=0
1332 On ch=1 n=70 v=0
1512 On ch=1 n=73 v=80
1512 On ch=1 n=65 v=80
1512 On ch=1 n=70 v=80
1512 On ch=1 n=67 v=80
1560 On ch=1 n=73 v=0
1560 On ch=1 n=65 v=0
1560 On ch=1 n=70 v=0
1560 On ch=1 n=67 v=0
1584 On ch=1 n=72 v=80
1584 On ch=1 n=64 v=80
1584 On ch=1 n=70 v=80
1584 On ch=1 n=67 v=80
1632 On ch=1 n=72 v=0
1632 On ch=1 n=64 v=0
1632 On ch=1 n=70 v=0
1632 On ch=1 n=67 v=0
1800 On ch=1 n=77 v=80
1800 On ch=1 n=70 v=80
1800 On ch=1 n=67 v=80
1848 On ch=1 n=77 v=0
1848 On ch=1 n=70 v=0
1848 On ch=1 n=67 v=0
1872 On ch=1 n=76 v=80
1872 On ch=1 n=70 v=80
1872 On ch=1 n=67 v=80
1920 On ch=1 n=76 v=0
1920 On ch=1 n=70 v=0
1920 On ch=1 n=67 v=0
2304 On ch=1 n=65 v=80
2328 On ch=1 n=65 v=0
2340 On ch=1 n=67 v=80
2364 On ch=1 n=67 v=0
2376 On ch=1 n=68 v=80
2400 On ch=1 n=68 v=0
2411 On ch=1 n=72 v=80
2435 On ch=1 n=72 v=0
2448 On ch=1 n=77 v=80
2448 On ch=1 n=65 v=80
2471 On ch=1 n=77 v=0
2471 On ch=1 n=65 v=0
2484 On ch=1 n=79 v=80
2484 On ch=1 n=67 v=80
2508 On ch=1 n=79 v=0
2508 On ch=1 n=67 v=0
2520 On ch=1 n=80 v=80
2520 On ch=1 n=68 v=80
2544 On ch=1 n=80 v=0
2544 On ch=1 n=68 v=0
2556 On ch=1 n=84 v=80
2556 On ch=1 n=72 v=80
2580 On ch=1 n=84 v=0
2580 On ch=1 n=72 v=0
2591 On ch=1 n=77 v=80
2591 On ch=1 n=89 v=80
2591 On ch=1 n=62 v=80
2591 On ch=1 n=65 v=80
2591 On ch=1 n=68 v=80
2591 On ch=1 n=71 v=80
2639 On ch=1 n=77 v=0
2639 On ch=1 n=89 v=0
2639 On ch=1 n=62 v=0
2639 On ch=1 n=65 v=0
2639 On ch=1 n=68 v=0
2639 On ch=1 n=71 v=0
2664 On ch=1 n=79 v=80
2664 On ch=1 n=91 v=80
2664 On ch=1 n=62 v=80
2664 On ch=1 n=65 v=80
2664 On ch=1 n=68 v=80
2664 On ch=1 n=71 v=80
2688 On ch=1 n=79 v=0
2688 On ch=1 n=91 v=0
2700 On ch=1 n=89 v=80
2700 On ch=1 n=77 v=80
2711 On ch=1 n=62 v=0
2711 On ch=1 n=65 v=0
2711 On ch=1 n=68 v=0
2711 On ch=1 n=71 v=0
2736 On ch=1 n=62 v=80
2736 On ch=1 n=65 v=80
2736 On ch=1 n=68 v=80
2736 On ch=1 n=71 v=80
2748 On ch=1 n=89 v=0
2748 On ch=1 n=77 v=0
2771 On ch=1 n=79 v=80
2771 On ch=1 n=91 v=80
2784 On ch=1 n=62 v=0
2784 On ch=1 n=65 v=0
2784 On ch=1 n=68 v=0
2784 On ch=1 n=71 v=0
2795 On ch=1 n=79 v=0
2795 On ch=1 n=91 v=0
2808 On ch=1 n=89 v=80
2808 On ch=1 n=77 v=80
2808 On ch=1 n=62 v=80
2808 On ch=1 n=65 v=80
2808 On ch=1 n=68 v=80
2808 On ch=1 n=71 v=80
2831 On ch=1 n=89 v=0
2831 On ch=1 n=77 v=0
2844 On ch=1 n=77 v=80
2844 On ch=1 n=89 v=80
2855 On ch=1 n=62 v=0
2855 On ch=1 n=65 v=0
2855 On ch=1 n=68 v=0
2855 On ch=1 n=71 v=0
2880 On ch=1 n=72 v=80
2880 On ch=1 n=68 v=80
2880 On ch=1 n=63 v=80
2891 On ch=1 n=77 v=0
2891 On ch=1 n=89 v=0
2916 On ch=1 n=87 v=80
2928 On ch=1 n=72 v=0
2928 On ch=1 n=68 v=0
2928 On ch=1 n=63 v=0
2940 On ch=1 n=87 v=0
2951 On ch=1 n=84 v=80
2951 On ch=1 n=63 v=80
2951 On ch=1 n=68 v=80
2951 On ch=1 n=72 v=80
2975 On ch=1 n=84 v=0
2988 On ch=1 n=82 v=80
2999 On ch=1 n=63 v=0
2999 On ch=1 n=68 v=0
2999 On ch=1 n=72 v=0
3011 On ch=1 n=82 v=0
3024 On ch=1 n=80 v=80
3024 On ch=1 n=72 v=80
3024 On ch=1 n=68 v=80
3024 On ch=1 n=66 v=80
3048 On ch=1 n=80 v=0
3060 On ch=1 n=87 v=80
3071 On ch=1 n=72 v=0
3071 On ch=1 n=68 v=0
3071 On ch=1 n=66 v=0
3096 On ch=1 n=72 v=80
3096 On ch=1 n=68 v=80
3096 On ch=1 n=66 v=80
3108 On ch=1 n=87 v=0
3131 On ch=1 n=85 v=80
3144 On ch=1 n=72 v=0
3144 On ch=1 n=68 v=0
3144 On ch=1 n=66 v=0
3168 On ch=1 n=73 v=80
3168 On ch=1 n=68 v=80
3168 On ch=1 n=65 v=80
3179 On ch=1 n=85 v=0
3204 On ch=1 n=82 v=80
3215 On ch=1 n=73 v=0
3215 On ch=1 n=68 v=0
3215 On ch=1 n=65 v=0
3228 On ch=1 n=82 v=0
3240 On ch=1 n=94 v=80
3240 On ch=1 n=73 v=80
3240 On ch=1 n=68 v=80
3240 On ch=1 n=64 v=80
3264 On ch=1 n=94 v=0
3276 On ch=1 n=92 v=80
3288 On ch=1 n=73 v=0
3288 On ch=1 n=68 v=0
3288 On ch=1 n=64 v=0
3300 On ch=1 n=92 v=0
3311 On ch=1 n=80 v=80
3311 On ch=1 n=72 v=80
3311 On ch=1 n=68 v=80
3311 On ch=1 n=63 v=80
3335 On ch=1 n=80 v=0
3348 On ch=1 n=84 v=80
3359 On ch=1 n=72 v=0
3359 On ch=1 n=68 v=0
3359 On ch=1 n=63 v=0
3384 On ch=1 n=72 v=80
3384 On ch=1 n=68 v=80
3384 On ch=1 n=63 v=80
3395 On ch=1 n=84 v=0
3420 On ch=1 n=89 v=80
3431 On ch=1 n=72 v=0
3431 On ch=1 n=68 v=0
3431 On ch=1 n=63 v=0
3444 On ch=1 n=89 v=0
3455 On ch=1 n=87 v=80
3455 On ch=1 n=73 v=80
3455 On ch=1 n=67 v=80
3455 On ch=1 n=63 v=80
3479 On ch=1 n=87 v=0
3491 On ch=1 n=82 v=80
3503 On ch=1 n=73 v=0
3503 On ch=1 n=67 v=0
3503 On ch=1 n=63 v=0
3515 On ch=1 n=82 v=0
3528 On ch=1 n=83 v=80
3528 On ch=1 n=63 v=80
3528 On ch=1 n=67 v=80
3528 On ch=1 n=73 v=80
3551 On ch=1 n=83 v=0
3564 On ch=1 n=84 v=80
3575 On ch=1 n=63 v=0
3575 On ch=1 n=67 v=0
3575 On ch=1 n=73 v=0
3600 On ch=1 n=72 v=80
3600 On ch=1 n=68 v=80
3600 On ch=1 n=63 v=80
3611 On ch=1 n=84 v=0
3635 On ch=1 n=74 v=80
3648 On ch=1 n=72 v=0
3648 On ch=1 n=68 v=0
3648 On ch=1 n=63 v=0
3659 On ch=1 n=74 v=0
3671 On ch=1 n=75 v=80
3671 On ch=1 n=63 v=80
3671 On ch=1 n=68 v=80
3671 On ch=1 n=72 v=80
3695 On ch=1 n=75 v=0
3708 On ch=1 n=77 v=80
3708 On ch=1 n=65 v=80
3719 On ch=1 n=63 v=0
3719 On ch=1 n=68 v=0
3719 On ch=1 n=72 v=0
3804 On ch=1 n=77 v=0
3804 On ch=1 n=65 v=0
3815 On ch=1 n=67 v=80
3815 On ch=1 n=79 v=80
3839 On ch=1 n=67 v=0
3839 On ch=1 n=79 v=0
3852 On ch=1 n=65 v=80
3852 On ch=1 n=77 v=80
3900 On ch=1 n=65 v=0
3900 On ch=1 n=77 v=0
3923 On ch=1 n=79 v=80
3923 On ch=1 n=67 v=80
3948 On ch=1 n=79 v=0
3948 On ch=1 n=67 v=0
3960 On ch=1 n=65 v=80
3960 On ch=1 n=77 v=80
3984 On ch=1 n=65 v=0
3984 On ch=1 n=77 v=0
3995 On ch=1 n=77 v=80
3995 On ch=1 n=65 v=80
4043 On ch=1 n=77 v=0
4043 On ch=1 n=65 v=0
4068 On ch=1 n=75 v=80
4092 On ch=1 n=75 v=0
4103 On ch=1 n=72 v=80
4128 On ch=1 n=72 v=0
4140 On ch=1 n=70 v=80
4164 On ch=1 n=70 v=0
4176 On ch=1 n=68 v=80
4200 On ch=1 n=68 v=0
4212 On ch=1 n=75 v=80
4260 On ch=1 n=75 v=0
4283 On ch=1 n=73 v=80
4331 On ch=1 n=73 v=0
4356 On ch=1 n=70 v=80
4380 On ch=1 n=70 v=0
4392 On ch=1 n=82 v=80
4416 On ch=1 n=82 v=0
4428 On ch=1 n=80 v=80
4452 On ch=1 n=80 v=0
4463 On ch=1 n=72 v=80
4488 On ch=1 n=72 v=0
4500 On ch=1 n=77 v=80
4500 On ch=1 n=68 v=80
4548 On ch=1 n=77 v=0
4548 On ch=1 n=68 v=0
4572 On ch=1 n=75 v=80
4596 On ch=1 n=75 v=0
4608 On ch=1 n=62 v=80
4608 On ch=1 n=68 v=80
4632 On ch=1 n=68 v=0
4643 On ch=1 n=70 v=80
4656 On ch=1 n=62 v=0
4668 On ch=1 n=70 v=0
4680 On ch=1 n=61 v=80
4680 On ch=1 n=67 v=80
4680 On ch=1 n=70 v=80
4728 On ch=1 n=61 v=0
4728 On ch=1 n=67 v=0
4728 On ch=1 n=70 v=0
4752 On ch=1 n=60 v=80
4752 On ch=1 n=68 v=80
4800 On ch=1 n=60 v=0
4800 On ch=1 n=68 v=0
4932 On ch=1 n=84 v=80
4956 On ch=1 n=84 v=0
4968 On ch=1 n=80 v=80
4992 On ch=1 n=80 v=0
5003 On ch=1 n=77 v=80
5028 On ch=1 n=77 v=0
5040 On ch=1 n=74 v=80
5064 On ch=1 n=74 v=0
5076 On ch=1 n=75 v=80
5100 On ch=1 n=75 v=0
5112 On ch=1 n=68 v=80
5136 On ch=1 n=68 v=0
5148 On ch=1 n=70 v=80
5172 On ch=1 n=70 v=0
5183 On ch=1 n=62 v=80
5183 On ch=1 n=71 v=80
5208 On ch=1 n=71 v=0
5220 On ch=1 n=67 v=80
5244 On ch=1 n=67 v=0
5256 On ch=1 n=62 v=0
5256 On ch=1 n=68 v=80
5280 On ch=1 n=68 v=0
5292 On ch=1 n=61 v=80
5292 On ch=1 n=70 v=80
5292 On ch=1 n=67 v=80
5340 On ch=1 n=70 v=0
5340 On ch=1 n=67 v=0
5363 On ch=1 n=75 v=80
5364 On ch=1 n=61 v=0
5388 On ch=1 n=75 v=0
5400 On ch=1 n=87 v=80
5424 On ch=1 n=87 v=0
5436 On ch=1 n=85 v=80
5460 On ch=1 n=85 v=0
5508 On ch=1 n=84 v=80
5532 On ch=1 n=84 v=0
5543 On ch=1 n=80 v=80
5568 On ch=1 n=80 v=0
5580 On ch=1 n=77 v=80
5604 On ch=1 n=77 v=0
5616 On ch=1 n=74 v=80
5640 On ch=1 n=74 v=0
5652 On ch=1 n=75 v=80
5676 On ch=1 n=75 v=0
5688 On ch=1 n=68 v=80
5712 On ch=1 n=68 v=0
5723 On ch=1 n=70 v=80
5748 On ch=1 n=70 v=0
5760 On ch=1 n=62 v=80
5760 On ch=1 n=71 v=80
5784 On ch=1 n=71 v=0
5796 On ch=1 n=67 v=80
5820 On ch=1 n=67 v=0
5832 On ch=1 n=62 v=0
5832 On ch=1 n=68 v=80
5856 On ch=1 n=68 v=0
5868 On ch=1 n=61 v=80
5868 On ch=1 n=67 v=80
5868 On ch=1 n=70 v=80
5940 On ch=1 n=61 v=0
5940 On ch=1 n=67 v=0
5940 On ch=1 n=70 v=0
6120 On ch=1 n=73 v=80
6120 On ch=1 n=65 v=80
6120 On ch=1 n=70 v=80
6120 On ch=1 n=67 v=80
6168 On ch=1 n=73 v=0
6168 On ch=1 n=65 v=0
6168 On ch=1 n=70 v=0
6168 On ch=1 n=67 v=0
6192 On ch=1 n=72 v=80
6192 On ch=1 n=64 v=80
6192 On ch=1 n=70 v=80
6192 On ch=1 n=67 v=80
6240 On ch=1 n=72 v=0
6240 On ch=1 n=64 v=0
6240 On ch=1 n=70 v=0
6240 On ch=1 n=67 v=0
6408 On ch=1 n=77 v=80
6408 On ch=1 n=70 v=80
6408 On ch=1 n=67 v=80
6456 On ch=1 n=77 v=0
6456 On ch=1 n=70 v=0
6456 On ch=1 n=67 v=0
6480 On ch=1 n=76 v=80
6480 On ch=1 n=70 v=80
6480 On ch=1 n=67 v=80
6528 On ch=1 n=76 v=0
6528 On ch=1 n=70 v=0
6528 On ch=1 n=67 v=0
6911 On ch=1 n=65 v=80
6936 On ch=1 n=65 v=0
6948 On ch=1 n=67 v=80
6972 On ch=1 n=67 v=0
6983 On ch=1 n=68 v=80
7008 On ch=1 n=68 v=0
7020 On ch=1 n=72 v=80
7044 On ch=1 n=72 v=0
7056 On ch=1 n=77 v=80
7056 On ch=1 n=65 v=80
7080 On ch=1 n=77 v=0
7080 On ch=1 n=65 v=0
7091 On ch=1 n=79 v=80
7091 On ch=1 n=67 v=80
7116 On ch=1 n=79 v=0
7116 On ch=1 n=67 v=0
7128 On ch=1 n=80 v=80
7128 On ch=1 n=68 v=80
7152 On ch=1 n=80 v=0
7152 On ch=1 n=68 v=0
7163 On ch=1 n=84 v=80
7163 On ch=1 n=72 v=80
7188 On ch=1 n=84 v=0
7188 On ch=1 n=72 v=0
7200 On ch=1 n=77 v=80
7200 On ch=1 n=89 v=80
7200 On ch=1 n=62 v=80
7200 On ch=1 n=65 v=80
7200 On ch=1 n=68 v=80
7200 On ch=1 n=71 v=80
7248 On ch=1 n=77 v=0
7248 On ch=1 n=89 v=0
7248 On ch=1 n=62 v=0
7248 On ch=1 n=65 v=0
7248 On ch=1 n=68 v=0
7248 On ch=1 n=71 v=0
7271 On ch=1 n=79 v=80
7271 On ch=1 n=91 v=80
7271 On ch=1 n=62 v=80
7271 On ch=1 n=65 v=80
7271 On ch=1 n=68 v=80
7271 On ch=1 n=71 v=80
7296 On ch=1 n=79 v=0
7296 On ch=1 n=91 v=0
7308 On ch=1 n=89 v=80
7308 On ch=1 n=77 v=80
7319 On ch=1 n=62 v=0
7319 On ch=1 n=65 v=0
7319 On ch=1 n=68 v=0
7319 On ch=1 n=71 v=0
7343 On ch=1 n=62 v=80
7343 On ch=1 n=65 v=80
7343 On ch=1 n=68 v=80
7343 On ch=1 n=71 v=80
7356 On ch=1 n=89 v=0
7356 On ch=1 n=77 v=0
7380 On ch=1 n=79 v=80
7380 On ch=1 n=91 v=80
7391 On ch=1 n=62 v=0
7391 On ch=1 n=65 v=0
7391 On ch=1 n=68 v=0
7391 On ch=1 n=71 v=0
7404 On ch=1 n=79 v=0
7404 On ch=1 n=91 v=0
7416 On ch=1 n=89 v=80
7416 On ch=1 n=77 v=80
7416 On ch=1 n=62 v=80
7416 On ch=1 n=65 v=80
7416 On ch=1 n=68 v=80
7416 On ch=1 n=71 v=80
7440 On ch=1 n=89 v=0
7440 On ch=1 n=77 v=0
7451 On ch=1 n=77 v=80
7451 On ch=1 n=89 v=80
7463 On ch=1 n=62 v=0
7463 On ch=1 n=65 v=0
7463 On ch=1 n=68 v=0
7463 On ch=1 n=71 v=0
7488 On ch=1 n=72 v=80
7488 On ch=1 n=68 v=80
7488 On ch=1 n=63 v=80
7499 On ch=1 n=77 v=0
7499 On ch=1 n=89 v=0
7523 On ch=1 n=87 v=80
7536 On ch=1 n=72 v=0
7536 On ch=1 n=68 v=0
7536 On ch=1 n=63 v=0
7548 On ch=1 n=87 v=0
7560 On ch=1 n=84 v=80
7560 On ch=1 n=63 v=80
7560 On ch=1 n=68 v=80
7560 On ch=1 n=72 v=80
7584 On ch=1 n=84 v=0
7596 On ch=1 n=82 v=80
7608 On ch=1 n=63 v=0
7608 On ch=1 n=68 v=0
7608 On ch=1 n=72 v=0
7620 On ch=1 n=82 v=0
7631 On ch=1 n=80 v=80
7631 On ch=1 n=72 v=80
7631 On ch=1 n=68 v=80
7631 On ch=1 n=66 v=80
7656 On ch=1 n=80 v=0
7668 On ch=1 n=87 v=80
7679 On ch=1 n=72 v=0
7679 On ch=1 n=68 v=0
7679 On ch=1 n=66 v=0
7704 On ch=1 n=72 v=80
7704 On ch=1 n=68 v=80
7704 On ch=1 n=66 v=80
7716 On ch=1 n=87 v=0
7740 On ch=1 n=85 v=80
7752 On ch=1 n=72 v=0
7752 On ch=1 n=68 v=0
7752 On ch=1 n=66 v=0
7776 On ch=1 n=73 v=80
7776 On ch=1 n=68 v=80
7776 On ch=1 n=65 v=80
7788 On ch=1 n=85 v=0
7811 On ch=1 n=82 v=80
7824 On ch=1 n=73 v=0
7824 On ch=1 n=68 v=0
7824 On ch=1 n=65 v=0
7836 On ch=1 n=82 v=0
7847 On ch=1 n=94 v=80
7847 On ch=1 n=73 v=80
7847 On ch=1 n=68 v=80
7847 On ch=1 n=64 v=80
7871 On ch=1 n=94 v=0
7884 On ch=1 n=92 v=80
7896 On ch=1 n=73 v=0
7896 On ch=1 n=68 v=0
7896 On ch=1 n=64 v=0
7908 On ch=1 n=92 v=0
7920 On ch=1 n=80 v=80
7920 On ch=1 n=72 v=80
7920 On ch=1 n=68 v=80
7920 On ch=1 n=63 v=80
7944 On ch=1 n=80 v=0
7956 On ch=1 n=84 v=80
7968 On ch=1 n=72 v=0
7968 On ch=1 n=68 v=0
7968 On ch=1 n=63 v=0
7991 On ch=1 n=72 v=80
7991 On ch=1 n=68 v=80
7991 On ch=1 n=63 v=80
8004 On ch=1 n=84 v=0
8027 On ch=1 n=89 v=80
8040 On ch=1 n=72 v=0
8040 On ch=1 n=68 v=0
8040 On ch=1 n=63 v=0
8051 On ch=1 n=89 v=0
8064 On ch=1 n=87 v=80
8064 On ch=1 n=73 v=80
8064 On ch=1 n=67 v=80
8064 On ch=1 n=63 v=80
8088 On ch=1 n=87 v=0
8100 On ch=1 n=82 v=80
8112 On ch=1 n=73 v=0
8112 On ch=1 n=67 v=0
8112 On ch=1 n=63 v=0
8124 On ch=1 n=82 v=0
8136 On ch=1 n=83 v=80
8136 On ch=1 n=63 v=80
8136 On ch=1 n=67 v=80
8136 On ch=1 n=73 v=80
8160 On ch=1 n=83 v=0
8171 On ch=1 n=84 v=80
8184 On ch=1 n=63 v=0
8184 On ch=1 n=67 v=0
8184 On ch=1 n=73 v=0
8207 On ch=1 n=72 v=80
8207 On ch=1 n=68 v=80
8207 On ch=1 n=63 v=80
8220 On ch=1 n=84 v=0
8244 On ch=1 n=74 v=80
8256 On ch=1 n=72 v=0
8256 On ch=1 n=68 v=0
8256 On ch=1 n=63 v=0
8268 On ch=1 n=74 v=0
8280 On ch=1 n=75 v=80
8280 On ch=1 n=63 v=80
8280 On ch=1 n=68 v=80
8280 On ch=1 n=72 v=80
8304 On ch=1 n=75 v=0
8316 On ch=1 n=77 v=80
8316 On ch=1 n=65 v=80
8328 On ch=1 n=63 v=0
8328 On ch=1 n=68 v=0
8328 On ch=1 n=72 v=0
8412 On ch=1 n=77 v=0
8412 On ch=1 n=65 v=0
8424 On ch=1 n=67 v=80
8424 On ch=1 n=79 v=80
8448 On ch=1 n=67 v=0
8448 On ch=1 n=79 v=0
8460 On ch=1 n=65 v=80
8460 On ch=1 n=77 v=80
8508 On ch=1 n=65 v=0
8508 On ch=1 n=77 v=0
8532 On ch=1 n=79 v=80
8532 On ch=1 n=67 v=80
8556 On ch=1 n=79 v=0
8556 On ch=1 n=67 v=0
8567 On ch=1 n=65 v=80
8567 On ch=1 n=77 v=80
8592 On ch=1 n=65 v=0
8592 On ch=1 n=77 v=0
8604 On ch=1 n=77 v=80
8604 On ch=1 n=65 v=80
8652 On ch=1 n=77 v=0
8652 On ch=1 n=65 v=0
8676 On ch=1 n=75 v=80
8700 On ch=1 n=75 v=0
8712 On ch=1 n=72 v=80
8736 On ch=1 n=72 v=0
8747 On ch=1 n=70 v=80
8772 On ch=1 n=70 v=0
8784 On ch=1 n=68 v=80
8808 On ch=1 n=68 v=0
8820 On ch=1 n=75 v=80
8868 On ch=1 n=75 v=0
8892 On ch=1 n=73 v=80
8940 On ch=1 n=73 v=0
8964 On ch=1 n=70 v=80
8988 On ch=1 n=70 v=0
9000 On ch=1 n=82 v=80
9024 On ch=1 n=82 v=0
9036 On ch=1 n=80 v=80
9060 On ch=1 n=80 v=0
9072 On ch=1 n=72 v=80
9096 On ch=1 n=72 v=0
9107 On ch=1 n=77 v=80
9107 On ch=1 n=68 v=80
9156 On ch=1 n=77 v=0
9156 On ch=1 n=68 v=0
9180 On ch=1 n=75 v=80
9204 On ch=1 n=75 v=0
9216 On ch=1 n=62 v=80
9216 On ch=1 n=68 v=80
9240 On ch=1 n=68 v=0
9252 On ch=1 n=70 v=80
9264 On ch=1 n=62 v=0
9276 On ch=1 n=70 v=0
9287 On ch=1 n=61 v=80
9287 On ch=1 n=67 v=80
9287 On ch=1 n=70 v=80
9336 On ch=1 n=61 v=0
9336 On ch=1 n=67 v=0
9336 On ch=1 n=70 v=0
9360 On ch=1 n=60 v=80
9360 On ch=1 n=68 v=80
9408 On ch=1 n=60 v=0
9408 On ch=1 n=68 v=0
9432 On ch=1 n=75 v=80
9480 On ch=1 n=75 v=0
9540 On ch=1 n=79 v=80
9564 On ch=1 n=79 v=0
9576 On ch=1 n=82 v=80
9600 On ch=1 n=82 v=0
9612 On ch=1 n=85 v=80
9636 On ch=1 n=85 v=0
9647 On ch=1 n=89 v=80
9647 On ch=1 n=79 v=80
9672 On ch=1 n=89 v=0
9672 On ch=1 n=79 v=0
9684 On ch=1 n=87 v=80
9732 On ch=1 n=87 v=0
9756 On ch=1 n=85 v=80
9780 On ch=1 n=85 v=0
9792 On ch=1 n=75 v=80
9816 On ch=1 n=75 v=0
9827 On ch=1 n=79 v=80
9852 On ch=1 n=79 v=0
9864 On ch=1 n=82 v=80
9888 On ch=1 n=82 v=0
9900 On ch=1 n=75 v=80
9900 On ch=1 n=79 v=80
9900 On ch=1 n=87 v=80
9948 On ch=1 n=75 v=0
9948 On ch=1 n=79 v=0
9948 On ch=1 n=87 v=0
9972 On ch=1 n=67 v=80
9972 On ch=1 n=73 v=80
9972 On ch=1 n=79 v=80
9996 On ch=1 n=67 v=0
9996 On ch=1 n=73 v=0
9996 On ch=1 n=79 v=0
10007 On ch=1 n=68 v=80
10007 On ch=1 n=73 v=80
10007 On ch=1 n=80 v=80
10032 On ch=1 n=68 v=0
10032 On ch=1 n=73 v=0
10032 On ch=1 n=80 v=0
10044 On ch=1 n=70 v=80
10044 On ch=1 n=73 v=80
10044 On ch=1 n=82 v=80
10068 On ch=1 n=70 v=0
10068 On ch=1 n=73 v=0
10068 On ch=1 n=82 v=0
10080 On ch=1 n=71 v=80
10080 On ch=1 n=74 v=80
10080 On ch=1 n=83 v=80
10104 On ch=1 n=71 v=0
10104 On ch=1 n=74 v=0
10104 On ch=1 n=83 v=0
10116 On ch=1 n=72 v=80
10116 On ch=1 n=75 v=80
10116 On ch=1 n=84 v=80
10164 On ch=1 n=72 v=0
10164 On ch=1 n=75 v=0
10164 On ch=1 n=84 v=0
10187 On ch=1 n=71 v=80
10187 On ch=1 n=74 v=80
10187 On ch=1 n=83 v=80
10212 On ch=1 n=71 v=0
10212 On ch=1 n=74 v=0
10212 On ch=1 n=83 v=0
10224 On ch=1 n=72 v=80
10224 On ch=1 n=75 v=80
10224 On ch=1 n=84 v=80
10272 On ch=1 n=72 v=0
10272 On ch=1 n=75 v=0
10272 On ch=1 n=84 v=0
10296 On ch=1 n=71 v=80
10296 On ch=1 n=74 v=80
10296 On ch=1 n=83 v=80
10320 On ch=1 n=71 v=0
10320 On ch=1 n=74 v=0
10320 On ch=1 n=83 v=0
10332 On ch=1 n=72 v=80
10332 On ch=1 n=75 v=80
10332 On ch=1 n=84 v=80
10512 On ch=1 n=72 v=0
10512 On ch=1 n=75 v=0
10512 On ch=1 n=84 v=0
10584 On ch=1 n=72 v=80
10584 On ch=1 n=75 v=80
10632 On ch=1 n=72 v=0
10632 On ch=1 n=75 v=0
10656 On ch=1 n=73 v=80
10656 On ch=1 n=76 v=80
10680 On ch=1 n=73 v=0
10680 On ch=1 n=76 v=0
10692 On ch=1 n=73 v=80
10692 On ch=1 n=77 v=80
10740 On ch=1 n=73 v=0
10740 On ch=1 n=77 v=0
10764 On ch=1 n=73 v=80
10764 On ch=1 n=70 v=80
10896 On ch=1 n=73 v=0
10896 On ch=1 n=70 v=0
10944 On ch=1 n=73 v=80
10944 On ch=1 n=76 v=80
10968 On ch=1 n=73 v=0
10968 On ch=1 n=76 v=0
10980 On ch=1 n=73 v=80
10980 On ch=1 n=77 v=80
11028 On ch=1 n=73 v=0
11028 On ch=1 n=77 v=0
11052 On ch=1 n=73 v=80
11052 On ch=1 n=70 v=80
11183 On ch=1 n=73 v=0
11183 On ch=1 n=70 v=0
11232 On ch=1 n=72 v=80
11232 On ch=1 n=76 v=80
11256 On ch=1 n=72 v=0
11256 On ch=1 n=76 v=0
11267 On ch=1 n=72 v=80
11267 On ch=1 n=77 v=80
11316 On ch=1 n=72 v=0
11316 On ch=1 n=77 v=0
11340 On ch=1 n=79 v=80
11364 On ch=1 n=79 v=0
11376 On ch=1 n=77 v=80
11376 On ch=1 n=72 v=80
11400 On ch=1 n=77 v=0
11400 On ch=1 n=72 v=0
11412 On ch=1 n=72 v=80
11436 On ch=1 n=72 v=0
11447 On ch=1 n=75 v=80
11472 On ch=1 n=75 v=0
11484 On ch=1 n=80 v=80
11508 On ch=1 n=80 v=0
11520 On ch=1 n=75 v=80
11520 On ch=1 n=72 v=80
11520 On ch=1 n=84 v=80
11712 On ch=1 n=75 v=0
11712 On ch=1 n=72 v=0
11712 On ch=1 n=84 v=0
11844 On ch=1 n=79 v=80
11868 On ch=1 n=79 v=0
11880 On ch=1 n=82 v=80
11904 On ch=1 n=82 v=0
11916 On ch=1 n=85 v=80
11940 On ch=1 n=85 v=0
11952 On ch=1 n=89 v=80
11952 On ch=1 n=79 v=80
11976 On ch=1 n=89 v=0
11976 On ch=1 n=79 v=0
11987 On ch=1 n=87 v=80
12036 On ch=1 n=87 v=0
12060 On ch=1 n=85 v=80
12084 On ch=1 n=85 v=0
12096 On ch=1 n=75 v=80
12120 On ch=1 n=75 v=0
12132 On ch=1 n=79 v=80
12156 On ch=1 n=79 v=0
12167 On ch=1 n=82 v=80
12192 On ch=1 n=82 v=0
12204 On ch=1 n=75 v=80
12204 On ch=1 n=79 v=80
12204 On ch=1 n=87 v=80
12252 On ch=1 n=75 v=0
12252 On ch=1 n=79 v=0
12252 On ch=1 n=87 v=0
12276 On ch=1 n=67 v=80
12276 On ch=1 n=73 v=80
12276 On ch=1 n=79 v=80
12300 On ch=1 n=67 v=0
12300 On ch=1 n=73 v=0
12300 On ch=1 n=79 v=0
12312 On ch=1 n=68 v=80
12312 On ch=1 n=73 v=80
12312 On ch=1 n=80 v=80
12336 On ch=1 n=68 v=0
12336 On ch=1 n=73 v=0
12336 On ch=1 n=80 v=0
12347 On ch=1 n=70 v=80
12347 On ch=1 n=73 v=80
12347 On ch=1 n=82 v=80
12372 On ch=1 n=70 v=0
12372 On ch=1 n=73 v=0
12372 On ch=1 n=82 v=0
12384 On ch=1 n=71 v=80
12384 On ch=1 n=74 v=80
12384 On ch=1 n=83 v=80
12408 On ch=1 n=71 v=0
12408 On ch=1 n=74 v=0
12408 On ch=1 n=83 v=0
12420 On ch=1 n=72 v=80
12420 On ch=1 n=75 v=80
12420 On ch=1 n=84 v=80
12468 On ch=1 n=72 v=0
12468 On ch=1 n=75 v=0
12468 On ch=1 n=84 v=0
12492 On ch=1 n=72 v=80
12492 On ch=1 n=76 v=80
12492 On ch=1 n=84 v=80
12540 On ch=1 n=72 v=0
12540 On ch=1 n=76 v=0
12540 On ch=1 n=84 v=0
12564 On ch=1 n=79 v=80
12564 On ch=1 n=76 v=80
12588 On ch=1 n=79 v=0
12588 On ch=1 n=76 v=0
12600 On ch=1 n=79 v=80
12600 On ch=1 n=84 v=80
12600 On ch=1 n=76 v=80
12600 On ch=1 n=72 v=80
12648 On ch=1 n=79 v=0
12648 On ch=1 n=84 v=0
12648 On ch=1 n=76 v=0
12648 On ch=1 n=72 v=0
12672 On ch=1 n=72 v=80
12672 On ch=1 n=77 v=80
12672 On ch=1 n=80 v=80
12672 On ch=1 n=84 v=80
12720 On ch=1 n=72 v=0
12720 On ch=1 n=77 v=0
12720 On ch=1 n=80 v=0
12720 On ch=1 n=84 v=0
12744 On ch=1 n=72 v=80
12744 On ch=1 n=84 v=80
12768 On ch=1 n=72 v=0
12768 On ch=1 n=84 v=0
12780 On ch=1 n=77 v=80
12804 On ch=1 n=77 v=0
12816 On ch=1 n=80 v=80
12840 On ch=1 n=80 v=0
12852 On ch=1 n=84 v=80
12852 On ch=1 n=80 v=80
12852 On ch=1 n=77 v=80
12852 On ch=1 n=72 v=80
12900 On ch=1 n=84 v=0
12900 On ch=1 n=80 v=0
12900 On ch=1 n=77 v=0
12900 On ch=1 n=72 v=0
12924 On ch=1 n=73 v=80
12924 On ch=1 n=77 v=80
12924 On ch=1 n=84 v=80
13032 On ch=1 n=73 v=0
13032 On ch=1 n=77 v=0
13032 On ch=1 n=84 v=0
13067 On ch=1 n=82 v=80
13092 On ch=1 n=82 v=0
13104 On ch=1 n=80 v=80
13128 On ch=1 n=80 v=0
13140 On ch=1 n=77 v=80
13164 On ch=1 n=77 v=0
13176 On ch=1 n=73 v=80
13224 On ch=1 n=73 v=0
13247 On ch=1 n=72 v=80
13247 On ch=1 n=75 v=80
13247 On ch=1 n=84 v=80
13319 On ch=1 n=72 v=0
13319 On ch=1 n=75 v=0
13319 On ch=1 n=84 v=0
13356 On ch=1 n=82 v=80
13380 On ch=1 n=82 v=0
13392 On ch=1 n=80 v=80
13416 On ch=1 n=80 v=0
13427 On ch=1 n=75 v=80
13452 On ch=1 n=75 v=0
13464 On ch=1 n=72 v=80
13512 On ch=1 n=72 v=0
13536 On ch=1 n=73 v=80
13536 On ch=1 n=76 v=80
13560 On ch=1 n=73 v=0
13560 On ch=1 n=76 v=0
13572 On ch=1 n=73 v=80
13572 On ch=1 n=77 v=80
13620 On ch=1 n=73 v=0
13620 On ch=1 n=77 v=0
13644 On ch=1 n=79 v=80
13668 On ch=1 n=79 v=0
13680 On ch=1 n=77 v=80
13680 On ch=1 n=73 v=80
13704 On ch=1 n=77 v=0
13704 On ch=1 n=73 v=0
13716 On ch=1 n=67 v=80
13740 On ch=1 n=67 v=0
13752 On ch=1 n=70 v=80
13776 On ch=1 n=70 v=0
13787 On ch=1 n=75 v=80
13812 On ch=1 n=75 v=0
13823 On ch=1 n=68 v=80
13967 On ch=1 n=68 v=0
14040 On ch=1 n=75 v=80
14088 On ch=1 n=75 v=0
14147 On ch=1 n=79 v=80
14172 On ch=1 n=79 v=0
14183 On ch=1 n=82 v=80
14207 On ch=1 n=82 v=0
14220 On ch=1 n=85 v=80
14244 On ch=1 n=85 v=0
14256 On ch=1 n=89 v=80
14256 On ch=1 n=79 v=80
14280 On ch=1 n=89 v=0
14280 On ch=1 n=79 v=0
14292 On ch=1 n=87 v=80
14340 On ch=1 n=87 v=0
14363 On ch=1 n=85 v=80
14387 On ch=1 n=85 v=0
14400 On ch=1 n=75 v=80
14424 On ch=1 n=75 v=0
14436 On ch=1 n=79 v=80
14460 On ch=1 n=79 v=0
14472 On ch=1 n=82 v=80
14496 On ch=1 n=82 v=0
14507 On ch=1 n=75 v=80
14507 On ch=1 n=79 v=80
14507 On ch=1 n=87 v=80
14556 On ch=1 n=75 v=0
14556 On ch=1 n=79 v=0
14556 On ch=1 n=87 v=0
14580 On ch=1 n=67 v=80
14580 On ch=1 n=73 v=80
14580 On ch=1 n=79 v=80
14604 On ch=1 n=67 v=0
14604 On ch=1 n=73 v=0
14604 On ch=1 n=79 v=0
14616 On ch=1 n=68 v=80
14616 On ch=1 n=73 v=80
14616 On ch=1 n=80 v=80
14640 On ch=1 n=68 v=0
14640 On ch=1 n=73 v=0
14640 On ch=1 n=80 v=0
14652 On ch=1 n=70 v=80
14652 On ch=1 n=73 v=80
14652 On ch=1 n=82 v=80
14676 On ch=1 n=70 v=0
14676 On ch=1 n=73 v=0
14676 On ch=1 n=82 v=0
14687 On ch=1 n=71 v=80
14687 On ch=1 n=74 v=80
14687 On ch=1 n=83 v=80
14712 On ch=1 n=71 v=0
14712 On ch=1 n=74 v=0
14712 On ch=1 n=83 v=0
14723 On ch=1 n=72 v=80
14723 On ch=1 n=75 v=80
14723 On ch=1 n=84 v=80
14772 On ch=1 n=72 v=0
14772 On ch=1 n=75 v=0
14772 On ch=1 n=84 v=0
14796 On ch=1 n=71 v=80
14796 On ch=1 n=74 v=80
14796 On ch=1 n=83 v=80
14820 On ch=1 n=71 v=0
14820 On ch=1 n=74 v=0
14820 On ch=1 n=83 v=0
14832 On ch=1 n=72 v=80
14832 On ch=1 n=75 v=80
14832 On ch=1 n=84 v=80
14880 On ch=1 n=72 v=0
14880 On ch=1 n=75 v=0
14880 On ch=1 n=84 v=0
14903 On ch=1 n=71 v=80
14903 On ch=1 n=74 v=80
14903 On ch=1 n=83 v=80
14927 On ch=1 n=71 v=0
14927 On ch=1 n=74 v=0
14927 On ch=1 n=83 v=0
14940 On ch=1 n=72 v=80
14940 On ch=1 n=75 v=80
14940 On ch=1 n=84 v=80
15120 On ch=1 n=72 v=0
15120 On ch=1 n=75 v=0
15120 On ch=1 n=84 v=0
15192 On ch=1 n=72 v=80
15192 On ch=1 n=75 v=80
15240 On ch=1 n=72 v=0
15240 On ch=1 n=75 v=0
15263 On ch=1 n=73 v=80
15263 On ch=1 n=76 v=80
15287 On ch=1 n=73 v=0
15287 On ch=1 n=76 v=0
15300 On ch=1 n=73 v=80
15300 On ch=1 n=77 v=80
15348 On ch=1 n=73 v=0
15348 On ch=1 n=77 v=0
15372 On ch=1 n=73 v=80
15372 On ch=1 n=70 v=80
15503 On ch=1 n=73 v=0
15503 On ch=1 n=70 v=0
15552 On ch=1 n=73 v=80
15552 On ch=1 n=76 v=80
15575 On ch=1 n=73 v=0
15575 On ch=1 n=76 v=0
15588 On ch=1 n=73 v=80
15588 On ch=1 n=77 v=80
15636 On ch=1 n=73 v=0
15636 On ch=1 n=77 v=0
15660 On ch=1 n=73 v=80
15660 On ch=1 n=70 v=80
15792 On ch=1 n=73 v=0
15792 On ch=1 n=70 v=0
15840 On ch=1 n=72 v=80
15840 On ch=1 n=76 v=80
15863 On ch=1 n=72 v=0
15863 On ch=1 n=76 v=0
15875 On ch=1 n=72 v=80
15875 On ch=1 n=77 v=80
15923 On ch=1 n=72 v=0
15923 On ch=1 n=77 v=0
15948 On ch=1 n=79 v=80
15972 On ch=1 n=79 v=0
15983 On ch=1 n=77 v=80
15983 On ch=1 n=72 v=80
16007 On ch=1 n=77 v=0
16007 On ch=1 n=72 v=0
16020 On ch=1 n=72 v=80
16043 On ch=1 n=72 v=0
16055 On ch=1 n=75 v=80
16079 On ch=1 n=75 v=0
16092 On ch=1 n=80 v=80
16115 On ch=1 n=80 v=0
16128 On ch=1 n=75 v=80
16128 On ch=1 n=72 v=80
16128 On ch=1 n=84 v=80
16320 On ch=1 n=75 v=0
16320 On ch=1 n=72 v=0
16320 On ch=1 n=84 v=0
16452 On ch=1 n=79 v=80
16475 On ch=1 n=79 v=0
16488 On ch=1 n=82 v=80
16512 On ch=1 n=82 v=0
16524 On ch=1 n=85 v=80
16547 On ch=1 n=85 v=0
16560 On ch=1 n=89 v=80
16560 On ch=1 n=79 v=80
16584 On ch=1 n=89 v=0
16584 On ch=1 n=79 v=0
16595 On ch=1 n=87 v=80
16644 On ch=1 n=87 v=0
16668 On ch=1 n=85 v=80
16692 On ch=1 n=85 v=0
16704 On ch=1 n=75 v=80
16727 On ch=1 n=75 v=0
16740 On ch=1 n=79 v=80
16764 On ch=1 n=79 v=0
16775 On ch=1 n=82 v=80
16799 On ch=1 n=82 v=0
16812 On ch=1 n=75 v=80
16812 On ch=1 n=79 v=80
16812 On ch=1 n=87 v=80
16860 On ch=1 n=75 v=0
16860 On ch=1 n=79 v=0
16860 On ch=1 n=87 v=0
16884 On ch=1 n=67 v=80
16884 On ch=1 n=73 v=80
16884 On ch=1 n=79 v=80
16907 On ch=1 n=67 v=0
16907 On ch=1 n=73 v=0
16907 On ch=1 n=79 v=0
16920 On ch=1 n=68 v=80
16920 On ch=1 n=73 v=80
16920 On ch=1 n=80 v=80
16944 On ch=1 n=68 v=0
16944 On ch=1 n=73 v=0
16944 On ch=1 n=80 v=0
16955 On ch=1 n=70 v=80
16955 On ch=1 n=73 v=80
16955 On ch=1 n=82 v=80
16979 On ch=1 n=70 v=0
16979 On ch=1 n=73 v=0
16979 On ch=1 n=82 v=0
16992 On ch=1 n=71 v=80
16992 On ch=1 n=74 v=80
16992 On ch=1 n=83 v=80
17015 On ch=1 n=71 v=0
17015 On ch=1 n=74 v=0
17015 On ch=1 n=83 v=0
17028 On ch=1 n=72 v=80
17028 On ch=1 n=75 v=80
17028 On ch=1 n=84 v=80
17076 On ch=1 n=72 v=0
17076 On ch=1 n=75 v=0
17076 On ch=1 n=84 v=0
17100 On ch=1 n=72 v=80
17100 On ch=1 n=76 v=80
17100 On ch=1 n=84 v=80
17148 On ch=1 n=72 v=0
17148 On ch=1 n=76 v=0
17148 On ch=1 n=84 v=0
17172 On ch=1 n=79 v=80
17172 On ch=1 n=76 v=80
17195 On ch=1 n=79 v=0
17195 On ch=1 n=76 v=0
17208 On ch=1 n=79 v=80
17208 On ch=1 n=84 v=80
17208 On ch=1 n=76 v=80
17208 On ch=1 n=72 v=80
17256 On ch=1 n=79 v=0
17256 On ch=1 n=84 v=0
17256 On ch=1 n=76 v=0
17256 On ch=1 n=72 v=0
17280 On ch=1 n=72 v=80
17280 On ch=1 n=77 v=80
17280 On ch=1 n=80 v=80
17280 On ch=1 n=84 v=80
17328 On ch=1 n=72 v=0
17328 On ch=1 n=77 v=0
17328 On ch=1 n=80 v=0
17328 On ch=1 n=84 v=0
17352 On ch=1 n=72 v=80
17352 On ch=1 n=84 v=80
17375 On ch=1 n=72 v=0
17375 On ch=1 n=84 v=0
17388 On ch=1 n=77 v=80
17412 On ch=1 n=77 v=0
17424 On ch=1 n=80 v=80
17447 On ch=1 n=80 v=0
17460 On ch=1 n=84 v=80
17460 On ch=1 n=80 v=80
17460 On ch=1 n=77 v=80
17460 On ch=1 n=72 v=80
17508 On ch=1 n=84 v=0
17508 On ch=1 n=80 v=0
17508 On ch=1 n=77 v=0
17508 On ch=1 n=72 v=0
17532 On ch=1 n=73 v=80
17532 On ch=1 n=77 v=80
17532 On ch=1 n=84 v=80
17640 On ch=1 n=73 v=0
17640 On ch=1 n=77 v=0
17640 On ch=1 n=84 v=0
17675 On ch=1 n=82 v=80
17699 On ch=1 n=82 v=0
17712 On ch=1 n=80 v=80
17735 On ch=1 n=80 v=0
17748 On ch=1 n=77 v=80
17772 On ch=1 n=77 v=0
17784 On ch=1 n=73 v=80
17832 On ch=1 n=73 v=0
17855 On ch=1 n=72 v=80
17855 On ch=1 n=75 v=80
17855 On ch=1 n=84 v=80
17927 On ch=1 n=72 v=0
17927 On ch=1 n=75 v=0
17927 On ch=1 n=84 v=0
17964 On ch=1 n=82 v=80
17987 On ch=1 n=82 v=0
18000 On ch=1 n=80 v=80
18024 On ch=1 n=80 v=0
18035 On ch=1 n=75 v=80
18059 On ch=1 n=75 v=0
18072 On ch=1 n=72 v=80
18120 On ch=1 n=72 v=0
18144 On ch=1 n=73 v=80
18144 On ch=1 n=76 v=80
18167 On ch=1 n=73 v=0
18167 On ch=1 n=76 v=0
18180 On ch=1 n=73 v=80
18180 On ch=1 n=77 v=80
18228 On ch=1 n=73 v=0
18228 On ch=1 n=77 v=0
18252 On ch=1 n=79 v=80
18275 On ch=1 n=79 v=0
18288 On ch=1 n=77 v=80
18288 On ch=1 n=73 v=80
18312 On ch=1 n=77 v=0
18312 On ch=1 n=73 v=0
18324 On ch=1 n=67 v=80
18347 On ch=1 n=67 v=0
18360 On ch=1 n=70 v=80
18384 On ch=1 n=70 v=0
18395 On ch=1 n=75 v=80
18419 On ch=1 n=75 v=0
18432 On ch=1 n=68 v=80
18480 On ch=1 n=68 v=0
18492 On ch=1 n=74 v=80
18500 On ch=1 n=74 v=0
18504 On ch=1 n=75 v=80
18552 On ch=1 n=75 v=0
18755 On ch=1 n=84 v=80
18779 On ch=1 n=84 v=0
18792 On ch=1 n=80 v=80
18815 On ch=1 n=80 v=0
18828 On ch=1 n=77 v=80
18852 On ch=1 n=77 v=0
18864 On ch=1 n=74 v=80
18887 On ch=1 n=74 v=0
18900 On ch=1 n=75 v=80
18924 On ch=1 n=75 v=0
18935 On ch=1 n=68 v=80
18959 On ch=1 n=68 v=0
18972 On ch=1 n=70 v=80
18995 On ch=1 n=70 v=0
19008 On ch=1 n=62 v=80
19008 On ch=1 n=71 v=80
19032 On ch=1 n=71 v=0
19044 On ch=1 n=67 v=80
19067 On ch=1 n=67 v=0
19080 On ch=1 n=62 v=0
19080 On ch=1 n=68 v=80
19104 On ch=1 n=68 v=0
19115 On ch=1 n=61 v=80
19115 On ch=1 n=70 v=80
19115 On ch=1 n=67 v=80
19164 On ch=1 n=70 v=0
19164 On ch=1 n=67 v=0
19187 On ch=1 n=61 v=0
19188 On ch=1 n=75 v=80
19212 On ch=1 n=75 v=0
19224 On ch=1 n=87 v=80
19247 On ch=1 n=87 v=0
19260 On ch=1 n=85 v=80
19284 On ch=1 n=85 v=0
19332 On ch=1 n=84 v=80
19355 On ch=1 n=84 v=0
19368 On ch=1 n=80 v=80
19392 On ch=1 n=80 v=0
19404 On ch=1 n=77 v=80
19427 On ch=1 n=77 v=0
19440 On ch=1 n=74 v=80
19464 On ch=1 n=74 v=0
19475 On ch=1 n=75 v=80
19499 On ch=1 n=75 v=0
19512 On ch=1 n=68 v=80
19535 On ch=1 n=68 v=0
19548 On ch=1 n=70 v=80
19572 On ch=1 n=70 v=0
19584 On ch=1 n=62 v=80
19584 On ch=1 n=71 v=80
19607 On ch=1 n=71 v=0
19620 On ch=1 n=67 v=80
19644 On ch=1 n=67 v=0
19655 On ch=1 n=62 v=0
19655 On ch=1 n=68 v=80
19679 On ch=1 n=68 v=0
19692 On ch=1 n=61 v=80
19692 On ch=1 n=67 v=80
19692 On ch=1 n=70 v=80
19764 On ch=1 n=61 v=0
19764 On ch=1 n=67 v=0
19764 On ch=1 n=70 v=0
19944 On ch=1 n=73 v=80
19944 On ch=1 n=65 v=80
19944 On ch=1 n=70 v=80
19944 On ch=1 n=67 v=80
19992 On ch=1 n=73 v=0
19992 On ch=1 n=65 v=0
19992 On ch=1 n=70 v=0
19992 On ch=1 n=67 v=0
20015 On ch=1 n=72 v=80
20015 On ch=1 n=64 v=80
20015 On ch=1 n=70 v=80
20015 On ch=1 n=67 v=80
20064 On ch=1 n=72 v=0
20064 On ch=1 n=64 v=0
20064 On ch=1 n=70 v=0
20064 On ch=1 n=67 v=0
20232 On ch=1 n=77 v=80
20232 On ch=1 n=70 v=80
20232 On ch=1 n=67 v=80
20280 On ch=1 n=77 v=0
20280 On ch=1 n=70 v=0
20280 On ch=1 n=67 v=0
20304 On ch=1 n=76 v=80
20304 On ch=1 n=70 v=80
20304 On ch=1 n=67 v=80
20352 On ch=1 n=76 v=0
20352 On ch=1 n=70 v=0
20352 On ch=1 n=67 v=0
20735 On ch=1 n=65 v=80
20759 On ch=1 n=65 v=0
20772 On ch=1 n=67 v=80
20795 On ch=1 n=67 v=0
20808 On ch=1 n=68 v=80
20832 On ch=1 n=68 v=0
20844 On ch=1 n=72 v=80
20867 On ch=1 n=72 v=0
20880 On ch=1 n=77 v=80
20880 On ch=1 n=65 v=80
20904 On ch=1 n=77 v=0
20904 On ch=1 n=65 v=0
20915 On ch=1 n=79 v=80
20915 On ch=1 n=67 v=80
20939 On ch=1 n=79 v=0
20939 On ch=1 n=67 v=0
20952 On ch=1 n=80 v=80
20952 On ch=1 n=68 v=80
20975 On ch=1 n=80 v=0
20975 On ch=1 n=68 v=0
20988 On ch=1 n=84 v=80
20988 On ch=1 n=72 v=80
21012 On ch=1 n=84 v=0
21012 On ch=1 n=72 v=0
21024 On ch=1 n=77 v=80
21024 On ch=1 n=89 v=80
21024 On ch=1 n=62 v=80
21024 On ch=1 n=65 v=80
21024 On ch=1 n=68 v=80
21024 On ch=1 n=71 v=80
21072 On ch=1 n=77 v=0
21072 On ch=1 n=89 v=0
21072 On ch=1 n=62 v=0
21072 On ch=1 n=65 v=0
21072 On ch=1 n=68 v=0
21072 On ch=1 n=71 v=0
21095 On ch=1 n=79 v=80
21095 On ch=1 n=91 v=80
21095 On ch=1 n=62 v=80
21095 On ch=1 n=65 v=80
21095 On ch=1 n=68 v=80
21095 On ch=1 n=71 v=80
21119 On ch=1 n=79 v=0
21119 On ch=1 n=91 v=0
21132 On ch=1 n=89 v=80
21132 On ch=1 n=77 v=80
21144 On ch=1 n=62 v=0
21144 On ch=1 n=65 v=0
21144 On ch=1 n=68 v=0
21144 On ch=1 n=71 v=0
21168 On ch=1 n=62 v=80
21168 On ch=1 n=65 v=80
21168 On ch=1 n=68 v=80
21168 On ch=1 n=71 v=80
21180 On ch=1 n=89 v=0
21180 On ch=1 n=77 v=0
21204 On ch=1 n=79 v=80
21204 On ch=1 n=91 v=80
21216 On ch=1 n=62 v=0
21216 On ch=1 n=65 v=0
21216 On ch=1 n=68 v=0
21216 On ch=1 n=71 v=0
21227 On ch=1 n=79 v=0
21227 On ch=1 n=91 v=0
21240 On ch=1 n=89 v=80
21240 On ch=1 n=77 v=80
21240 On ch=1 n=62 v=80
21240 On ch=1 n=65 v=80
21240 On ch=1 n=68 v=80
21240 On ch=1 n=71 v=80
21264 On ch=1 n=89 v=0
21264 On ch=1 n=77 v=0
21275 On ch=1 n=77 v=80
21275 On ch=1 n=89 v=80
21288 On ch=1 n=62 v=0
21288 On ch=1 n=65 v=0
21288 On ch=1 n=68 v=0
21288 On ch=1 n=71 v=0
21312 On ch=1 n=72 v=80
21312 On ch=1 n=68 v=80
21312 On ch=1 n=63 v=80
21324 On ch=1 n=77 v=0
21324 On ch=1 n=89 v=0
21348 On ch=1 n=87 v=80
21360 On ch=1 n=72 v=0
21360 On ch=1 n=68 v=0
21360 On ch=1 n=63 v=0
21372 On ch=1 n=87 v=0
21384 On ch=1 n=84 v=80
21384 On ch=1 n=63 v=80
21384 On ch=1 n=68 v=80
21384 On ch=1 n=72 v=80
21407 On ch=1 n=84 v=0
21420 On ch=1 n=82 v=80
21432 On ch=1 n=63 v=0
21432 On ch=1 n=68 v=0
21432 On ch=1 n=72 v=0
21444 On ch=1 n=82 v=0
21455 On ch=1 n=80 v=80
21455 On ch=1 n=72 v=80
21455 On ch=1 n=68 v=80
21455 On ch=1 n=66 v=80
21479 On ch=1 n=80 v=0
21492 On ch=1 n=87 v=80
21504 On ch=1 n=72 v=0
21504 On ch=1 n=68 v=0
21504 On ch=1 n=66 v=0
21528 On ch=1 n=72 v=80
21528 On ch=1 n=68 v=80
21528 On ch=1 n=66 v=80
21540 On ch=1 n=87 v=0
21564 On ch=1 n=85 v=80
21576 On ch=1 n=72 v=0
21576 On ch=1 n=68 v=0
21576 On ch=1 n=66 v=0
21600 On ch=1 n=73 v=80
21600 On ch=1 n=68 v=80
21600 On ch=1 n=65 v=80
21612 On ch=1 n=85 v=0
21635 On ch=1 n=82 v=80
21648 On ch=1 n=73 v=0
21648 On ch=1 n=68 v=0
21648 On ch=1 n=65 v=0
21659 On ch=1 n=82 v=0
21672 On ch=1 n=94 v=80
21672 On ch=1 n=73 v=80
21672 On ch=1 n=68 v=80
21672 On ch=1 n=64 v=80
21695 On ch=1 n=94 v=0
21708 On ch=1 n=92 v=80
21720 On ch=1 n=73 v=0
21720 On ch=1 n=68 v=0
21720 On ch=1 n=64 v=0
21732 On ch=1 n=92 v=0
21744 On ch=1 n=80 v=80
21744 On ch=1 n=72 v=80
21744 On ch=1 n=68 v=80
21744 On ch=1 n=63 v=80
21767 On ch=1 n=80 v=0
21780 On ch=1 n=84 v=80
21792 On ch=1 n=72 v=0
21792 On ch=1 n=68 v=0
21792 On ch=1 n=63 v=0
21815 On ch=1 n=72 v=80
21815 On ch=1 n=68 v=80
21815 On ch=1 n=63 v=80
21828 On ch=1 n=84 v=0
21852 On ch=1 n=89 v=80
21864 On ch=1 n=72 v=0
21864 On ch=1 n=68 v=0
21864 On ch=1 n=63 v=0
21875 On ch=1 n=89 v=0
21888 On ch=1 n=87 v=80
21888 On ch=1 n=73 v=80
21888 On ch=1 n=67 v=80
21888 On ch=1 n=63 v=80
21912 On ch=1 n=87 v=0
21924 On ch=1 n=82 v=80
21936 On ch=1 n=73 v=0
21936 On ch=1 n=67 v=0
21936 On ch=1 n=63 v=0
21947 On ch=1 n=82 v=0
21960 On ch=1 n=83 v=80
21960 On ch=1 n=63 v=80
21960 On ch=1 n=67 v=80
21960 On ch=1 n=73 v=80
21984 On ch=1 n=83 v=0
21995 On ch=1 n=84 v=80
22008 On ch=1 n=63 v=0
22008 On ch=1 n=67 v=0
22008 On ch=1 n=73 v=0
22032 On ch=1 n=72 v=80
22032 On ch=1 n=68 v=80
22032 On ch=1 n=63 v=80
22044 On ch=1 n=84 v=0
22068 On ch=1 n=74 v=80
22080 On ch=1 n=72 v=0
22080 On ch=1 n=68 v=0
22080 On ch=1 n=63 v=0
22092 On ch=1 n=74 v=0
22104 On ch=1 n=75 v=80
22104 On ch=1 n=63 v=80
22104 On ch=1 n=68 v=80
22104 On ch=1 n=72 v=80
22127 On ch=1 n=75 v=0
22140 On ch=1 n=77 v=80
22140 On ch=1 n=65 v=80
22152 On ch=1 n=63 v=0
22152 On ch=1 n=68 v=0
22152 On ch=1 n=72 v=0
22236 On ch=1 n=77 v=0
22236 On ch=1 n=65 v=0
22248 On ch=1 n=67 v=80
22248 On ch=1 n=79 v=80
22272 On ch=1 n=67 v=0
22272 On ch=1 n=79 v=0
22284 On ch=1 n=65 v=80
22284 On ch=1 n=77 v=80
22332 On ch=1 n=65 v=0
22332 On ch=1 n=77 v=0
22355 On ch=1 n=79 v=80
22355 On ch=1 n=67 v=80
22379 On ch=1 n=79 v=0
22379 On ch=1 n=67 v=0
22392 On ch=1 n=65 v=80
22392 On ch=1 n=77 v=80
22415 On ch=1 n=65 v=0
22415 On ch=1 n=77 v=0
22428 On ch=1 n=77 v=80
22428 On ch=1 n=65 v=80
22476 On ch=1 n=77 v=0
22476 On ch=1 n=65 v=0
22500 On ch=1 n=75 v=80
22524 On ch=1 n=75 v=0
22535 On ch=1 n=72 v=80
22559 On ch=1 n=72 v=0
22572 On ch=1 n=70 v=80
22595 On ch=1 n=70 v=0
22608 On ch=1 n=68 v=80
22632 On ch=1 n=68 v=0
22644 On ch=1 n=75 v=80
22692 On ch=1 n=75 v=0
22715 On ch=1 n=73 v=80
22764 On ch=1 n=73 v=0
22788 On ch=1 n=70 v=80
22812 On ch=1 n=70 v=0
22824 On ch=1 n=82 v=80
22847 On ch=1 n=82 v=0
22860 On ch=1 n=80 v=80
22884 On ch=1 n=80 v=0
22895 On ch=1 n=72 v=80
22919 On ch=1 n=72 v=0
22932 On ch=1 n=77 v=80
22932 On ch=1 n=68 v=80
22980 On ch=1 n=77 v=0
22980 On ch=1 n=68 v=0
23004 On ch=1 n=75 v=80
23027 On ch=1 n=75 v=0
23040 On ch=1 n=62 v=80
23040 On ch=1 n=68 v=80
23064 On ch=1 n=68 v=0
23075 On ch=1 n=70 v=80
23088 On ch=1 n=62 v=0
23099 On ch=1 n=70 v=0
23112 On ch=1 n=61 v=80
23112 On ch=1 n=67 v=80
23112 On ch=1 n=70 v=80
23160 On ch=1 n=61 v=0
23160 On ch=1 n=67 v=0
23160 On ch=1 n=70 v=0
23184 On ch=1 n=60 v=80
23184 On ch=1 n=68 v=80
23232 On ch=1 n=60 v=0
23232 On ch=1 n=68 v=0
23255 On ch=1 n=68 v=80
23255 On ch=1 n=80 v=80
23304 On ch=1 n=68 v=0
23304 On ch=1 n=80 v=0
23328 On ch=1 n=68 v=80
23328 On ch=1 n=73 v=80
23328 On ch=1 n=77 v=80
23328 On ch=1 n=80 v=80
23352 On ch=1 n=68 v=0
23352 On ch=1 n=73 v=0
23352 On ch=1 n=77 v=0
23352 On ch=1 n=80 v=0
23364 On ch=1 n=73 v=80
23387 On ch=1 n=73 v=0
23400 On ch=1 n=77 v=80
23424 On ch=1 n=77 v=0
23435 On ch=1 n=73 v=80
23435 On ch=1 n=70 v=80
23435 On ch=1 n=78 v=80
23435 On ch=1 n=82 v=80
23484 On ch=1 n=73 v=0
23484 On ch=1 n=70 v=0
23484 On ch=1 n=78 v=0
23484 On ch=1 n=82 v=0
23508 On ch=1 n=84 v=80
23508 On ch=1 n=72 v=80
23532 On ch=1 n=84 v=0
23532 On ch=1 n=72 v=0
23544 On ch=1 n=73 v=80
23544 On ch=1 n=85 v=80
23567 On ch=1 n=73 v=0
23567 On ch=1 n=85 v=0
23580 On ch=1 n=75 v=80
23580 On ch=1 n=87 v=80
23604 On ch=1 n=75 v=0
23604 On ch=1 n=87 v=0
23615 On ch=1 n=77 v=80
23615 On ch=1 n=89 v=80
23639 On ch=1 n=77 v=0
23639 On ch=1 n=89 v=0
23652 On ch=1 n=92 v=80
23652 On ch=1 n=80 v=80
23675 On ch=1 n=92 v=0
23675 On ch=1 n=80 v=0
23688 On ch=1 n=77 v=80
23688 On ch=1 n=89 v=80
23712 On ch=1 n=77 v=0
23712 On ch=1 n=89 v=0
23724 On ch=1 n=87 v=80
23724 On ch=1 n=75 v=80
23747 On ch=1 n=87 v=0
23747 On ch=1 n=75 v=0
23760 On ch=1 n=73 v=80
23760 On ch=1 n=85 v=80
23784 On ch=1 n=73 v=0
23784 On ch=1 n=85 v=0
23795 On ch=1 n=82 v=80
23795 On ch=1 n=70 v=80
23819 On ch=1 n=82 v=0
23819 On ch=1 n=70 v=0
23832 On ch=1 n=68 v=80
23832 On ch=1 n=80 v=80
23855 On ch=1 n=68 v=0
23855 On ch=1 n=80 v=0
23868 On ch=1 n=77 v=80
23868 On ch=1 n=65 v=80
23892 On ch=1 n=77 v=0
23892 On ch=1 n=65 v=0
23904 On ch=1 n=66 v=80
23904 On ch=1 n=72 v=80
23904 On ch=1 n=77 v=80
23927 On ch=1 n=77 v=0
23940 On ch=1 n=75 v=80
23975 On ch=1 n=66 v=0
23975 On ch=1 n=72 v=0
23988 On ch=1 n=75 v=0
24012 On ch=1 n=66 v=80
24084 On ch=1 n=66 v=0
24084 On ch=1 n=77 v=80
24107 On ch=1 n=77 v=0
24120 On ch=1 n=66 v=80
24120 On ch=1 n=72 v=80
24120 On ch=1 n=75 v=80
24168 On ch=1 n=66 v=0
24168 On ch=1 n=72 v=0
24168 On ch=1 n=75 v=0
24192 On ch=1 n=65 v=80
24192 On ch=1 n=68 v=80
24192 On ch=1 n=75 v=80
24215 On ch=1 n=75 v=0
24228 On ch=1 n=73 v=80
24264 On ch=1 n=65 v=0
24264 On ch=1 n=68 v=0
24276 On ch=1 n=73 v=0
24300 On ch=1 n=65 v=80
24372 On ch=1 n=65 v=0
24372 On ch=1 n=75 v=80
24395 On ch=1 n=75 v=0
24408 On ch=1 n=65 v=80
24408 On ch=1 n=70 v=80
24408 On ch=1 n=73 v=80
24456 On ch=1 n=65 v=0
24456 On ch=1 n=70 v=0
24456 On ch=1 n=73 v=0
24480 On ch=1 n=65 v=80
24480 On ch=1 n=68 v=80
24480 On ch=1 n=72 v=80
24504 On ch=1 n=72 v=0
24515 On ch=1 n=68 v=80
24516 On ch=1 n=68 v=0
24539 On ch=1 n=68 v=0
24552 On ch=1 n=65 v=0
24552 On ch=1 n=72 v=80
24575 On ch=1 n=72 v=0
24588 On ch=1 n=64 v=80
24588 On ch=1 n=70 v=80
24588 On ch=1 n=73 v=80
24636 On ch=1 n=64 v=0
24636 On ch=1 n=70 v=0
24636 On ch=1 n=73 v=0
24660 On ch=1 n=64 v=80
24684 On ch=1 n=64 v=0
24695 On ch=1 n=64 v=80
24695 On ch=1 n=70 v=80
24695 On ch=1 n=72 v=80
24744 On ch=1 n=64 v=0
24744 On ch=1 n=70 v=0
24744 On ch=1 n=72 v=0
24768 On ch=1 n=65 v=80
24768 On ch=1 n=68 v=80
24768 On ch=1 n=72 v=80
24792 On ch=1 n=72 v=0
24804 On ch=1 n=68 v=0
24804 On ch=1 n=68 v=80
24827 On ch=1 n=68 v=0
24840 On ch=1 n=65 v=0
24840 On ch=1 n=72 v=80
24864 On ch=1 n=72 v=0
24875 On ch=1 n=65 v=80
24875 On ch=1 n=68 v=80
24875 On ch=1 n=71 v=80
24947 On ch=1 n=65 v=0
24947 On ch=1 n=68 v=0
24947 On ch=1 n=71 v=0
24984 On ch=1 n=64 v=80
24984 On ch=1 n=68 v=80
24984 On ch=1 n=70 v=80
25032 On ch=1 n=64 v=0
25032 On ch=1 n=68 v=0
25032 On ch=1 n=70 v=0
25055 On ch=1 n=63 v=80
25055 On ch=1 n=68 v=80
25079 On ch=1 n=68 v=0
25092 On ch=1 n=75 v=80
25104 On ch=1 n=63 v=0
25115 On ch=1 n=75 v=0
25128 On ch=1 n=68 v=80
25128 On ch=1 n=71 v=80
25128 On ch=1 n=76 v=80
25176 On ch=1 n=68 v=0
25176 On ch=1 n=71 v=0
25176 On ch=1 n=76 v=0
25200 On ch=1 n=76 v=80
25200 On ch=1 n=73 v=80
25200 On ch=1 n=67 v=80
25248 On ch=1 n=76 v=0
25248 On ch=1 n=73 v=0
25248 On ch=1 n=67 v=0
25272 On ch=1 n=75 v=80
25272 On ch=1 n=73 v=80
25272 On ch=1 n=66 v=80
25320 On ch=1 n=75 v=0
25320 On ch=1 n=73 v=0
25320 On ch=1 n=66 v=0
25344 On ch=1 n=66 v=80
25344 On ch=1 n=72 v=80
25344 On ch=1 n=75 v=80
25392 On ch=1 n=66 v=0
25392 On ch=1 n=72 v=0
25392 On ch=1 n=75 v=0
25415 On ch=1 n=68 v=80
25415 On ch=1 n=72 v=80
25415 On ch=1 n=75 v=80
25415 On ch=1 n=80 v=80
25439 On ch=1 n=68 v=0
25439 On ch=1 n=72 v=0
25439 On ch=1 n=75 v=0
25439 On ch=1 n=80 v=0
25452 On ch=1 n=72 v=80
25475 On ch=1 n=72 v=0
25488 On ch=1 n=75 v=80
25512 On ch=1 n=75 v=0
25524 On ch=1 n=75 v=80
25524 On ch=1 n=72 v=80
25524 On ch=1 n=68 v=80
25524 On ch=1 n=80 v=80
25572 On ch=1 n=75 v=0
25572 On ch=1 n=72 v=0
25572 On ch=1 n=68 v=0
25572 On ch=1 n=80 v=0
25595 On ch=1 n=68 v=80
25595 On ch=1 n=73 v=80
25595 On ch=1 n=77 v=80
25595 On ch=1 n=80 v=80
25644 On ch=1 n=68 v=0
25644 On ch=1 n=73 v=0
25644 On ch=1 n=77 v=0
25644 On ch=1 n=80 v=0
25668 On ch=1 n=73 v=80
25692 On ch=1 n=73 v=0
25704 On ch=1 n=77 v=80
25727 On ch=1 n=77 v=0
25740 On ch=1 n=73 v=80
25740 On ch=1 n=70 v=80
25740 On ch=1 n=78 v=80
25740 On ch=1 n=82 v=80
25788 On ch=1 n=73 v=0
25788 On ch=1 n=70 v=0
25788 On ch=1 n=78 v=0
25788 On ch=1 n=82 v=0
25812 On ch=1 n=84 v=80
25812 On ch=1 n=72 v=80
25835 On ch=1 n=84 v=0
25835 On ch=1 n=72 v=0
25848 On ch=1 n=73 v=80
25848 On ch=1 n=85 v=80
25872 On ch=1 n=73 v=0
25872 On ch=1 n=85 v=0
25884 On ch=1 n=75 v=80
25884 On ch=1 n=87 v=80
25907 On ch=1 n=75 v=0
25907 On ch=1 n=87 v=0
25920 On ch=1 n=77 v=80
25920 On ch=1 n=89 v=80
25944 On ch=1 n=77 v=0
25944 On ch=1 n=89 v=0
25955 On ch=1 n=92 v=80
25955 On ch=1 n=80 v=80
25979 On ch=1 n=92 v=0
25979 On ch=1 n=80 v=0
25992 On ch=1 n=77 v=80
25992 On ch=1 n=89 v=80
26015 On ch=1 n=77 v=0
26015 On ch=1 n=89 v=0
26028 On ch=1 n=87 v=80
26028 On ch=1 n=75 v=80
26052 On ch=1 n=87 v=0
26052 On ch=1 n=75 v=0
26064 On ch=1 n=73 v=80
26064 On ch=1 n=85 v=80
26087 On ch=1 n=73 v=0
26087 On ch=1 n=85 v=0
26100 On ch=1 n=82 v=80
26100 On ch=1 n=70 v=80
26124 On ch=1 n=82 v=0
26124 On ch=1 n=70 v=0
26135 On ch=1 n=68 v=80
26135 On ch=1 n=80 v=80
26159 On ch=1 n=68 v=0
26159 On ch=1 n=80 v=0
26172 On ch=1 n=77 v=80
26172 On ch=1 n=65 v=80
26195 On ch=1 n=77 v=0
26195 On ch=1 n=65 v=0
26208 On ch=1 n=65 v=80
26232 On ch=1 n=65 v=0
26244 On ch=1 n=69 v=80
26244 On ch=1 n=72 v=80
26244 On ch=1 n=77 v=80
26292 On ch=1 n=69 v=0
26292 On ch=1 n=72 v=0
26292 On ch=1 n=77 v=0
26315 On ch=1 n=65 v=80
26339 On ch=1 n=65 v=0
26352 On ch=1 n=69 v=80
26352 On ch=1 n=72 v=80
26352 On ch=1 n=77 v=80
26400 On ch=1 n=69 v=0
26400 On ch=1 n=72 v=0
26400 On ch=1 n=77 v=0
26424 On ch=1 n=65 v=80
26447 On ch=1 n=65 v=0
26460 On ch=1 n=70 v=80
26460 On ch=1 n=73 v=80
26460 On ch=1 n=77 v=80
26508 On ch=1 n=70 v=0
26508 On ch=1 n=73 v=0
26508 On ch=1 n=77 v=0
26532 On ch=1 n=69 v=80
26532 On ch=1 n=81 v=80
26555 On ch=1 n=69 v=0
26555 On ch=1 n=81 v=0
26568 On ch=1 n=82 v=80
26568 On ch=1 n=70 v=80
26592 On ch=1 n=82 v=0
26592 On ch=1 n=70 v=0
26604 On ch=1 n=72 v=80
26604 On ch=1 n=84 v=80
26627 On ch=1 n=72 v=0
26627 On ch=1 n=84 v=0
26640 On ch=1 n=85 v=80
26640 On ch=1 n=73 v=80
26664 On ch=1 n=85 v=0
26664 On ch=1 n=73 v=0
26675 On ch=1 n=75 v=80
26675 On ch=1 n=87 v=80
26699 On ch=1 n=75 v=0
26699 On ch=1 n=87 v=0
26712 On ch=1 n=77 v=80
26712 On ch=1 n=83 v=80
26712 On ch=1 n=89 v=80
26760 On ch=1 n=77 v=0
26760 On ch=1 n=83 v=0
26760 On ch=1 n=89 v=0
26784 On ch=1 n=78 v=80
26784 On ch=1 n=82 v=80
26784 On ch=1 n=89 v=80
26855 On ch=1 n=78 v=0
26855 On ch=1 n=82 v=0
26855 On ch=1 n=89 v=0
26892 On ch=1 n=87 v=80
26915 On ch=1 n=87 v=0
26928 On ch=1 n=85 v=80
26952 On ch=1 n=85 v=0
26964 On ch=1 n=82 v=80
26987 On ch=1 n=82 v=0
27000 On ch=1 n=78 v=80
27048 On ch=1 n=78 v=0
27072 On ch=1 n=77 v=80
27072 On ch=1 n=80 v=80
27072 On ch=1 n=89 v=80
27144 On ch=1 n=77 v=0
27144 On ch=1 n=80 v=0
27144 On ch=1 n=89 v=0
27180 On ch=1 n=87 v=80
27204 On ch=1 n=87 v=0
27215 On ch=1 n=85 v=80
27239 On ch=1 n=85 v=0
27252 On ch=1 n=80 v=80
27275 On ch=1 n=80 v=0
27288 On ch=1 n=77 v=80
27336 On ch=1 n=77 v=0
27360 On ch=1 n=72 v=80
27360 On ch=1 n=66 v=80
27360 On ch=1 n=77 v=80
27384 On ch=1 n=77 v=0
27395 On ch=1 n=75 v=80
27432 On ch=1 n=72 v=0
27432 On ch=1 n=66 v=0
27444 On ch=1 n=75 v=0
27468 On ch=1 n=66 v=80
27540 On ch=1 n=66 v=0
27540 On ch=1 n=77 v=80
27564 On ch=1 n=77 v=0
27575 On ch=1 n=66 v=80
27575 On ch=1 n=72 v=80
27575 On ch=1 n=75 v=80
27624 On ch=1 n=66 v=0
27624 On ch=1 n=72 v=0
27624 On ch=1 n=75 v=0
27647 On ch=1 n=65 v=80
27647 On ch=1 n=68 v=80
27647 On ch=1 n=73 v=80
27744 On ch=1 n=65 v=0
27744 On ch=1 n=68 v=0
27744 On ch=1 n=73 v=0
27792 On ch=1 n=80 v=80
27792 On ch=1 n=75 v=80
27792 On ch=1 n=72 v=80
27792 On ch=1 n=68 v=80
27888 On ch=1 n=80 v=0
27888 On ch=1 n=75 v=0
27888 On ch=1 n=72 v=0
27888 On ch=1 n=68 v=0
27935 On ch=1 n=68 v=80
27935 On ch=1 n=73 v=80
27935 On ch=1 n=77 v=80
27935 On ch=1 n=80 v=80
27959 On ch=1 n=68 v=0
27959 On ch=1 n=73 v=0
27959 On ch=1 n=77 v=0
27959 On ch=1 n=80 v=0
27972 On ch=1 n=73 v=80
27995 On ch=1 n=73 v=0
28007 On ch=1 n=77 v=80
28031 On ch=1 n=77 v=0
28044 On ch=1 n=73 v=80
28044 On ch=1 n=70 v=80
28044 On ch=1 n=78 v=80
28044 On ch=1 n=82 v=80
28092 On ch=1 n=73 v=0
28092 On ch=1 n=70 v=0
28092 On ch=1 n=78 v=0
28092 On ch=1 n=82 v=0
28115 On ch=1 n=84 v=80
28115 On ch=1 n=72 v=80
28139 On ch=1 n=84 v=0
28139 On ch=1 n=72 v=0
28152 On ch=1 n=73 v=80
28152 On ch=1 n=85 v=80
28175 On ch=1 n=73 v=0
28175 On ch=1 n=85 v=0
28187 On ch=1 n=75 v=80
28187 On ch=1 n=87 v=80
28211 On ch=1 n=75 v=0
28211 On ch=1 n=87 v=0
28224 On ch=1 n=77 v=80
28224 On ch=1 n=89 v=80
28247 On ch=1 n=77 v=0
28247 On ch=1 n=89 v=0
28260 On ch=1 n=92 v=80
28260 On ch=1 n=80 v=80
28284 On ch=1 n=92 v=0
28284 On ch=1 n=80 v=0
28295 On ch=1 n=77 v=80
28295 On ch=1 n=89 v=80
28319 On ch=1 n=77 v=0
28319 On ch=1 n=89 v=0
28332 On ch=1 n=87 v=80
28332 On ch=1 n=75 v=80
28355 On ch=1 n=87 v=0
28355 On ch=1 n=75 v=0
28367 On ch=1 n=73 v=80
28367 On ch=1 n=85 v=80
28391 On ch=1 n=73 v=0
28391 On ch=1 n=85 v=0
28404 On ch=1 n=82 v=80
28404 On ch=1 n=70 v=80
28427 On ch=1 n=82 v=0
28427 On ch=1 n=70 v=0
28440 On ch=1 n=68 v=80
28440 On ch=1 n=80 v=80
28464 On ch=1 n=68 v=0
28464 On ch=1 n=80 v=0
28475 On ch=1 n=77 v=80
28475 On ch=1 n=65 v=80
28499 On ch=1 n=77 v=0
28499 On ch=1 n=65 v=0
28512 On ch=1 n=66 v=80
28512 On ch=1 n=72 v=80
28512 On ch=1 n=77 v=80
28535 On ch=1 n=77 v=0
28547 On ch=1 n=75 v=80
28584 On ch=1 n=66 v=0
28584 On ch=1 n=72 v=0
28595 On ch=1 n=75 v=0
28620 On ch=1 n=66 v=80
28692 On ch=1 n=66 v=0
28692 On ch=1 n=77 v=80
28715 On ch=1 n=77 v=0
28727 On ch=1 n=66 v=80
28727 On ch=1 n=72 v=80
28727 On ch=1 n=75 v=80
28775 On ch=1 n=66 v=0
28775 On ch=1 n=72 v=0
28775 On ch=1 n=75 v=0
28800 On ch=1 n=65 v=80
28800 On ch=1 n=68 v=80
28800 On ch=1 n=75 v=80
28824 On ch=1 n=75 v=0
28835 On ch=1 n=73 v=80
28872 On ch=1 n=65 v=0
28872 On ch=1 n=68 v=0
28884 On ch=1 n=73 v=0
28907 On ch=1 n=65 v=80
28979 On ch=1 n=65 v=0
28980 On ch=1 n=75 v=80
29004 On ch=1 n=75 v=0
29015 On ch=1 n=65 v=80
29015 On ch=1 n=70 v=80
29015 On ch=1 n=73 v=80
29064 On ch=1 n=65 v=0
29064 On ch=1 n=70 v=0
29064 On ch=1 n=73 v=0
29087 On ch=1 n=65 v=80
29087 On ch=1 n=68 v=80
29087 On ch=1 n=72 v=80
29111 On ch=1 n=72 v=0
29124 On ch=1 n=68 v=0
29124 On ch=1 n=68 v=80
29147 On ch=1 n=68 v=0
29159 On ch=1 n=65 v=0
29160 On ch=1 n=72 v=80
29184 On ch=1 n=72 v=0
29195 On ch=1 n=64 v=80
29195 On ch=1 n=70 v=80
29195 On ch=1 n=73 v=80
29244 On ch=1 n=64 v=0
29244 On ch=1 n=70 v=0
29244 On ch=1 n=73 v=0
29267 On ch=1 n=64 v=80
29291 On ch=1 n=64 v=0
29304 On ch=1 n=64 v=80
29304 On ch=1 n=70 v=80
29304 On ch=1 n=72 v=80
29352 On ch=1 n=64 v=0
29352 On ch=1 n=70 v=0
29352 On ch=1 n=72 v=0
29375 On ch=1 n=65 v=80
29375 On ch=1 n=68 v=80
29375 On ch=1 n=72 v=80
29399 On ch=1 n=72 v=0
29412 On ch=1 n=68 v=0
29412 On ch=1 n=68 v=80
29435 On ch=1 n=68 v=0
29447 On ch=1 n=65 v=0
29447 On ch=1 n=72 v=80
29471 On ch=1 n=72 v=0
29484 On ch=1 n=65 v=80
29484 On ch=1 n=68 v=80
29484 On ch=1 n=71 v=80
29555 On ch=1 n=65 v=0
29555 On ch=1 n=68 v=0
29555 On ch=1 n=71 v=0
29592 On ch=1 n=64 v=80
29592 On ch=1 n=68 v=80
29592 On ch=1 n=70 v=80
29640 On ch=1 n=64 v=0
29640 On ch=1 n=68 v=0
29640 On ch=1 n=70 v=0
29664 On ch=1 n=63 v=80
29664 On ch=1 n=68 v=80
29687 On ch=1 n=68 v=0
29700 On ch=1 n=75 v=80
29712 On ch=1 n=63 v=0
29724 On ch=1 n=75 v=0
29735 On ch=1 n=68 v=80
29735 On ch=1 n=71 v=80
29735 On ch=1 n=76 v=80
29784 On ch=1 n=68 v=0
29784 On ch=1 n=71 v=0
29784 On ch=1 n=76 v=0
29807 On ch=1 n=76 v=80
29807 On ch=1 n=73 v=80
29807 On ch=1 n=67 v=80
29855 On ch=1 n=76 v=0
29855 On ch=1 n=73 v=0
29855 On ch=1 n=67 v=0
29880 On ch=1 n=75 v=80
29880 On ch=1 n=73 v=80
29880 On ch=1 n=66 v=80
29928 On ch=1 n=75 v=0
29928 On ch=1 n=73 v=0
29928 On ch=1 n=66 v=0
29952 On ch=1 n=66 v=80
29952 On ch=1 n=72 v=80
29952 On ch=1 n=75 v=80
30000 On ch=1 n=66 v=0
30000 On ch=1 n=72 v=0
30000 On ch=1 n=75 v=0
30024 On ch=1 n=68 v=80
30024 On ch=1 n=72 v=80
30024 On ch=1 n=75 v=80
30024 On ch=1 n=80 v=80
30047 On ch=1 n=68 v=0
30047 On ch=1 n=72 v=0
30047 On ch=1 n=75 v=0
30047 On ch=1 n=80 v=0
30060 On ch=1 n=72 v=80
30084 On ch=1 n=72 v=0
30095 On ch=1 n=75 v=80
30119 On ch=1 n=75 v=0
30132 On ch=1 n=75 v=80
30132 On ch=1 n=72 v=80
30132 On ch=1 n=68 v=80
30132 On ch=1 n=80 v=80
30180 On ch=1 n=75 v=0
30180 On ch=1 n=72 v=0
30180 On ch=1 n=68 v=0
30180 On ch=1 n=80 v=0
30204 On ch=1 n=68 v=80
30204 On ch=1 n=73 v=80
30204 On ch=1 n=77 v=80
30204 On ch=1 n=80 v=80
30252 On ch=1 n=68 v=0
30252 On ch=1 n=73 v=0
30252 On ch=1 n=77 v=0
30252 On ch=1 n=80 v=0
30275 On ch=1 n=73 v=80
30299 On ch=1 n=73 v=0
30312 On ch=1 n=77 v=80
30335 On ch=1 n=77 v=0
30347 On ch=1 n=73 v=80
30347 On ch=1 n=70 v=80
30347 On ch=1 n=78 v=80
30347 On ch=1 n=82 v=80
30395 On ch=1 n=73 v=0
30395 On ch=1 n=70 v=0
30395 On ch=1 n=78 v=0
30395 On ch=1 n=82 v=0
30420 On ch=1 n=84 v=80
30420 On ch=1 n=72 v=80
30444 On ch=1 n=84 v=0
30444 On ch=1 n=72 v=0
30455 On ch=1 n=73 v=80
30455 On ch=1 n=85 v=80
30479 On ch=1 n=73 v=0
30479 On ch=1 n=85 v=0
30492 On ch=1 n=75 v=80
30492 On ch=1 n=87 v=80
30515 On ch=1 n=75 v=0
30515 On ch=1 n=87 v=0
30527 On ch=1 n=77 v=80
30527 On ch=1 n=89 v=80
30551 On ch=1 n=77 v=0
30551 On ch=1 n=89 v=0
30564 On ch=1 n=92 v=80
30564 On ch=1 n=80 v=80
30587 On ch=1 n=92 v=0
30587 On ch=1 n=80 v=0
30600 On ch=1 n=77 v=80
30600 On ch=1 n=89 v=80
30624 On ch=1 n=77 v=0
30624 On ch=1 n=89 v=0
30635 On ch=1 n=87 v=80
30635 On ch=1 n=75 v=80
30659 On ch=1 n=87 v=0
30659 On ch=1 n=75 v=0
30672 On ch=1 n=73 v=80
30672 On ch=1 n=85 v=80
30695 On ch=1 n=73 v=0
30695 On ch=1 n=85 v=0
30707 On ch=1 n=82 v=80
30707 On ch=1 n=70 v=80
30731 On ch=1 n=82 v=0
30731 On ch=1 n=70 v=0
30744 On ch=1 n=68 v=80
30744 On ch=1 n=80 v=80
30767 On ch=1 n=68 v=0
30767 On ch=1 n=80 v=0
30780 On ch=1 n=77 v=80
30780 On ch=1 n=65 v=80
30804 On ch=1 n=77 v=0
30804 On ch=1 n=65 v=0
30816 On ch=1 n=65 v=80
30840 On ch=1 n=65 v=0
30851 On ch=1 n=69 v=80
30851 On ch=1 n=72 v=80
30851 On ch=1 n=77 v=80
30899 On ch=1 n=69 v=0
30899 On ch=1 n=72 v=0
30899 On ch=1 n=77 v=0
30924 On ch=1 n=65 v=80
30947 On ch=1 n=65 v=0
30960 On ch=1 n=69 v=80
30960 On ch=1 n=72 v=80
30960 On ch=1 n=77 v=80
31007 On ch=1 n=69 v=0
31007 On ch=1 n=72 v=0
31007 On ch=1 n=77 v=0
31031 On ch=1 n=65 v=80
31055 On ch=1 n=65 v=0
31067 On ch=1 n=70 v=80
31067 On ch=1 n=73 v=80
31067 On ch=1 n=77 v=80
31115 On ch=1 n=70 v=0
31115 On ch=1 n=73 v=0
31115 On ch=1 n=77 v=0
31140 On ch=1 n=69 v=80
31140 On ch=1 n=81 v=80
31164 On ch=1 n=69 v=0
31164 On ch=1 n=81 v=0
31176 On ch=1 n=82 v=80
31176 On ch=1 n=70 v=80
31200 On ch=1 n=82 v=0
31200 On ch=1 n=70 v=0
31211 On ch=1 n=72 v=80
31211 On ch=1 n=84 v=80
31235 On ch=1 n=72 v=0
31235 On ch=1 n=84 v=0
31247 On ch=1 n=85 v=80
31247 On ch=1 n=73 v=80
31271 On ch=1 n=85 v=0
31271 On ch=1 n=73 v=0
31284 On ch=1 n=75 v=80
31284 On ch=1 n=87 v=80
31307 On ch=1 n=75 v=0
31307 On ch=1 n=87 v=0
31320 On ch=1 n=77 v=80
31320 On ch=1 n=83 v=80
31320 On ch=1 n=89 v=80
31367 On ch=1 n=77 v=0
31367 On ch=1 n=83 v=0
31367 On ch=1 n=89 v=0
31391 On ch=1 n=78 v=80
31391 On ch=1 n=82 v=80
31391 On ch=1 n=89 v=80
31464 On ch=1 n=78 v=0
31464 On ch=1 n=82 v=0
31464 On ch=1 n=89 v=0
31500 On ch=1 n=87 v=80
31524 On ch=1 n=87 v=0
31536 On ch=1 n=85 v=80
31560 On ch=1 n=85 v=0
31571 On ch=1 n=82 v=80
31595 On ch=1 n=82 v=0
31607 On ch=1 n=78 v=80
31655 On ch=1 n=78 v=0
31680 On ch=1 n=77 v=80
31680 On ch=1 n=80 v=80
31680 On ch=1 n=89 v=80
31752 On ch=1 n=77 v=0
31752 On ch=1 n=80 v=0
31752 On ch=1 n=89 v=0
31787 On ch=1 n=87 v=80
31811 On ch=1 n=87 v=0
31824 On ch=1 n=85 v=80
31847 On ch=1 n=85 v=0
31860 On ch=1 n=80 v=80
31884 On ch=1 n=80 v=0
31896 On ch=1 n=77 v=80
31944 On ch=1 n=77 v=0
31967 On ch=1 n=72 v=80
31967 On ch=1 n=66 v=80
31967 On ch=1 n=77 v=80
31991 On ch=1 n=77 v=0
32004 On ch=1 n=75 v=80
32040 On ch=1 n=72 v=0
32040 On ch=1 n=66 v=0
32051 On ch=1 n=75 v=0
32076 On ch=1 n=66 v=80
32147 On ch=1 n=77 v=80
32148 On ch=1 n=66 v=0
32171 On ch=1 n=77 v=0
32184 On ch=1 n=66 v=80
32184 On ch=1 n=72 v=80
32184 On ch=1 n=75 v=80
32231 On ch=1 n=66 v=0
32231 On ch=1 n=72 v=0
32231 On ch=1 n=75 v=0
32256 On ch=1 n=65 v=80
32256 On ch=1 n=68 v=80
32256 On ch=1 n=73 v=80
32400 On ch=1 n=65 v=0
32400 On ch=1 n=68 v=0
32400 On ch=1 n=73 v=0
32471 On ch=1 n=73 v=80
32471 On ch=1 n=77 v=80
32471 On ch=1 n=80 v=80
32471 On ch=1 n=85 v=80
32519 On ch=1 n=73 v=0
32519 On ch=1 n=77 v=0
32519 On ch=1 n=80 v=0
32519 On ch=1 n=85 v=0
32544 On ch=1 n=85 v=80
32580 On ch=1 n=73 v=80
32580 On ch=1 n=78 v=80
32580 On ch=1 n=82 v=80
32616 On ch=1 n=85 v=0
32627 On ch=1 n=73 v=0
32627 On ch=1 n=78 v=0
32627 On ch=1 n=82 v=0
32651 On ch=1 n=85 v=80
32687 On ch=1 n=78 v=80
32687 On ch=1 n=82 v=80
32687 On ch=1 n=75 v=80
32724 On ch=1 n=85 v=0
32735 On ch=1 n=78 v=0
32735 On ch=1 n=82 v=0
32735 On ch=1 n=75 v=0
32760 On ch=1 n=85 v=80
32796 On ch=1 n=77 v=80
32796 On ch=1 n=78 v=80
32796 On ch=1 n=82 v=80
32844 On ch=1 n=77 v=0
32844 On ch=1 n=78 v=0
32844 On ch=1 n=82 v=0
32856 On ch=1 n=85 v=0
32868 On ch=1 n=85 v=80
32904 On ch=1 n=75 v=80
32904 On ch=1 n=78 v=80
32904 On ch=1 n=82 v=80
32940 On ch=1 n=85 v=0
32951 On ch=1 n=75 v=0
32951 On ch=1 n=78 v=0
32951 On ch=1 n=82 v=0
32976 On ch=1 n=73 v=80
32976 On ch=1 n=78 v=80
32976 On ch=1 n=82 v=80
32976 On ch=1 n=85 v=80
33024 On ch=1 n=73 v=0
33024 On ch=1 n=78 v=0
33024 On ch=1 n=82 v=0
33024 On ch=1 n=85 v=0
33048 On ch=1 n=73 v=80
33048 On ch=1 n=70 v=80
33048 On ch=1 n=78 v=80
33048 On ch=1 n=82 v=80
33095 On ch=1 n=73 v=0
33095 On ch=1 n=70 v=0
33095 On ch=1 n=78 v=0
33095 On ch=1 n=82 v=0
33120 On ch=1 n=80 v=80
33156 On ch=1 n=68 v=80
33156 On ch=1 n=73 v=80
33156 On ch=1 n=77 v=80
33192 On ch=1 n=80 v=0
33204 On ch=1 n=68 v=0
33204 On ch=1 n=73 v=0
33204 On ch=1 n=77 v=0
33228 On ch=1 n=80 v=80
33264 On ch=1 n=77 v=80
33264 On ch=1 n=73 v=80
33264 On ch=1 n=70 v=80
33300 On ch=1 n=80 v=0
33311 On ch=1 n=77 v=0
33311 On ch=1 n=73 v=0
33311 On ch=1 n=70 v=0
33336 On ch=1 n=80 v=80
33371 On ch=1 n=77 v=80
33371 On ch=1 n=73 v=80
33371 On ch=1 n=72 v=80
33419 On ch=1 n=77 v=0
33419 On ch=1 n=73 v=0
33419 On ch=1 n=72 v=0
33432 On ch=1 n=80 v=0
33444 On ch=1 n=80 v=80
33480 On ch=1 n=70 v=80
33480 On ch=1 n=73 v=80
33480 On ch=1 n=77 v=80
33516 On ch=1 n=80 v=0
33528 On ch=1 n=70 v=0
33528 On ch=1 n=73 v=0
33528 On ch=1 n=77 v=0
33551 On ch=1 n=68 v=80
33551 On ch=1 n=73 v=80
33551 On ch=1 n=77 v=80
33551 On ch=1 n=80 v=80
33599 On ch=1 n=68 v=0
33599 On ch=1 n=73 v=0
33599 On ch=1 n=77 v=0
33599 On ch=1 n=80 v=0
33624 On ch=1 n=67 v=80
33624 On ch=1 n=70 v=80
33624 On ch=1 n=73 v=80
33624 On ch=1 n=79 v=80
33671 On ch=1 n=67 v=0
33671 On ch=1 n=70 v=0
33671 On ch=1 n=73 v=0
33671 On ch=1 n=79 v=0
33696 On ch=1 n=78 v=80
33731 On ch=1 n=66 v=80
33731 On ch=1 n=72 v=80
33731 On ch=1 n=75 v=80
33768 On ch=1 n=78 v=0
33779 On ch=1 n=66 v=0
33779 On ch=1 n=72 v=0
33779 On ch=1 n=75 v=0
33804 On ch=1 n=78 v=80
33840 On ch=1 n=72 v=80
33840 On ch=1 n=75 v=80
33840 On ch=1 n=68 v=80
33876 On ch=1 n=78 v=0
33888 On ch=1 n=72 v=0
33888 On ch=1 n=75 v=0
33888 On ch=1 n=68 v=0
33911 On ch=1 n=78 v=80
33948 On ch=1 n=75 v=80
33948 On ch=1 n=72 v=80
33948 On ch=1 n=70 v=80
33995 On ch=1 n=75 v=0
33995 On ch=1 n=72 v=0
33995 On ch=1 n=70 v=0
34008 On ch=1 n=78 v=0
34020 On ch=1 n=78 v=80
34056 On ch=1 n=68 v=80
34056 On ch=1 n=72 v=80
34056 On ch=1 n=75 v=80
34092 On ch=1 n=78 v=0
34104 On ch=1 n=68 v=0
34104 On ch=1 n=72 v=0
34104 On ch=1 n=75 v=0
34128 On ch=1 n=66 v=80
34128 On ch=1 n=72 v=80
34128 On ch=1 n=75 v=80
34128 On ch=1 n=78 v=80
34175 On ch=1 n=66 v=0
34175 On ch=1 n=72 v=0
34175 On ch=1 n=75 v=0
34175 On ch=1 n=78 v=0
34200 On ch=1 n=75 v=80
34200 On ch=1 n=80 v=80
34200 On ch=1 n=84 v=80
34200 On ch=1 n=87 v=80
34248 On ch=1 n=75 v=0
34248 On ch=1 n=80 v=0
34248 On ch=1 n=84 v=0
34248 On ch=1 n=87 v=0
34271 On ch=1 n=75 v=80
34271 On ch=1 n=80 v=80
34271 On ch=1 n=87 v=80
34295 On ch=1 n=75 v=0
34295 On ch=1 n=80 v=0
34295 On ch=1 n=87 v=0
34308 On ch=1 n=73 v=80
34308 On ch=1 n=80 v=80
34308 On ch=1 n=85 v=80
34355 On ch=1 n=73 v=0
34355 On ch=1 n=80 v=0
34355 On ch=1 n=85 v=0
34380 On ch=1 n=73 v=80
34380 On ch=1 n=76 v=80
34380 On ch=1 n=84 v=80
34452 On ch=1 n=73 v=0
34452 On ch=1 n=76 v=0
34452 On ch=1 n=84 v=0
34488 On ch=1 n=73 v=80
34488 On ch=1 n=76 v=80
34488 On ch=1 n=82 v=80
34535 On ch=1 n=73 v=0
34535 On ch=1 n=76 v=0
34535 On ch=1 n=82 v=0
34560 On ch=1 n=73 v=80
34560 On ch=1 n=77 v=80
34560 On ch=1 n=80 v=80
34704 On ch=1 n=73 v=0
34704 On ch=1 n=77 v=0
34704 On ch=1 n=80 v=0
34776 On ch=1 n=73 v=80
34776 On ch=1 n=77 v=80
34776 On ch=1 n=80 v=80
34776 On ch=1 n=85 v=80
34824 On ch=1 n=73 v=0
34824 On ch=1 n=77 v=0
34824 On ch=1 n=80 v=0
34824 On ch=1 n=85 v=0
34848 On ch=1 n=85 v=80
34884 On ch=1 n=73 v=80
34884 On ch=1 n=78 v=80
34884 On ch=1 n=82 v=80
34920 On ch=1 n=85 v=0
34931 On ch=1 n=73 v=0
34931 On ch=1 n=78 v=0
34931 On ch=1 n=82 v=0
34956 On ch=1 n=85 v=80
34991 On ch=1 n=78 v=80
34991 On ch=1 n=82 v=80
34991 On ch=1 n=75 v=80
35028 On ch=1 n=85 v=0
35039 On ch=1 n=78 v=0
35039 On ch=1 n=82 v=0
35039 On ch=1 n=75 v=0
35064 On ch=1 n=85 v=80
35100 On ch=1 n=77 v=80
35100 On ch=1 n=78 v=80
35100 On ch=1 n=82 v=80
35148 On ch=1 n=77 v=0
35148 On ch=1 n=78 v=0
35148 On ch=1 n=82 v=0
35160 On ch=1 n=85 v=0
35171 On ch=1 n=85 v=80
35208 On ch=1 n=75 v=80
35208 On ch=1 n=78 v=80
35208 On ch=1 n=82 v=80
35244 On ch=1 n=85 v=0
35255 On ch=1 n=75 v=0
35255 On ch=1 n=78 v=0
35255 On ch=1 n=82 v=0
35280 On ch=1 n=73 v=80
35280 On ch=1 n=78 v=80
35280 On ch=1 n=82 v=80
35280 On ch=1 n=85 v=80
35328 On ch=1 n=73 v=0
35328 On ch=1 n=78 v=0
35328 On ch=1 n=82 v=0
35328 On ch=1 n=85 v=0
35351 On ch=1 n=73 v=80
35351 On ch=1 n=70 v=80
35351 On ch=1 n=78 v=80
35351 On ch=1 n=82 v=80
35399 On ch=1 n=73 v=0
35399 On ch=1 n=70 v=0
35399 On ch=1 n=78 v=0
35399 On ch=1 n=82 v=0
35424 On ch=1 n=80 v=80
35460 On ch=1 n=68 v=80
35460 On ch=1 n=73 v=80
35460 On ch=1 n=77 v=80
35496 On ch=1 n=80 v=0
35508 On ch=1 n=68 v=0
35508 On ch=1 n=73 v=0
35508 On ch=1 n=77 v=0
35531 On ch=1 n=80 v=80
35568 On ch=1 n=77 v=80
35568 On ch=1 n=73 v=80
35568 On ch=1 n=70 v=80
35604 On ch=1 n=80 v=0
35615 On ch=1 n=77 v=0
35615 On ch=1 n=73 v=0
35615 On ch=1 n=70 v=0
35640 On ch=1 n=80 v=80
35676 On ch=1 n=77 v=80
35676 On ch=1 n=73 v=80
35676 On ch=1 n=72 v=80
35724 On ch=1 n=77 v=0
35724 On ch=1 n=73 v=0
35724 On ch=1 n=72 v=0
35736 On ch=1 n=80 v=0
35748 On ch=1 n=80 v=80
35784 On ch=1 n=70 v=80
35784 On ch=1 n=73 v=80
35784 On ch=1 n=77 v=80
35820 On ch=1 n=80 v=0
35831 On ch=1 n=70 v=0
35831 On ch=1 n=73 v=0
35831 On ch=1 n=77 v=0
35856 On ch=1 n=68 v=80
35856 On ch=1 n=73 v=80
35856 On ch=1 n=77 v=80
35856 On ch=1 n=80 v=80
35904 On ch=1 n=68 v=0
35904 On ch=1 n=73 v=0
35904 On ch=1 n=77 v=0
35904 On ch=1 n=80 v=0
35928 On ch=1 n=65 v=80
35928 On ch=1 n=68 v=80
35928 On ch=1 n=73 v=80
35928 On ch=1 n=77 v=80
35975 On ch=1 n=65 v=0
35975 On ch=1 n=68 v=0
35975 On ch=1 n=73 v=0
35975 On ch=1 n=77 v=0
36036 On ch=1 n=73 v=80
36060 On ch=1 n=73 v=0
36071 On ch=1 n=64 v=80
36095 On ch=1 n=64 v=0
36108 On ch=1 n=69 v=80
36131 On ch=1 n=69 v=0
36144 On ch=1 n=76 v=80
36180 On ch=1 n=71 v=80
36180 On ch=1 n=68 v=80
36180 On ch=1 n=64 v=80
36216 On ch=1 n=76 v=0
36228 On ch=1 n=71 v=0
36228 On ch=1 n=68 v=0
36228 On ch=1 n=64 v=0
36251 On ch=1 n=73 v=80
36299 On ch=1 n=73 v=0
36324 On ch=1 n=64 v=80
36348 On ch=1 n=64 v=0
36360 On ch=1 n=69 v=80
36384 On ch=1 n=69 v=0
36396 On ch=1 n=76 v=80
36420 On ch=1 n=76 v=0
36431 On ch=1 n=77 v=80
36431 On ch=1 n=73 v=80
36431 On ch=1 n=68 v=80
36431 On ch=1 n=65 v=80
36528 On ch=1 n=77 v=0
36528 On ch=1 n=73 v=0
36528 On ch=1 n=68 v=0
36528 On ch=1 n=65 v=0
36576 On ch=1 n=66 v=80
36576 On ch=1 n=72 v=80
36576 On ch=1 n=77 v=80
36600 On ch=1 n=77 v=0
36611 On ch=1 n=75 v=80
36648 On ch=1 n=66 v=0
36648 On ch=1 n=72 v=0
36659 On ch=1 n=75 v=0
36684 On ch=1 n=66 v=80
36756 On ch=1 n=66 v=0
36756 On ch=1 n=77 v=80
36780 On ch=1 n=77 v=0
36791 On ch=1 n=66 v=80
36791 On ch=1 n=72 v=80
36791 On ch=1 n=75 v=80
36839 On ch=1 n=66 v=0
36839 On ch=1 n=72 v=0
36839 On ch=1 n=75 v=0
36864 On ch=1 n=65 v=80
36864 On ch=1 n=68 v=80
36864 On ch=1 n=73 v=80
37008 On ch=1 n=65 v=0
37008 On ch=1 n=68 v=0
37008 On ch=1 n=73 v=0
37080 On ch=1 n=73 v=80
37080 On ch=1 n=77 v=80
37080 On ch=1 n=80 v=80
37080 On ch=1 n=85 v=80
37128 On ch=1 n=73 v=0
37128 On ch=1 n=77 v=0
37128 On ch=1 n=80 v=0
37128 On ch=1 n=85 v=0
37151 On ch=1 n=85 v=80
37188 On ch=1 n=73 v=80
37188 On ch=1 n=78 v=80
37188 On ch=1 n=82 v=80
37224 On ch=1 n=85 v=0
37235 On ch=1 n=73 v=0
37235 On ch=1 n=78 v=0
37235 On ch=1 n=82 v=0
37260 On ch=1 n=85 v=80
37296 On ch=1 n=78 v=80
37296 On ch=1 n=82 v=80
37296 On ch=1 n=75 v=80
37332 On ch=1 n=85 v=0
37344 On ch=1 n=78 v=0
37344 On ch=1 n=82 v=0
37344 On ch=1 n=75 v=0
37368 On ch=1 n=85 v=80
37404 On ch=1 n=77 v=80
37404 On ch=1 n=78 v=80
37404 On ch=1 n=82 v=80
37451 On ch=1 n=77 v=0
37451 On ch=1 n=78 v=0
37451 On ch=1 n=82 v=0
37464 On ch=1 n=85 v=0
37476 On ch=1 n=85 v=80
37511 On ch=1 n=75 v=80
37511 On ch=1 n=78 v=80
37511 On ch=1 n=82 v=80
37548 On ch=1 n=85 v=0
37559 On ch=1 n=75 v=0
37559 On ch=1 n=78 v=0
37559 On ch=1 n=82 v=0
37584 On ch=1 n=73 v=80
37584 On ch=1 n=78 v=80
37584 On ch=1 n=82 v=80
37584 On ch=1 n=85 v=80
37631 On ch=1 n=73 v=0
37631 On ch=1 n=78 v=0
37631 On ch=1 n=82 v=0
37631 On ch=1 n=85 v=0
37656 On ch=1 n=73 v=80
37656 On ch=1 n=70 v=80
37656 On ch=1 n=78 v=80
37656 On ch=1 n=82 v=80
37704 On ch=1 n=73 v=0
37704 On ch=1 n=70 v=0
37704 On ch=1 n=78 v=0
37704 On ch=1 n=82 v=0
37728 On ch=1 n=80 v=80
37764 On ch=1 n=68 v=80
37764 On ch=1 n=73 v=80
37764 On ch=1 n=77 v=80
37800 On ch=1 n=80 v=0
37811 On ch=1 n=68 v=0
37811 On ch=1 n=73 v=0
37811 On ch=1 n=77 v=0
37836 On ch=1 n=80 v=80
37871 On ch=1 n=77 v=80
37871 On ch=1 n=73 v=80
37871 On ch=1 n=70 v=80
37908 On ch=1 n=80 v=0
37919 On ch=1 n=77 v=0
37919 On ch=1 n=73 v=0
37919 On ch=1 n=70 v=0
37944 On ch=1 n=80 v=80
37980 On ch=1 n=77 v=80
37980 On ch=1 n=73 v=80
37980 On ch=1 n=72 v=80
38028 On ch=1 n=77 v=0
38028 On ch=1 n=73 v=0
38028 On ch=1 n=72 v=0
38040 On ch=1 n=80 v=0
38051 On ch=1 n=80 v=80
38088 On ch=1 n=70 v=80
38088 On ch=1 n=73 v=80
38088 On ch=1 n=77 v=80
38124 On ch=1 n=80 v=0
38135 On ch=1 n=70 v=0
38135 On ch=1 n=73 v=0
38135 On ch=1 n=77 v=0
38160 On ch=1 n=68 v=80
38160 On ch=1 n=73 v=80
38160 On ch=1 n=77 v=80
38160 On ch=1 n=80 v=80
38208 On ch=1 n=68 v=0
38208 On ch=1 n=73 v=0
38208 On ch=1 n=77 v=0
38208 On ch=1 n=80 v=0
38231 On ch=1 n=67 v=80
38231 On ch=1 n=70 v=80
38231 On ch=1 n=73 v=80
38231 On ch=1 n=79 v=80
38279 On ch=1 n=67 v=0
38279 On ch=1 n=70 v=0
38279 On ch=1 n=73 v=0
38279 On ch=1 n=79 v=0
38304 On ch=1 n=78 v=80
38340 On ch=1 n=66 v=80
38340 On ch=1 n=72 v=80
38340 On ch=1 n=75 v=80
38376 On ch=1 n=78 v=0
38388 On ch=1 n=66 v=0
38388 On ch=1 n=72 v=0
38388 On ch=1 n=75 v=0
38411 On ch=1 n=78 v=80
38448 On ch=1 n=72 v=80
38448 On ch=1 n=75 v=80
38448 On ch=1 n=68 v=80
38484 On ch=1 n=78 v=0
38495 On ch=1 n=72 v=0
38495 On ch=1 n=75 v=0
38495 On ch=1 n=68 v=0
38520 On ch=1 n=78 v=80
38556 On ch=1 n=75 v=80
38556 On ch=1 n=72 v=80
38556 On ch=1 n=70 v=80
38604 On ch=1 n=75 v=0
38604 On ch=1 n=72 v=0
38604 On ch=1 n=70 v=0
38616 On ch=1 n=78 v=0
38628 On ch=1 n=78 v=80
38664 On ch=1 n=68 v=80
38664 On ch=1 n=72 v=80
38664 On ch=1 n=75 v=80
38700 On ch=1 n=78 v=0
38711 On ch=1 n=68 v=0
38711 On ch=1 n=72 v=0
38711 On ch=1 n=75 v=0
38736 On ch=1 n=66 v=80
38736 On ch=1 n=72 v=80
38736 On ch=1 n=75 v=80
38736 On ch=1 n=78 v=80
38784 On ch=1 n=66 v=0
38784 On ch=1 n=72 v=0
38784 On ch=1 n=75 v=0
38784 On ch=1 n=78 v=0
38808 On ch=1 n=75 v=80
38808 On ch=1 n=80 v=80
38808 On ch=1 n=84 v=80
38808 On ch=1 n=87 v=80
38855 On ch=1 n=75 v=0
38855 On ch=1 n=80 v=0
38855 On ch=1 n=84 v=0
38855 On ch=1 n=87 v=0
38880 On ch=1 n=75 v=80
38880 On ch=1 n=80 v=80
38880 On ch=1 n=87 v=80
38904 On ch=1 n=75 v=0
38904 On ch=1 n=80 v=0
38904 On ch=1 n=87 v=0
38916 On ch=1 n=73 v=80
38916 On ch=1 n=80 v=80
38916 On ch=1 n=85 v=80
38964 On ch=1 n=73 v=0
38964 On ch=1 n=80 v=0
38964 On ch=1 n=85 v=0
38988 On ch=1 n=73 v=80
38988 On ch=1 n=76 v=80
38988 On ch=1 n=84 v=80
39060 On ch=1 n=73 v=0
39060 On ch=1 n=76 v=0
39060 On ch=1 n=84 v=0
39096 On ch=1 n=73 v=80
39096 On ch=1 n=76 v=80
39096 On ch=1 n=82 v=80
39144 On ch=1 n=73 v=0
39144 On ch=1 n=76 v=0
39144 On ch=1 n=82 v=0
39168 On ch=1 n=73 v=80
39168 On ch=1 n=77 v=80
39168 On ch=1 n=80 v=80
39311 On ch=1 n=73 v=0
39311 On ch=1 n=77 v=0
39311 On ch=1 n=80 v=0
39384 On ch=1 n=73 v=80
39384 On ch=1 n=77 v=80
39384 On ch=1 n=80 v=80
39384 On ch=1 n=85 v=80
39431 On ch=1 n=73 v=0
39431 On ch=1 n=77 v=0
39431 On ch=1 n=80 v=0
39431 On ch=1 n=85 v=0
39456 On ch=1 n=85 v=80
39491 On ch=1 n=73 v=80
39491 On ch=1 n=78 v=80
39491 On ch=1 n=82 v=80
39528 On ch=1 n=85 v=0
39539 On ch=1 n=73 v=0
39539 On ch=1 n=78 v=0
39539 On ch=1 n=82 v=0
39564 On ch=1 n=85 v=80
39600 On ch=1 n=78 v=80
39600 On ch=1 n=82 v=80
39600 On ch=1 n=75 v=80
39636 On ch=1 n=85 v=0
39648 On ch=1 n=78 v=0
39648 On ch=1 n=82 v=0
39648 On ch=1 n=75 v=0
39671 On ch=1 n=85 v=80
39708 On ch=1 n=77 v=80
39708 On ch=1 n=78 v=80
39708 On ch=1 n=82 v=80
39755 On ch=1 n=77 v=0
39755 On ch=1 n=78 v=0
39755 On ch=1 n=82 v=0
39768 On ch=1 n=85 v=0
39780 On ch=1 n=85 v=80
39816 On ch=1 n=75 v=80
39816 On ch=1 n=78 v=80
39816 On ch=1 n=82 v=80
39852 On ch=1 n=85 v=0
39864 On ch=1 n=75 v=0
39864 On ch=1 n=78 v=0
39864 On ch=1 n=82 v=0
39888 On ch=1 n=73 v=80
39888 On ch=1 n=78 v=80
39888 On ch=1 n=82 v=80
39888 On ch=1 n=85 v=80
39935 On ch=1 n=73 v=0
39935 On ch=1 n=78 v=0
39935 On ch=1 n=82 v=0
39935 On ch=1 n=85 v=0
39960 On ch=1 n=73 v=80
39960 On ch=1 n=70 v=80
39960 On ch=1 n=78 v=80
39960 On ch=1 n=82 v=80
40008 On ch=1 n=73 v=0
40008 On ch=1 n=70 v=0
40008 On ch=1 n=78 v=0
40008 On ch=1 n=82 v=0
40031 On ch=1 n=80 v=80
40068 On ch=1 n=68 v=80
40068 On ch=1 n=73 v=80
40068 On ch=1 n=77 v=80
40104 On ch=1 n=80 v=0
40115 On ch=1 n=68 v=0
40115 On ch=1 n=73 v=0
40115 On ch=1 n=77 v=0
40140 On ch=1 n=80 v=80
40176 On ch=1 n=77 v=80
40176 On ch=1 n=73 v=80
40176 On ch=1 n=70 v=80
40212 On ch=1 n=80 v=0
40224 On ch=1 n=77 v=0
40224 On ch=1 n=73 v=0
40224 On ch=1 n=70 v=0
40248 On ch=1 n=80 v=80
40284 On ch=1 n=77 v=80
40284 On ch=1 n=73 v=80
40284 On ch=1 n=72 v=80
40331 On ch=1 n=77 v=0
40331 On ch=1 n=73 v=0
40331 On ch=1 n=72 v=0
40344 On ch=1 n=80 v=0
40356 On ch=1 n=80 v=80
40391 On ch=1 n=70 v=80
40391 On ch=1 n=73 v=80
40391 On ch=1 n=77 v=80
40428 On ch=1 n=80 v=0
40439 On ch=1 n=70 v=0
40439 On ch=1 n=73 v=0
40439 On ch=1 n=77 v=0
40464 On ch=1 n=68 v=80
40464 On ch=1 n=73 v=80
40464 On ch=1 n=77 v=80
40464 On ch=1 n=80 v=80
40511 On ch=1 n=68 v=0
40511 On ch=1 n=73 v=0
40511 On ch=1 n=77 v=0
40511 On ch=1 n=80 v=0
40536 On ch=1 n=65 v=80
40536 On ch=1 n=68 v=80
40536 On ch=1 n=73 v=80
40536 On ch=1 n=77 v=80
40584 On ch=1 n=65 v=0
40584 On ch=1 n=68 v=0
40584 On ch=1 n=73 v=0
40584 On ch=1 n=77 v=0
40644 On ch=1 n=73 v=80
40668 On ch=1 n=73 v=0
40680 On ch=1 n=64 v=80
40704 On ch=1 n=64 v=0
40716 On ch=1 n=69 v=80
40740 On ch=1 n=69 v=0
40751 On ch=1 n=76 v=80
40788 On ch=1 n=71 v=80
40788 On ch=1 n=68 v=80
40788 On ch=1 n=64 v=80
40824 On ch=1 n=76 v=0
40835 On ch=1 n=71 v=0
40835 On ch=1 n=68 v=0
40835 On ch=1 n=64 v=0
40860 On ch=1 n=73 v=80
40908 On ch=1 n=73 v=0
40931 On ch=1 n=64 v=80
40955 On ch=1 n=64 v=0
40968 On ch=1 n=69 v=80
40991 On ch=1 n=69 v=0
41004 On ch=1 n=76 v=80
41028 On ch=1 n=76 v=0
41040 On ch=1 n=77 v=80
41040 On ch=1 n=73 v=80
41040 On ch=1 n=68 v=80
41040 On ch=1 n=65 v=80
41136 On ch=1 n=77 v=0
41136 On ch=1 n=73 v=0
41136 On ch=1 n=68 v=0
41136 On ch=1 n=65 v=0
41184 On ch=1 n=66 v=80
41184 On ch=1 n=72 v=80
41184 On ch=1 n=77 v=80
41208 On ch=1 n=77 v=0
41220 On ch=1 n=75 v=80
41256 On ch=1 n=66 v=0
41256 On ch=1 n=72 v=0
41268 On ch=1 n=75 v=0
41291 On ch=1 n=66 v=80
41364 On ch=1 n=66 v=0
41364 On ch=1 n=77 v=80
41388 On ch=1 n=77 v=0
41400 On ch=1 n=66 v=80
41400 On ch=1 n=72 v=80
41400 On ch=1 n=75 v=80
41448 On ch=1 n=66 v=0
41448 On ch=1 n=72 v=0
41448 On ch=1 n=75 v=0
41471 On ch=1 n=65 v=80
41471 On ch=1 n=68 v=80
41471 On ch=1 n=73 v=80
41568 On ch=1 n=65 v=0
41568 On ch=1 n=68 v=0
41568 On ch=1 n=73 v=0
41616 On ch=1 n=73 v=80
41616 On ch=1 n=77 v=80
41616 On ch=1 n=80 v=80
41616 On ch=1 n=85 v=80
41664 On ch=1 n=73 v=0
41664 On ch=1 n=77 v=0
41664 On ch=1 n=80 v=0
41664 On ch=1 n=85 v=0
41664 On ch=1 n=60 v=0
41784 On ch=1 n=60 v=0
41784 Meta TrkEnd
TrkEnd
MTrk
215 On ch=2 n=51 v=80
215 On ch=2 n=39 v=80
263 On ch=2 n=51 v=0
263 On ch=2 n=39 v=0
288 On ch=2 n=56 v=80
288 On ch=2 n=44 v=80
336 On ch=2 n=56 v=0
336 On ch=2 n=44 v=0
360 On ch=2 n=60 v=80
360 On ch=2 n=56 v=80
360 On ch=2 n=51 v=80
408 On ch=2 n=60 v=0
408 On ch=2 n=56 v=0
408 On ch=2 n=51 v=0
431 On ch=2 n=51 v=80
431 On ch=2 n=39 v=80
479 On ch=2 n=51 v=0
479 On ch=2 n=39 v=0
504 On ch=2 n=60 v=80
504 On ch=2 n=56 v=80
504 On ch=2 n=51 v=80
552 On ch=2 n=60 v=0
552 On ch=2 n=56 v=0
552 On ch=2 n=51 v=0
576 On ch=2 n=53 v=80
576 On ch=2 n=41 v=80
624 On ch=2 n=53 v=0
624 On ch=2 n=41 v=0
647 On ch=2 n=52 v=80
647 On ch=2 n=40 v=80
696 On ch=2 n=52 v=0
696 On ch=2 n=40 v=0
720 On ch=2 n=51 v=80
720 On ch=2 n=39 v=80
768 On ch=2 n=51 v=0
768 On ch=2 n=39 v=0
792 On ch=2 n=51 v=80
792 On ch=2 n=55 v=80
792 On ch=2 n=61 v=80
840 On ch=2 n=51 v=0
840 On ch=2 n=55 v=0
840 On ch=2 n=61 v=0
863 On ch=2 n=56 v=80
863 On ch=2 n=44 v=80
912 On ch=2 n=56 v=0
912 On ch=2 n=44 v=0
936 On ch=2 n=60 v=80
936 On ch=2 n=56 v=80
936 On ch=2 n=51 v=80
983 On ch=2 n=60 v=0
983 On ch=2 n=56 v=0
983 On ch=2 n=51 v=0
1008 On ch=2 n=51 v=80
1008 On ch=2 n=39 v=80
1056 On ch=2 n=51 v=0
1056 On ch=2 n=39 v=0
1080 On ch=2 n=60 v=80
1080 On ch=2 n=56 v=80
1080 On ch=2 n=51 v=80
1128 On ch=2 n=60 v=0
1128 On ch=2 n=56 v=0
1128 On ch=2 n=51 v=0
1152 On ch=2 n=53 v=80
1152 On ch=2 n=41 v=80
1200 On ch=2 n=53 v=0
1200 On ch=2 n=41 v=0
1224 On ch=2 n=52 v=80
1224 On ch=2 n=40 v=80
1272 On ch=2 n=52 v=0
1272 On ch=2 n=40 v=0
1295 On ch=2 n=51 v=80
1295 On ch=2 n=39 v=80
1344 On ch=2 n=51 v=0
1344 On ch=2 n=39 v=0
1368 On ch=2 n=58 v=80
1368 On ch=2 n=46 v=80
1392 On ch=2 n=58 v=0
1392 On ch=2 n=46 v=0
1404 On ch=2 n=60 v=80
1404 On ch=2 n=48 v=80
1427 On ch=2 n=60 v=0
1427 On ch=2 n=48 v=0
1440 On ch=2 n=53 v=80
1440 On ch=2 n=41 v=80
1488 On ch=2 n=53 v=0
1488 On ch=2 n=41 v=0
1655 On ch=2 n=58 v=80
1655 On ch=2 n=46 v=80
1679 On ch=2 n=58 v=0
1679 On ch=2 n=46 v=0
1692 On ch=2 n=60 v=80
1692 On ch=2 n=48 v=80
1715 On ch=2 n=60 v=0
1715 On ch=2 n=48 v=0
1727 On ch=2 n=41 v=80
1727 On ch=2 n=53 v=80
1775 On ch=2 n=41 v=0
1775 On ch=2 n=53 v=0
1800 On ch=2 n=61 v=80
1848 On ch=2 n=61 v=0
1872 On ch=2 n=60 v=80
1920 On ch=2 n=60 v=0
2016 On ch=2 n=41 v=80
2016 On ch=2 n=29 v=80
2040 On ch=2 n=41 v=0
2040 On ch=2 n=29 v=0
2051 On ch=2 n=43 v=80
2051 On ch=2 n=31 v=80
2075 On ch=2 n=43 v=0
2075 On ch=2 n=31 v=0
2088 On ch=2 n=44 v=80
2088 On ch=2 n=32 v=80
2111 On ch=2 n=44 v=0
2111 On ch=2 n=32 v=0
2124 On ch=2 n=48 v=80
2124 On ch=2 n=36 v=80
2148 On ch=2 n=48 v=0
2148 On ch=2 n=36 v=0
2160 On ch=2 n=53 v=80
2160 On ch=2 n=41 v=80
2184 On ch=2 n=53 v=0
2184 On ch=2 n=41 v=0
2196 On ch=2 n=55 v=80
2196 On ch=2 n=43 v=80
2220 On ch=2 n=55 v=0
2220 On ch=2 n=43 v=0
2231 On ch=2 n=56 v=80
2231 On ch=2 n=44 v=80
2255 On ch=2 n=56 v=0
2255 On ch=2 n=44 v=0
2268 On ch=2 n=60 v=80
2268 On ch=2 n=48 v=80
2291 On ch=2 n=60 v=0
2291 On ch=2 n=48 v=0
2304 On ch=2 n=53 v=80
2328 On ch=2 n=53 v=0
2340 On ch=2 n=55 v=80
2364 On ch=2 n=55 v=0
2376 On ch=2 n=56 v=80
2400 On ch=2 n=56 v=0
2411 On ch=2 n=60 v=80
2435 On ch=2 n=60 v=0
3744 On ch=2 n=50 v=80
3744 On ch=2 n=53 v=80
3744 On ch=2 n=56 v=80
3744 On ch=2 n=59 v=80
3791 On ch=2 n=50 v=0
3791 On ch=2 n=53 v=0
3791 On ch=2 n=56 v=0
3791 On ch=2 n=59 v=0
3815 On ch=2 n=50 v=80
3815 On ch=2 n=53 v=80
3815 On ch=2 n=56 v=80
3815 On ch=2 n=59 v=80
3863 On ch=2 n=50 v=0
3863 On ch=2 n=53 v=0
3863 On ch=2 n=56 v=0
3863 On ch=2 n=59 v=0
3888 On ch=2 n=50 v=80
3888 On ch=2 n=53 v=80
3888 On ch=2 n=56 v=80
3888 On ch=2 n=59 v=80
3935 On ch=2 n=50 v=0
3935 On ch=2 n=53 v=0
3935 On ch=2 n=56 v=0
3935 On ch=2 n=59 v=0
3960 On ch=2 n=50 v=80
3960 On ch=2 n=53 v=80
3960 On ch=2 n=56 v=80
3960 On ch=2 n=59 v=80
4008 On ch=2 n=50 v=0
4008 On ch=2 n=53 v=0
4008 On ch=2 n=56 v=0
4008 On ch=2 n=59 v=0
4032 On ch=2 n=51 v=80
4032 On ch=2 n=56 v=80
4032 On ch=2 n=60 v=80
4080 On ch=2 n=51 v=0
4080 On ch=2 n=56 v=0
4080 On ch=2 n=60 v=0
4103 On ch=2 n=60 v=80
4103 On ch=2 n=56 v=80
4103 On ch=2 n=51 v=80
4151 On ch=2 n=60 v=0
4151 On ch=2 n=56 v=0
4151 On ch=2 n=51 v=0
4176 On ch=2 n=54 v=80
4176 On ch=2 n=56 v=80
4176 On ch=2 n=60 v=80
4223 On ch=2 n=54 v=0
4223 On ch=2 n=56 v=0
4223 On ch=2 n=60 v=0
4248 On ch=2 n=60 v=80
4248 On ch=2 n=56 v=80
4248 On ch=2 n=54 v=80
4296 On ch=2 n=60 v=0
4296 On ch=2 n=56 v=0
4296 On ch=2 n=54 v=0
4320 On ch=2 n=56 v=80
4320 On ch=2 n=53 v=80
4320 On ch=2 n=61 v=80
4368 On ch=2 n=56 v=0
4368 On ch=2 n=53 v=0
4368 On ch=2 n=61 v=0
4392 On ch=2 n=61 v=80
4392 On ch=2 n=56 v=80
4392 On ch=2 n=52 v=80
4440 On ch=2 n=61 v=0
4440 On ch=2 n=56 v=0
4440 On ch=2 n=52 v=0
4463 On ch=2 n=60 v=80
4463 On ch=2 n=56 v=80
4463 On ch=2 n=51 v=80
4511 On ch=2 n=60 v=0
4511 On ch=2 n=56 v=0
4511 On ch=2 n=51 v=0
4536 On ch=2 n=51 v=80
4536 On ch=2 n=56 v=80
4536 On ch=2 n=60 v=80
4583 On ch=2 n=51 v=0
4583 On ch=2 n=56 v=0
4583 On ch=2 n=60 v=0
4608 On ch=2 n=53 v=80
4608 On ch=2 n=41 v=80
4656 On ch=2 n=53 v=0
4656 On ch=2 n=41 v=0
4680 On ch=2 n=39 v=80
4680 On ch=2 n=51 v=80
4728 On ch=2 n=39 v=0
4728 On ch=2 n=51 v=0
4752 On ch=2 n=56 v=80
4752 On ch=2 n=44 v=80
4800 On ch=2 n=56 v=0
4800 On ch=2 n=44 v=0
4823 On ch=2 n=39 v=80
4823 On ch=2 n=51 v=80
4871 On ch=2 n=39 v=0
4871 On ch=2 n=51 v=0
4896 On ch=2 n=56 v=80
4896 On ch=2 n=44 v=80
4943 On ch=2 n=56 v=0
4943 On ch=2 n=44 v=0
4968 On ch=2 n=60 v=80
4968 On ch=2 n=56 v=80
4968 On ch=2 n=51 v=80
5016 On ch=2 n=60 v=0
5016 On ch=2 n=56 v=0
5016 On ch=2 n=51 v=0
5040 On ch=2 n=51 v=80
5040 On ch=2 n=39 v=80
5088 On ch=2 n=51 v=0
5088 On ch=2 n=39 v=0
5112 On ch=2 n=60 v=80
5112 On ch=2 n=56 v=80
5112 On ch=2 n=51 v=80
5160 On ch=2 n=60 v=0
5160 On ch=2 n=56 v=0
5160 On ch=2 n=51 v=0
5183 On ch=2 n=53 v=80
5183 On ch=2 n=41 v=80
5231 On ch=2 n=53 v=0
5231 On ch=2 n=41 v=0
5256 On ch=2 n=52 v=80
5256 On ch=2 n=40 v=80
5303 On ch=2 n=52 v=0
5303 On ch=2 n=40 v=0
5328 On ch=2 n=51 v=80
5328 On ch=2 n=39 v=80
5376 On ch=2 n=51 v=0
5376 On ch=2 n=39 v=0
5400 On ch=2 n=51 v=80
5400 On ch=2 n=55 v=80
5400 On ch=2 n=61 v=80
5448 On ch=2 n=51 v=0
5448 On ch=2 n=55 v=0
5448 On ch=2 n=61 v=0
5472 On ch=2 n=56 v=80
5472 On ch=2 n=44 v=80
5520 On ch=2 n=56 v=0
5520 On ch=2 n=44 v=0
5543 On ch=2 n=60 v=80
5543 On ch=2 n=56 v=80
5543 On ch=2 n=51 v=80
5591 On ch=2 n=60 v=0
5591 On ch=2 n=56 v=0
5591 On ch=2 n=51 v=0
5616 On ch=2 n=51 v=80
5616 On ch=2 n=39 v=80
5663 On ch=2 n=51 v=0
5663 On ch=2 n=39 v=0
5688 On ch=2 n=60 v=80
5688 On ch=2 n=56 v=80
5688 On ch=2 n=51 v=80
5736 On ch=2 n=60 v=0
5736 On ch=2 n=56 v=0
5736 On ch=2 n=51 v=0
5760 On ch=2 n=53 v=80
5760 On ch=2 n=41 v=80
5808 On ch=2 n=53 v=0
5808 On ch=2 n=41 v=0
5832 On ch=2 n=52 v=80
5832 On ch=2 n=40 v=80
5880 On ch=2 n=52 v=0
5880 On ch=2 n=40 v=0
5903 On ch=2 n=51 v=80
5903 On ch=2 n=39 v=80
5951 On ch=2 n=51 v=0
5951 On ch=2 n=39 v=0
5976 On ch=2 n=58 v=80
5976 On ch=2 n=46 v=80
6000 On ch=2 n=58 v=0
6000 On ch=2 n=46 v=0
6012 On ch=2 n=60 v=80
6012 On ch=2 n=48 v=80
6036 On ch=2 n=60 v=0
6036 On ch=2 n=48 v=0
6048 On ch=2 n=53 v=80
6048 On ch=2 n=41 v=80
6096 On ch=2 n=53 v=0
6096 On ch=2 n=41 v=0
6263 On ch=2 n=58 v=80
6263 On ch=2 n=46 v=80
6288 On ch=2 n=58 v=0
6288 On ch=2 n=46 v=0
6300 On ch=2 n=60 v=80
6300 On ch=2 n=48 v=80
6324 On ch=2 n=60 v=0
6324 On ch=2 n=48 v=0
6336 On ch=2 n=41 v=80
6336 On ch=2 n=53 v=80
6383 On ch=2 n=41 v=0
6383 On ch=2 n=53 v=0
6408 On ch=2 n=61 v=80
6456 On ch=2 n=61 v=0
6480 On ch=2 n=60 v=80
6528 On ch=2 n=60 v=0
6623 On ch=2 n=41 v=80
6623 On ch=2 n=29 v=80
6648 On ch=2 n=41 v=0
6648 On ch=2 n=29 v=0
6660 On ch=2 n=43 v=80
6660 On ch=2 n=31 v=80
6684 On ch=2 n=43 v=0
6684 On ch=2 n=31 v=0
6696 On ch=2 n=44 v=80
6696 On ch=2 n=32 v=80
6720 On ch=2 n=44 v=0
6720 On ch=2 n=32 v=0
6732 On ch=2 n=48 v=80
6732 On ch=2 n=36 v=80
6756 On ch=2 n=48 v=0
6756 On ch=2 n=36 v=0
6768 On ch=2 n=53 v=80
6768 On ch=2 n=41 v=80
6792 On ch=2 n=53 v=0
6792 On ch=2 n=41 v=0
6803 On ch=2 n=55 v=80
6803 On ch=2 n=43 v=80
6828 On ch=2 n=55 v=0
6828 On ch=2 n=43 v=0
6840 On ch=2 n=56 v=80
6840 On ch=2 n=44 v=80
6864 On ch=2 n=56 v=0
6864 On ch=2 n=44 v=0
6876 On ch=2 n=60 v=80
6876 On ch=2 n=48 v=80
6900 On ch=2 n=60 v=0
6900 On ch=2 n=48 v=0
6911 On ch=2 n=53 v=80
6936 On ch=2 n=53 v=0
6948 On ch=2 n=55 v=80
6972 On ch=2 n=55 v=0
6983 On ch=2 n=56 v=80
7008 On ch=2 n=56 v=0
7020 On ch=2 n=60 v=80
7044 On ch=2 n=60 v=0
8352 On ch=2 n=50 v=80
8352 On ch=2 n=53 v=80
8352 On ch=2 n=56 v=80
8352 On ch=2 n=59 v=80
8400 On ch=2 n=50 v=0
8400 On ch=2 n=53 v=0
8400 On ch=2 n=56 v=0
8400 On ch=2 n=59 v=0
8424 On ch=2 n=50 v=80
8424 On ch=2 n=53 v=80
8424 On ch=2 n=56 v=80
8424 On ch=2 n=59 v=80
8472 On ch=2 n=50 v=0
8472 On ch=2 n=53 v=0
8472 On ch=2 n=56 v=0
8472 On ch=2 n=59 v=0
8496 On ch=2 n=50 v=80
8496 On ch=2 n=53 v=80
8496 On ch=2 n=56 v=80
8496 On ch=2 n=59 v=80
8544 On ch=2 n=50 v=0
8544 On ch=2 n=53 v=0
8544 On ch=2 n=56 v=0
8544 On ch=2 n=59 v=0
8567 On ch=2 n=50 v=80
8567 On ch=2 n=53 v=80
8567 On ch=2 n=56 v=80
8567 On ch=2 n=59 v=80
8616 On ch=2 n=50 v=0
8616 On ch=2 n=53 v=0
8616 On ch=2 n=56 v=0
8616 On ch=2 n=59 v=0
8640 On ch=2 n=51 v=80
8640 On ch=2 n=56 v=80
8640 On ch=2 n=60 v=80
8688 On ch=2 n=51 v=0
8688 On ch=2 n=56 v=0
8688 On ch=2 n=60 v=0
8712 On ch=2 n=60 v=80
8712 On ch=2 n=56 v=80
8712 On ch=2 n=51 v=80
8760 On ch=2 n=60 v=0
8760 On ch=2 n=56 v=0
8760 On ch=2 n=51 v=0
8784 On ch=2 n=54 v=80
8784 On ch=2 n=56 v=80
8784 On ch=2 n=60 v=80
8832 On ch=2 n=54 v=0
8832 On ch=2 n=56 v=0
8832 On ch=2 n=60 v=0
8856 On ch=2 n=60 v=80
8856 On ch=2 n=56 v=80
8856 On ch=2 n=54 v=80
8904 On ch=2 n=60 v=0
8904 On ch=2 n=56 v=0
8904 On ch=2 n=54 v=0
8927 On ch=2 n=56 v=80
8927 On ch=2 n=53 v=80
8927 On ch=2 n=61 v=80
8976 On ch=2 n=56 v=0
8976 On ch=2 n=53 v=0
8976 On ch=2 n=61 v=0
9000 On ch=2 n=61 v=80
9000 On ch=2 n=56 v=80
9000 On ch=2 n=52 v=80
9048 On ch=2 n=61 v=0
9048 On ch=2 n=56 v=0
9048 On ch=2 n=52 v=0
9072 On ch=2 n=60 v=80
9072 On ch=2 n=56 v=80
9072 On ch=2 n=51 v=80
9120 On ch=2 n=60 v=0
9120 On ch=2 n=56 v=0
9120 On ch=2 n=51 v=0
9144 On ch=2 n=51 v=80
9144 On ch=2 n=56 v=80
9144 On ch=2 n=60 v=80
9192 On ch=2 n=51 v=0
9192 On ch=2 n=56 v=0
9192 On ch=2 n=60 v=0
9216 On ch=2 n=53 v=80
9216 On ch=2 n=41 v=80
9264 On ch=2 n=53 v=0
9264 On ch=2 n=41 v=0
9287 On ch=2 n=39 v=80
9287 On ch=2 n=51 v=80
9336 On ch=2 n=39 v=0
9336 On ch=2 n=51 v=0
9360 On ch=2 n=56 v=80
9360 On ch=2 n=44 v=80
9408 On ch=2 n=56 v=0
9408 On ch=2 n=44 v=0
9432 On ch=2 n=57 v=80
9432 On ch=2 n=45 v=80
9480 On ch=2 n=57 v=0
9480 On ch=2 n=45 v=0
9504 On ch=2 n=58 v=80
9504 On ch=2 n=46 v=80
9552 On ch=2 n=58 v=0
9552 On ch=2 n=46 v=0
9576 On ch=2 n=61 v=80
9576 On ch=2 n=55 v=80
9576 On ch=2 n=51 v=80
9624 On ch=2 n=61 v=0
9624 On ch=2 n=55 v=0
9624 On ch=2 n=51 v=0
9647 On ch=2 n=51 v=80
9647 On ch=2 n=39 v=80
9696 On ch=2 n=51 v=0
9696 On ch=2 n=39 v=0
9720 On ch=2 n=51 v=80
9720 On ch=2 n=55 v=80
9720 On ch=2 n=61 v=80
9768 On ch=2 n=51 v=0
9768 On ch=2 n=55 v=0
9768 On ch=2 n=61 v=0
9792 On ch=2 n=55 v=80
9792 On ch=2 n=43 v=80
9840 On ch=2 n=55 v=0
9840 On ch=2 n=43 v=0
9864 On ch=2 n=51 v=80
9864 On ch=2 n=55 v=80
9864 On ch=2 n=61 v=80
9912 On ch=2 n=51 v=0
9912 On ch=2 n=55 v=0
9912 On ch=2 n=61 v=0
9936 On ch=2 n=51 v=80
9936 On ch=2 n=39 v=80
9984 On ch=2 n=51 v=0
9984 On ch=2 n=39 v=0
10007 On ch=2 n=51 v=80
10007 On ch=2 n=55 v=80
10007 On ch=2 n=61 v=80
10056 On ch=2 n=51 v=0
10056 On ch=2 n=55 v=0
10056 On ch=2 n=61 v=0
10080 On ch=2 n=56 v=80
10080 On ch=2 n=44 v=80
10128 On ch=2 n=56 v=0
10128 On ch=2 n=44 v=0
10152 On ch=2 n=51 v=80
10152 On ch=2 n=56 v=80
10152 On ch=2 n=60 v=80
10200 On ch=2 n=51 v=0
10200 On ch=2 n=56 v=0
10200 On ch=2 n=60 v=0
10224 On ch=2 n=51 v=80
10224 On ch=2 n=39 v=80
10272 On ch=2 n=51 v=0
10272 On ch=2 n=39 v=0
10296 On ch=2 n=51 v=80
10296 On ch=2 n=56 v=80
10296 On ch=2 n=60 v=80
10344 On ch=2 n=51 v=0
10344 On ch=2 n=56 v=0
10344 On ch=2 n=60 v=0
10367 On ch=2 n=56 v=80
10367 On ch=2 n=44 v=80
10392 On ch=2 n=56 v=0
10392 On ch=2 n=44 v=0
10404 On ch=2 n=43 v=80
10404 On ch=2 n=55 v=80
10428 On ch=2 n=43 v=0
10428 On ch=2 n=55 v=0
10440 On ch=2 n=56 v=80
10440 On ch=2 n=44 v=80
10464 On ch=2 n=56 v=0
10464 On ch=2 n=44 v=0
10476 On ch=2 n=48 v=80
10476 On ch=2 n=60 v=80
10500 On ch=2 n=48 v=0
10500 On ch=2 n=60 v=0
10512 On ch=2 n=63 v=80
10512 On ch=2 n=51 v=80
10560 On ch=2 n=63 v=0
10560 On ch=2 n=51 v=0
10584 On ch=2 n=45 v=80
10584 On ch=2 n=57 v=80
10632 On ch=2 n=45 v=0
10632 On ch=2 n=57 v=0
10656 On ch=2 n=58 v=80
10656 On ch=2 n=46 v=80
10704 On ch=2 n=58 v=0
10704 On ch=2 n=46 v=0
10727 On ch=2 n=51 v=80
10727 On ch=2 n=55 v=80
10727 On ch=2 n=61 v=80
10776 On ch=2 n=51 v=0
10776 On ch=2 n=55 v=0
10776 On ch=2 n=61 v=0
10800 On ch=2 n=51 v=80
10800 On ch=2 n=39 v=80
10824 On ch=2 n=51 v=0
10824 On ch=2 n=39 v=0
10836 On ch=2 n=40 v=80
10836 On ch=2 n=52 v=80
10860 On ch=2 n=40 v=0
10860 On ch=2 n=52 v=0
10872 On ch=2 n=53 v=80
10872 On ch=2 n=41 v=80
10896 On ch=2 n=53 v=0
10896 On ch=2 n=41 v=0
10907 On ch=2 n=42 v=80
10907 On ch=2 n=54 v=80
10932 On ch=2 n=42 v=0
10932 On ch=2 n=54 v=0
10944 On ch=2 n=58 v=80
10944 On ch=2 n=46 v=80
10992 On ch=2 n=58 v=0
10992 On ch=2 n=46 v=0
11016 On ch=2 n=51 v=80
11016 On ch=2 n=55 v=80
11016 On ch=2 n=61 v=80
11064 On ch=2 n=51 v=0
11064 On ch=2 n=55 v=0
11064 On ch=2 n=61 v=0
11087 On ch=2 n=39 v=80
11112 On ch=2 n=39 v=0
11124 On ch=2 n=40 v=80
11124 On ch=2 n=52 v=80
11148 On ch=2 n=40 v=0
11148 On ch=2 n=52 v=0
11160 On ch=2 n=53 v=80
11160 On ch=2 n=41 v=80
11184 On ch=2 n=53 v=0
11184 On ch=2 n=41 v=0
11196 On ch=2 n=43 v=80
11196 On ch=2 n=55 v=80
11220 On ch=2 n=43 v=0
11220 On ch=2 n=55 v=0
11232 On ch=2 n=56 v=80
11232 On ch=2 n=44 v=80
11280 On ch=2 n=56 v=0
11280 On ch=2 n=44 v=0
11304 On ch=2 n=56 v=80
11304 On ch=2 n=60 v=80
11304 On ch=2 n=51 v=80
11352 On ch=2 n=56 v=0
11352 On ch=2 n=60 v=0
11352 On ch=2 n=51 v=0
11376 On ch=2 n=51 v=80
11376 On ch=2 n=39 v=80
11424 On ch=2 n=51 v=0
11424 On ch=2 n=39 v=0
11447 On ch=2 n=51 v=80
11447 On ch=2 n=56 v=80
11447 On ch=2 n=60 v=80
11496 On ch=2 n=51 v=0
11496 On ch=2 n=56 v=0
11496 On ch=2 n=60 v=0
11520 On ch=2 n=56 v=80
11520 On ch=2 n=44 v=80
11544 On ch=2 n=56 v=0
11544 On ch=2 n=44 v=0
11556 On ch=2 n=39 v=80
11556 On ch=2 n=51 v=80
11580 On ch=2 n=39 v=0
11580 On ch=2 n=51 v=0
11592 On ch=2 n=52 v=80
11592 On ch=2 n=40 v=80
11616 On ch=2 n=52 v=0
11616 On ch=2 n=40 v=0
11627 On ch=2 n=41 v=80
11627 On ch=2 n=53 v=80
11652 On ch=2 n=41 v=0
11652 On ch=2 n=53 v=0
11664 On ch=2 n=54 v=80
11664 On ch=2 n=42 v=80
11688 On ch=2 n=54 v=0
11688 On ch=2 n=42 v=0
11700 On ch=2 n=43 v=80
11700 On ch=2 n=55 v=80
11724 On ch=2 n=43 v=0
11724 On ch=2 n=55 v=0
11736 On ch=2 n=56 v=80
11736 On ch=2 n=44 v=80
11760 On ch=2 n=56 v=0
11760 On ch=2 n=44 v=0
11772 On ch=2 n=57 v=80
11772 On ch=2 n=45 v=80
11796 On ch=2 n=57 v=0
11796 On ch=2 n=45 v=0
11807 On ch=2 n=58 v=80
11807 On ch=2 n=46 v=80
11856 On ch=2 n=58 v=0
11856 On ch=2 n=46 v=0
11880 On ch=2 n=61 v=80
11880 On ch=2 n=55 v=80
11880 On ch=2 n=51 v=80
11928 On ch=2 n=61 v=0
11928 On ch=2 n=55 v=0
11928 On ch=2 n=51 v=0
11952 On ch=2 n=51 v=80
11952 On ch=2 n=39 v=80
12000 On ch=2 n=51 v=0
12000 On ch=2 n=39 v=0
12024 On ch=2 n=51 v=80
12024 On ch=2 n=55 v=80
12024 On ch=2 n=61 v=80
12072 On ch=2 n=51 v=0
12072 On ch=2 n=55 v=0
12072 On ch=2 n=61 v=0
12096 On ch=2 n=55 v=80
12096 On ch=2 n=43 v=80
12144 On ch=2 n=55 v=0
12144 On ch=2 n=43 v=0
12167 On ch=2 n=51 v=80
12167 On ch=2 n=55 v=80
12167 On ch=2 n=61 v=80
12216 On ch=2 n=51 v=0
12216 On ch=2 n=55 v=0
12216 On ch=2 n=61 v=0
12240 On ch=2 n=51 v=80
12240 On ch=2 n=39 v=80
12288 On ch=2 n=51 v=0
12288 On ch=2 n=39 v=0
12312 On ch=2 n=51 v=80
12312 On ch=2 n=55 v=80
12312 On ch=2 n=61 v=80
12360 On ch=2 n=51 v=0
12360 On ch=2 n=55 v=0
12360 On ch=2 n=61 v=0
12384 On ch=2 n=56 v=80
12384 On ch=2 n=44 v=80
12432 On ch=2 n=56 v=0
12432 On ch=2 n=44 v=0
12456 On ch=2 n=51 v=80
12456 On ch=2 n=56 v=80
12456 On ch=2 n=60 v=80
12504 On ch=2 n=51 v=0
12504 On ch=2 n=56 v=0
12504 On ch=2 n=60 v=0
12527 On ch=2 n=43 v=80
12527 On ch=2 n=55 v=80
12576 On ch=2 n=43 v=0
12576 On ch=2 n=55 v=0
12600 On ch=2 n=52 v=80
12600 On ch=2 n=58 v=80
12600 On ch=2 n=60 v=80
12648 On ch=2 n=52 v=0
12648 On ch=2 n=58 v=0
12648 On ch=2 n=60 v=0
12672 On ch=2 n=53 v=80
12672 On ch=2 n=41 v=80
12720 On ch=2 n=53 v=0
12720 On ch=2 n=41 v=0
12744 On ch=2 n=53 v=80
12744 On ch=2 n=56 v=80
12744 On ch=2 n=60 v=80
12792 On ch=2 n=53 v=0
12792 On ch=2 n=56 v=0
12792 On ch=2 n=60 v=0
12816 On ch=2 n=53 v=80
12816 On ch=2 n=41 v=80
12864 On ch=2 n=53 v=0
12864 On ch=2 n=41 v=0
12887 On ch=2 n=51 v=80
12887 On ch=2 n=39 v=80
12936 On ch=2 n=51 v=0
12936 On ch=2 n=39 v=0
12960 On ch=2 n=49 v=80
12960 On ch=2 n=37 v=80
13008 On ch=2 n=49 v=0
13008 On ch=2 n=37 v=0
13032 On ch=2 n=53 v=80
13032 On ch=2 n=56 v=80
13032 On ch=2 n=61 v=80
13080 On ch=2 n=53 v=0
13080 On ch=2 n=56 v=0
13080 On ch=2 n=61 v=0
13104 On ch=2 n=53 v=80
13104 On ch=2 n=41 v=80
13152 On ch=2 n=53 v=0
13152 On ch=2 n=41 v=0
13176 On ch=2 n=40 v=80
13176 On ch=2 n=52 v=80
13224 On ch=2 n=40 v=0
13224 On ch=2 n=52 v=0
13247 On ch=2 n=51 v=80
13247 On ch=2 n=39 v=80
13296 On ch=2 n=51 v=0
13296 On ch=2 n=39 v=0
13320 On ch=2 n=51 v=80
13320 On ch=2 n=56 v=80
13320 On ch=2 n=60 v=80
13368 On ch=2 n=51 v=0
13368 On ch=2 n=56 v=0
13368 On ch=2 n=60 v=0
13392 On ch=2 n=60 v=80
13392 On ch=2 n=48 v=80
13440 On ch=2 n=60 v=0
13440 On ch=2 n=48 v=0
13464 On ch=2 n=45 v=80
13464 On ch=2 n=57 v=80
13512 On ch=2 n=45 v=0
13512 On ch=2 n=57 v=0
13536 On ch=2 n=58 v=80
13536 On ch=2 n=46 v=80
13584 On ch=2 n=58 v=0
13584 On ch=2 n=46 v=0
13607 On ch=2 n=51 v=80
13607 On ch=2 n=55 v=80
13607 On ch=2 n=61 v=80
13656 On ch=2 n=51 v=0
13656 On ch=2 n=55 v=0
13656 On ch=2 n=61 v=0
13680 On ch=2 n=51 v=80
13680 On ch=2 n=39 v=80
13728 On ch=2 n=51 v=0
13728 On ch=2 n=39 v=0
13752 On ch=2 n=51 v=80
13752 On ch=2 n=55 v=80
13752 On ch=2 n=61 v=80
13800 On ch=2 n=51 v=0
13800 On ch=2 n=55 v=0
13800 On ch=2 n=61 v=0
13823 On ch=2 n=60 v=80
13823 On ch=2 n=56 v=80
13872 On ch=2 n=56 v=0
13896 On ch=2 n=51 v=80
13896 On ch=2 n=39 v=80
13944 On ch=2 n=51 v=0
13944 On ch=2 n=39 v=0
13967 On ch=2 n=60 v=0
13967 On ch=2 n=44 v=80
13967 On ch=2 n=56 v=80
14016 On ch=2 n=44 v=0
14016 On ch=2 n=56 v=0
14040 On ch=2 n=57 v=80
14040 On ch=2 n=45 v=80
14088 On ch=2 n=57 v=0
14088 On ch=2 n=45 v=0
14112 On ch=2 n=58 v=80
14112 On ch=2 n=46 v=80
14160 On ch=2 n=58 v=0
14160 On ch=2 n=46 v=0
14183 On ch=2 n=61 v=80
14183 On ch=2 n=55 v=80
14183 On ch=2 n=51 v=80
14232 On ch=2 n=61 v=0
14232 On ch=2 n=55 v=0
14232 On ch=2 n=51 v=0
14256 On ch=2 n=51 v=80
14256 On ch=2 n=39 v=80
14304 On ch=2 n=51 v=0
14304 On ch=2 n=39 v=0
14327 On ch=2 n=51 v=80
14327 On ch=2 n=55 v=80
14327 On ch=2 n=61 v=80
14376 On ch=2 n=51 v=0
14376 On ch=2 n=55 v=0
14376 On ch=2 n=61 v=0
14400 On ch=2 n=55 v=80
14400 On ch=2 n=43 v=80
14448 On ch=2 n=55 v=0
14448 On ch=2 n=43 v=0
14472 On ch=2 n=51 v=80
14472 On ch=2 n=55 v=80
14472 On ch=2 n=61 v=80
14520 On ch=2 n=51 v=0
14520 On ch=2 n=55 v=0
14520 On ch=2 n=61 v=0
14543 On ch=2 n=51 v=80
14543 On ch=2 n=39 v=80
14592 On ch=2 n=51 v=0
14592 On ch=2 n=39 v=0
14616 On ch=2 n=51 v=80
14616 On ch=2 n=55 v=80
14616 On ch=2 n=61 v=80
14664 On ch=2 n=51 v=0
14664 On ch=2 n=55 v=0
14664 On ch=2 n=61 v=0
14687 On ch=2 n=56 v=80
14687 On ch=2 n=44 v=80
14736 On ch=2 n=56 v=0
14736 On ch=2 n=44 v=0
14760 On ch=2 n=51 v=80
14760 On ch=2 n=56 v=80
14760 On ch=2 n=60 v=80
14808 On ch=2 n=51 v=0
14808 On ch=2 n=56 v=0
14808 On ch=2 n=60 v=0
14832 On ch=2 n=51 v=80
14832 On ch=2 n=39 v=80
14880 On ch=2 n=51 v=0
14880 On ch=2 n=39 v=0
14903 On ch=2 n=51 v=80
14903 On ch=2 n=56 v=80
14903 On ch=2 n=60 v=80
14952 On ch=2 n=51 v=0
14952 On ch=2 n=56 v=0
14952 On ch=2 n=60 v=0
14976 On ch=2 n=56 v=80
14976 On ch=2 n=44 v=80
15000 On ch=2 n=56 v=0
15000 On ch=2 n=44 v=0
15012 On ch=2 n=43 v=80
15012 On ch=2 n=55 v=80
15036 On ch=2 n=43 v=0
15036 On ch=2 n=55 v=0
15047 On ch=2 n=56 v=80
15047 On ch=2 n=44 v=80
15072 On ch=2 n=56 v=0
15072 On ch=2 n=44 v=0
15083 On ch=2 n=48 v=80
15083 On ch=2 n=60 v=80
15107 On ch=2 n=48 v=0
15107 On ch=2 n=60 v=0
15120 On ch=2 n=63 v=80
15120 On ch=2 n=51 v=80
15168 On ch=2 n=63 v=0
15168 On ch=2 n=51 v=0
15192 On ch=2 n=45 v=80
15192 On ch=2 n=57 v=80
15240 On ch=2 n=45 v=0
15240 On ch=2 n=57 v=0
15263 On ch=2 n=58 v=80
15263 On ch=2 n=46 v=80
15312 On ch=2 n=58 v=0
15312 On ch=2 n=46 v=0
15336 On ch=2 n=51 v=80
15336 On ch=2 n=55 v=80
15336 On ch=2 n=61 v=80
15383 On ch=2 n=51 v=0
15383 On ch=2 n=55 v=0
15383 On ch=2 n=61 v=0
15408 On ch=2 n=51 v=80
15408 On ch=2 n=39 v=80
15432 On ch=2 n=51 v=0
15432 On ch=2 n=39 v=0
15443 On ch=2 n=40 v=80
15443 On ch=2 n=52 v=80
15467 On ch=2 n=40 v=0
15467 On ch=2 n=52 v=0
15480 On ch=2 n=53 v=80
15480 On ch=2 n=41 v=80
15503 On ch=2 n=53 v=0
15503 On ch=2 n=41 v=0
15515 On ch=2 n=42 v=80
15515 On ch=2 n=54 v=80
15539 On ch=2 n=42 v=0
15539 On ch=2 n=54 v=0
15552 On ch=2 n=58 v=80
15552 On ch=2 n=46 v=80
15600 On ch=2 n=58 v=0
15600 On ch=2 n=46 v=0
15623 On ch=2 n=51 v=80
15623 On ch=2 n=55 v=80
15623 On ch=2 n=61 v=80
15672 On ch=2 n=51 v=0
15672 On ch=2 n=55 v=0
15672 On ch=2 n=61 v=0
15695 On ch=2 n=39 v=80
15719 On ch=2 n=39 v=0
15732 On ch=2 n=40 v=80
15732 On ch=2 n=52 v=80
15755 On ch=2 n=40 v=0
15755 On ch=2 n=52 v=0
15768 On ch=2 n=53 v=80
15768 On ch=2 n=41 v=80
15792 On ch=2 n=53 v=0
15792 On ch=2 n=41 v=0
15803 On ch=2 n=43 v=80
15803 On ch=2 n=55 v=80
15827 On ch=2 n=43 v=0
15827 On ch=2 n=55 v=0
15840 On ch=2 n=56 v=80
15840 On ch=2 n=44 v=80
15888 On ch=2 n=56 v=0
15888 On ch=2 n=44 v=0
15912 On ch=2 n=56 v=80
15912 On ch=2 n=60 v=80
15912 On ch=2 n=51 v=80
15960 On ch=2 n=56 v=0
15960 On ch=2 n=60 v=0
15960 On ch=2 n=51 v=0
15983 On ch=2 n=51 v=80
15983 On ch=2 n=39 v=80
16032 On ch=2 n=51 v=0
16032 On ch=2 n=39 v=0
16055 On ch=2 n=51 v=80
16055 On ch=2 n=56 v=80
16055 On ch=2 n=60 v=80
16103 On ch=2 n=51 v=0
16103 On ch=2 n=56 v=0
16103 On ch=2 n=60 v=0
16128 On ch=2 n=56 v=80
16128 On ch=2 n=44 v=80
16152 On ch=2 n=56 v=0
16152 On ch=2 n=44 v=0
16163 On ch=2 n=39 v=80
16163 On ch=2 n=51 v=80
16187 On ch=2 n=39 v=0
16187 On ch=2 n=51 v=0
16200 On ch=2 n=52 v=80
16200 On ch=2 n=40 v=80
16223 On ch=2 n=52 v=0
16223 On ch=2 n=40 v=0
16235 On ch=2 n=41 v=80
16235 On ch=2 n=53 v=80
16259 On ch=2 n=41 v=0
16259 On ch=2 n=53 v=0
16272 On ch=2 n=54 v=80
16272 On ch=2 n=42 v=80
16295 On ch=2 n=54 v=0
16295 On ch=2 n=42 v=0
16308 On ch=2 n=43 v=80
16308 On ch=2 n=55 v=80
16332 On ch=2 n=43 v=0
16332 On ch=2 n=55 v=0
16343 On ch=2 n=56 v=80
16343 On ch=2 n=44 v=80
16367 On ch=2 n=56 v=0
16367 On ch=2 n=44 v=0
16380 On ch=2 n=57 v=80
16380 On ch=2 n=45 v=80
16404 On ch=2 n=57 v=0
16404 On ch=2 n=45 v=0
16415 On ch=2 n=58 v=80
16415 On ch=2 n=46 v=80
16464 On ch=2 n=58 v=0
16464 On ch=2 n=46 v=0
16488 On ch=2 n=61 v=80
16488 On ch=2 n=55 v=80
16488 On ch=2 n=51 v=80
16536 On ch=2 n=61 v=0
16536 On ch=2 n=55 v=0
16536 On ch=2 n=51 v=0
16560 On ch=2 n=51 v=80
16560 On ch=2 n=39 v=80
16608 On ch=2 n=51 v=0
16608 On ch=2 n=39 v=0
16632 On ch=2 n=51 v=80
16632 On ch=2 n=55 v=80
16632 On ch=2 n=61 v=80
16680 On ch=2 n=51 v=0
16680 On ch=2 n=55 v=0
16680 On ch=2 n=61 v=0
16704 On ch=2 n=55 v=80
16704 On ch=2 n=43 v=80
16752 On ch=2 n=55 v=0
16752 On ch=2 n=43 v=0
16775 On ch=2 n=51 v=80
16775 On ch=2 n=55 v=80
16775 On ch=2 n=61 v=80
16824 On ch=2 n=51 v=0
16824 On ch=2 n=55 v=0
16824 On ch=2 n=61 v=0
16848 On ch=2 n=51 v=80
16848 On ch=2 n=39 v=80
16896 On ch=2 n=51 v=0
16896 On ch=2 n=39 v=0
16920 On ch=2 n=51 v=80
16920 On ch=2 n=55 v=80
16920 On ch=2 n=61 v=80
16968 On ch=2 n=51 v=0
16968 On ch=2 n=55 v=0
16968 On ch=2 n=61 v=0
16992 On ch=2 n=56 v=80
16992 On ch=2 n=44 v=80
17040 On ch=2 n=56 v=0
17040 On ch=2 n=44 v=0
17064 On ch=2 n=51 v=80
17064 On ch=2 n=56 v=80
17064 On ch=2 n=60 v=80
17112 On ch=2 n=51 v=0
17112 On ch=2 n=56 v=0
17112 On ch=2 n=60 v=0
17135 On ch=2 n=43 v=80
17135 On ch=2 n=55 v=80
17184 On ch=2 n=43 v=0
17184 On ch=2 n=55 v=0
17208 On ch=2 n=52 v=80
17208 On ch=2 n=58 v=80
17208 On ch=2 n=60 v=80
17256 On ch=2 n=52 v=0
17256 On ch=2 n=58 v=0
17256 On ch=2 n=60 v=0
17280 On ch=2 n=53 v=80
17280 On ch=2 n=41 v=80
17328 On ch=2 n=53 v=0
17328 On ch=2 n=41 v=0
17352 On ch=2 n=53 v=80
17352 On ch=2 n=56 v=80
17352 On ch=2 n=60 v=80
17400 On ch=2 n=53 v=0
17400 On ch=2 n=56 v=0
17400 On ch=2 n=60 v=0
17424 On ch=2 n=53 v=80
17424 On ch=2 n=41 v=80
17472 On ch=2 n=53 v=0
17472 On ch=2 n=41 v=0
17495 On ch=2 n=51 v=80
17495 On ch=2 n=39 v=80
17544 On ch=2 n=51 v=0
17544 On ch=2 n=39 v=0
17568 On ch=2 n=49 v=80
17568 On ch=2 n=37 v=80
17616 On ch=2 n=49 v=0
17616 On ch=2 n=37 v=0
17640 On ch=2 n=53 v=80
17640 On ch=2 n=56 v=80
17640 On ch=2 n=61 v=80
17688 On ch=2 n=53 v=0
17688 On ch=2 n=56 v=0
17688 On ch=2 n=61 v=0
17712 On ch=2 n=53 v=80
17712 On ch=2 n=41 v=80
17760 On ch=2 n=53 v=0
17760 On ch=2 n=41 v=0
17784 On ch=2 n=40 v=80
17784 On ch=2 n=52 v=80
17832 On ch=2 n=40 v=0
17832 On ch=2 n=52 v=0
17855 On ch=2 n=51 v=80
17855 On ch=2 n=39 v=80
17904 On ch=2 n=51 v=0
17904 On ch=2 n=39 v=0
17928 On ch=2 n=51 v=80
17928 On ch=2 n=56 v=80
17928 On ch=2 n=60 v=80
17976 On ch=2 n=51 v=0
17976 On ch=2 n=56 v=0
17976 On ch=2 n=60 v=0
18000 On ch=2 n=60 v=80
18000 On ch=2 n=48 v=80
18048 On ch=2 n=60 v=0
18048 On ch=2 n=48 v=0
18072 On ch=2 n=45 v=80
18072 On ch=2 n=57 v=80
18120 On ch=2 n=45 v=0
18120 On ch=2 n=57 v=0
18144 On ch=2 n=58 v=80
18144 On ch=2 n=46 v=80
18192 On ch=2 n=58 v=0
18192 On ch=2 n=46 v=0
18215 On ch=2 n=51 v=80
18215 On ch=2 n=55 v=80
18215 On ch=2 n=61 v=80
18264 On ch=2 n=51 v=0
18264 On ch=2 n=55 v=0
18264 On ch=2 n=61 v=0
18288 On ch=2 n=51 v=80
18288 On ch=2 n=39 v=80
18336 On ch=2 n=51 v=0
18336 On ch=2 n=39 v=0
18360 On ch=2 n=51 v=80
18360 On ch=2 n=55 v=80
18360 On ch=2 n=61 v=80
18408 On ch=2 n=51 v=0
18408 On ch=2 n=55 v=0
18408 On ch=2 n=61 v=0
18432 On ch=2 n=56 v=80
18432 On ch=2 n=60 v=80
18480 On ch=2 n=56 v=0
18480 On ch=2 n=60 v=0
18564 On ch=2 n=61 v=80
18572 On ch=2 n=61 v=0
18575 On ch=2 n=63 v=80
18624 On ch=2 n=63 v=0
18648 On ch=2 n=51 v=80
18648 On ch=2 n=39 v=80
18696 On ch=2 n=51 v=0
18696 On ch=2 n=39 v=0
18720 On ch=2 n=56 v=80
18720 On ch=2 n=44 v=80
18768 On ch=2 n=56 v=0
18768 On ch=2 n=44 v=0
18792 On ch=2 n=60 v=80
18792 On ch=2 n=56 v=80
18792 On ch=2 n=51 v=80
18840 On ch=2 n=60 v=0
18840 On ch=2 n=56 v=0
18840 On ch=2 n=51 v=0
18864 On ch=2 n=51 v=80
18864 On ch=2 n=39 v=80
18912 On ch=2 n=51 v=0
18912 On ch=2 n=39 v=0
18935 On ch=2 n=60 v=80
18935 On ch=2 n=56 v=80
18935 On ch=2 n=51 v=80
18984 On ch=2 n=60 v=0
18984 On ch=2 n=56 v=0
18984 On ch=2 n=51 v=0
19008 On ch=2 n=53 v=80
19008 On ch=2 n=41 v=80
19056 On ch=2 n=53 v=0
19056 On ch=2 n=41 v=0
19080 On ch=2 n=52 v=80
19080 On ch=2 n=40 v=80
19128 On ch=2 n=52 v=0
19128 On ch=2 n=40 v=0
19152 On ch=2 n=51 v=80
19152 On ch=2 n=39 v=80
19200 On ch=2 n=51 v=0
19200 On ch=2 n=39 v=0
19224 On ch=2 n=51 v=80
19224 On ch=2 n=55 v=80
19224 On ch=2 n=61 v=80
19272 On ch=2 n=51 v=0
19272 On ch=2 n=55 v=0
19272 On ch=2 n=61 v=0
19295 On ch=2 n=56 v=80
19295 On ch=2 n=44 v=80
19344 On ch=2 n=56 v=0
19344 On ch=2 n=44 v=0
19368 On ch=2 n=60 v=80
19368 On ch=2 n=56 v=80
19368 On ch=2 n=51 v=80
19416 On ch=2 n=60 v=0
19416 On ch=2 n=56 v=0
19416 On ch=2 n=51 v=0
19440 On ch=2 n=51 v=80
19440 On ch=2 n=39 v=80
19488 On ch=2 n=51 v=0
19488 On ch=2 n=39 v=0
19512 On ch=2 n=60 v=80
19512 On ch=2 n=56 v=80
19512 On ch=2 n=51 v=80
19560 On ch=2 n=60 v=0
19560 On ch=2 n=56 v=0
19560 On ch=2 n=51 v=0
19584 On ch=2 n=53 v=80
19584 On ch=2 n=41 v=80
19632 On ch=2 n=53 v=0
19632 On ch=2 n=41 v=0
19655 On ch=2 n=52 v=80
19655 On ch=2 n=40 v=80
19704 On ch=2 n=52 v=0
19704 On ch=2 n=40 v=0
19728 On ch=2 n=51 v=80
19728 On ch=2 n=39 v=80
19776 On ch=2 n=51 v=0
19776 On ch=2 n=39 v=0
19800 On ch=2 n=58 v=80
19800 On ch=2 n=46 v=80
19824 On ch=2 n=58 v=0
19824 On ch=2 n=46 v=0
19835 On ch=2 n=60 v=80
19835 On ch=2 n=48 v=80
19859 On ch=2 n=60 v=0
19859 On ch=2 n=48 v=0
19872 On ch=2 n=53 v=80
19872 On ch=2 n=41 v=80
19920 On ch=2 n=53 v=0
19920 On ch=2 n=41 v=0
20088 On ch=2 n=58 v=80
20088 On ch=2 n=46 v=80
20112 On ch=2 n=58 v=0
20112 On ch=2 n=46 v=0
20124 On ch=2 n=60 v=80
20124 On ch=2 n=48 v=80
20147 On ch=2 n=60 v=0
20147 On ch=2 n=48 v=0
20160 On ch=2 n=41 v=80
20160 On ch=2 n=53 v=80
20208 On ch=2 n=41 v=0
20208 On ch=2 n=53 v=0
20232 On ch=2 n=61 v=80
20280 On ch=2 n=61 v=0
20304 On ch=2 n=60 v=80
20352 On ch=2 n=60 v=0
20448 On ch=2 n=41 v=80
20448 On ch=2 n=29 v=80
20472 On ch=2 n=41 v=0
20472 On ch=2 n=29 v=0
20484 On ch=2 n=43 v=80
20484 On ch=2 n=31 v=80
20507 On ch=2 n=43 v=0
20507 On ch=2 n=31 v=0
20520 On ch=2 n=44 v=80
20520 On ch=2 n=32 v=80
20544 On ch=2 n=44 v=0
20544 On ch=2 n=32 v=0
20555 On ch=2 n=48 v=80
20555 On ch=2 n=36 v=80
20579 On ch=2 n=48 v=0
20579 On ch=2 n=36 v=0
20592 On ch=2 n=53 v=80
20592 On ch=2 n=41 v=80
20615 On ch=2 n=53 v=0
20615 On ch=2 n=41 v=0
20628 On ch=2 n=55 v=80
20628 On ch=2 n=43 v=80
20652 On ch=2 n=55 v=0
20652 On ch=2 n=43 v=0
20664 On ch=2 n=56 v=80
20664 On ch=2 n=44 v=80
20687 On ch=2 n=56 v=0
20687 On ch=2 n=44 v=0
20700 On ch=2 n=60 v=80
20700 On ch=2 n=48 v=80
20724 On ch=2 n=60 v=0
20724 On ch=2 n=48 v=0
20735 On ch=2 n=53 v=80
20759 On ch=2 n=53 v=0
20772 On ch=2 n=55 v=80
20795 On ch=2 n=55 v=0
20808 On ch=2 n=56 v=80
20832 On ch=2 n=56 v=0
20844 On ch=2 n=60 v=80
20867 On ch=2 n=60 v=0
22175 On ch=2 n=50 v=80
22175 On ch=2 n=53 v=80
22175 On ch=2 n=56 v=80
22175 On ch=2 n=59 v=80
22224 On ch=2 n=50 v=0
22224 On ch=2 n=53 v=0
22224 On ch=2 n=56 v=0
22224 On ch=2 n=59 v=0
22248 On ch=2 n=50 v=80
22248 On ch=2 n=53 v=80
22248 On ch=2 n=56 v=80
22248 On ch=2 n=59 v=80
22296 On ch=2 n=50 v=0
22296 On ch=2 n=53 v=0
22296 On ch=2 n=56 v=0
22296 On ch=2 n=59 v=0
22320 On ch=2 n=50 v=80
22320 On ch=2 n=53 v=80
22320 On ch=2 n=56 v=80
22320 On ch=2 n=59 v=80
22368 On ch=2 n=50 v=0
22368 On ch=2 n=53 v=0
22368 On ch=2 n=56 v=0
22368 On ch=2 n=59 v=0
22392 On ch=2 n=50 v=80
22392 On ch=2 n=53 v=80
22392 On ch=2 n=56 v=80
22392 On ch=2 n=59 v=80
22440 On ch=2 n=50 v=0
22440 On ch=2 n=53 v=0
22440 On ch=2 n=56 v=0
22440 On ch=2 n=59 v=0
22464 On ch=2 n=51 v=80
22464 On ch=2 n=56 v=80
22464 On ch=2 n=60 v=80
22512 On ch=2 n=51 v=0
22512 On ch=2 n=56 v=0
22512 On ch=2 n=60 v=0
22535 On ch=2 n=60 v=80
22535 On ch=2 n=56 v=80
22535 On ch=2 n=51 v=80
22584 On ch=2 n=60 v=0
22584 On ch=2 n=56 v=0
22584 On ch=2 n=51 v=0
22608 On ch=2 n=54 v=80
22608 On ch=2 n=56 v=80
22608 On ch=2 n=60 v=80
22656 On ch=2 n=54 v=0
22656 On ch=2 n=56 v=0
22656 On ch=2 n=60 v=0
22680 On ch=2 n=60 v=80
22680 On ch=2 n=56 v=80
22680 On ch=2 n=54 v=80
22728 On ch=2 n=60 v=0
22728 On ch=2 n=56 v=0
22728 On ch=2 n=54 v=0
22752 On ch=2 n=56 v=80
22752 On ch=2 n=53 v=80
22752 On ch=2 n=61 v=80
22800 On ch=2 n=56 v=0
22800 On ch=2 n=53 v=0
22800 On ch=2 n=61 v=0
22824 On ch=2 n=61 v=80
22824 On ch=2 n=56 v=80
22824 On ch=2 n=52 v=80
22872 On ch=2 n=61 v=0
22872 On ch=2 n=56 v=0
22872 On ch=2 n=52 v=0
22895 On ch=2 n=60 v=80
22895 On ch=2 n=56 v=80
22895 On ch=2 n=51 v=80
22944 On ch=2 n=60 v=0
22944 On ch=2 n=56 v=0
22944 On ch=2 n=51 v=0
22968 On ch=2 n=51 v=80
22968 On ch=2 n=56 v=80
22968 On ch=2 n=60 v=80
23016 On ch=2 n=51 v=0
23016 On ch=2 n=56 v=0
23016 On ch=2 n=60 v=0
23040 On ch=2 n=53 v=80
23040 On ch=2 n=41 v=80
23088 On ch=2 n=53 v=0
23088 On ch=2 n=41 v=0
23112 On ch=2 n=39 v=80
23112 On ch=2 n=51 v=80
23160 On ch=2 n=39 v=0
23160 On ch=2 n=51 v=0
23184 On ch=2 n=56 v=80
23184 On ch=2 n=44 v=80
23232 On ch=2 n=56 v=0
23232 On ch=2 n=44 v=0
23328 On ch=2 n=49 v=80
23328 On ch=2 n=37 v=80
23376 On ch=2 n=49 v=0
23376 On ch=2 n=37 v=0
23400 On ch=2 n=53 v=80
23400 On ch=2 n=56 v=80
23400 On ch=2 n=61 v=80
23448 On ch=2 n=53 v=0
23448 On ch=2 n=56 v=0
23448 On ch=2 n=61 v=0
23472 On ch=2 n=54 v=80
23472 On ch=2 n=42 v=80
23520 On ch=2 n=54 v=0
23520 On ch=2 n=42 v=0
23544 On ch=2 n=54 v=80
23544 On ch=2 n=58 v=80
23544 On ch=2 n=61 v=80
23592 On ch=2 n=54 v=0
23592 On ch=2 n=58 v=0
23592 On ch=2 n=61 v=0
23615 On ch=2 n=49 v=80
23615 On ch=2 n=37 v=80
23664 On ch=2 n=49 v=0
23664 On ch=2 n=37 v=0
23688 On ch=2 n=53 v=80
23688 On ch=2 n=56 v=80
23688 On ch=2 n=61 v=80
23736 On ch=2 n=53 v=0
23736 On ch=2 n=56 v=0
23736 On ch=2 n=61 v=0
23760 On ch=2 n=53 v=80
23760 On ch=2 n=41 v=80
23808 On ch=2 n=53 v=0
23808 On ch=2 n=41 v=0
23832 On ch=2 n=53 v=80
23832 On ch=2 n=56 v=80
23832 On ch=2 n=61 v=80
23880 On ch=2 n=53 v=0
23880 On ch=2 n=56 v=0
23880 On ch=2 n=61 v=0
23904 On ch=2 n=44 v=80
23904 On ch=2 n=32 v=80
23952 On ch=2 n=44 v=0
23952 On ch=2 n=32 v=0
23975 On ch=2 n=54 v=80
23975 On ch=2 n=56 v=80
23975 On ch=2 n=60 v=80
24024 On ch=2 n=54 v=0
24024 On ch=2 n=56 v=0
24024 On ch=2 n=60 v=0
24048 On ch=2 n=48 v=80
24048 On ch=2 n=36 v=80
24096 On ch=2 n=48 v=0
24096 On ch=2 n=36 v=0
24120 On ch=2 n=54 v=80
24120 On ch=2 n=56 v=80
24120 On ch=2 n=60 v=80
24168 On ch=2 n=54 v=0
24168 On ch=2 n=56 v=0
24168 On ch=2 n=60 v=0
24192 On ch=2 n=49 v=80
24192 On ch=2 n=37 v=80
24240 On ch=2 n=49 v=0
24240 On ch=2 n=37 v=0
24264 On ch=2 n=53 v=80
24264 On ch=2 n=56 v=80
24264 On ch=2 n=61 v=80
24312 On ch=2 n=53 v=0
24312 On ch=2 n=56 v=0
24312 On ch=2 n=61 v=0
24335 On ch=2 n=49 v=80
24335 On ch=2 n=37 v=80
24384 On ch=2 n=49 v=0
24384 On ch=2 n=37 v=0
24408 On ch=2 n=46 v=80
24408 On ch=2 n=34 v=80
24456 On ch=2 n=46 v=0
24456 On ch=2 n=34 v=0
24480 On ch=2 n=48 v=80
24480 On ch=2 n=36 v=80
24528 On ch=2 n=48 v=0
24528 On ch=2 n=36 v=0
24552 On ch=2 n=53 v=80
24552 On ch=2 n=56 v=80
24552 On ch=2 n=60 v=80
24600 On ch=2 n=53 v=0
24600 On ch=2 n=56 v=0
24600 On ch=2 n=60 v=0
24624 On ch=2 n=55 v=80
24624 On ch=2 n=43 v=80
24672 On ch=2 n=55 v=0
24672 On ch=2 n=43 v=0
24695 On ch=2 n=48 v=80
24695 On ch=2 n=36 v=80
24744 On ch=2 n=48 v=0
24744 On ch=2 n=36 v=0
24768 On ch=2 n=53 v=80
24768 On ch=2 n=41 v=80
24816 On ch=2 n=53 v=0
24816 On ch=2 n=41 v=0
24840 On ch=2 n=51 v=80
24840 On ch=2 n=63 v=80
24888 On ch=2 n=51 v=0
24888 On ch=2 n=63 v=0
24912 On ch=2 n=62 v=80
24912 On ch=2 n=50 v=80
24960 On ch=2 n=62 v=0
24960 On ch=2 n=50 v=0
24984 On ch=2 n=49 v=80
24984 On ch=2 n=61 v=80
25032 On ch=2 n=49 v=0
25032 On ch=2 n=61 v=0
25055 On ch=2 n=60 v=80
25055 On ch=2 n=48 v=80
25104 On ch=2 n=60 v=0
25104 On ch=2 n=48 v=0
25128 On ch=2 n=47 v=80
25128 On ch=2 n=59 v=80
25176 On ch=2 n=47 v=0
25176 On ch=2 n=59 v=0
25200 On ch=2 n=58 v=80
25200 On ch=2 n=46 v=80
25248 On ch=2 n=58 v=0
25248 On ch=2 n=46 v=0
25272 On ch=2 n=45 v=80
25272 On ch=2 n=57 v=80
25320 On ch=2 n=45 v=0
25320 On ch=2 n=57 v=0
25344 On ch=2 n=56 v=80
25344 On ch=2 n=44 v=80
25392 On ch=2 n=56 v=0
25392 On ch=2 n=44 v=0
25415 On ch=2 n=42 v=80
25415 On ch=2 n=54 v=80
25464 On ch=2 n=42 v=0
25464 On ch=2 n=54 v=0
25488 On ch=2 n=53 v=80
25488 On ch=2 n=41 v=80
25536 On ch=2 n=53 v=0
25536 On ch=2 n=41 v=0
25560 On ch=2 n=39 v=80
25560 On ch=2 n=51 v=80
25608 On ch=2 n=39 v=0
25608 On ch=2 n=51 v=0
25632 On ch=2 n=49 v=80
25632 On ch=2 n=37 v=80
25680 On ch=2 n=49 v=0
25680 On ch=2 n=37 v=0
25704 On ch=2 n=53 v=80
25704 On ch=2 n=56 v=80
25704 On ch=2 n=61 v=80
25752 On ch=2 n=53 v=0
25752 On ch=2 n=56 v=0
25752 On ch=2 n=61 v=0
25775 On ch=2 n=54 v=80
25775 On ch=2 n=42 v=80
25824 On ch=2 n=54 v=0
25824 On ch=2 n=42 v=0
25848 On ch=2 n=54 v=80
25848 On ch=2 n=58 v=80
25848 On ch=2 n=61 v=80
25896 On ch=2 n=54 v=0
25896 On ch=2 n=58 v=0
25896 On ch=2 n=61 v=0
25920 On ch=2 n=49 v=80
25920 On ch=2 n=37 v=80
25968 On ch=2 n=49 v=0
25968 On ch=2 n=37 v=0
25992 On ch=2 n=53 v=80
25992 On ch=2 n=56 v=80
25992 On ch=2 n=61 v=80
26040 On ch=2 n=53 v=0
26040 On ch=2 n=56 v=0
26040 On ch=2 n=61 v=0
26064 On ch=2 n=53 v=80
26064 On ch=2 n=41 v=80
26112 On ch=2 n=53 v=0
26112 On ch=2 n=41 v=0
26135 On ch=2 n=53 v=80
26135 On ch=2 n=56 v=80
26135 On ch=2 n=61 v=80
26184 On ch=2 n=53 v=0
26184 On ch=2 n=56 v=0
26184 On ch=2 n=61 v=0
26208 On ch=2 n=53 v=80
26208 On ch=2 n=41 v=80
26256 On ch=2 n=53 v=0
26256 On ch=2 n=41 v=0
26280 On ch=2 n=53 v=80
26280 On ch=2 n=57 v=80
26280 On ch=2 n=60 v=80
26280 On ch=2 n=63 v=80
26328 On ch=2 n=53 v=0
26328 On ch=2 n=57 v=0
26328 On ch=2 n=60 v=0
26328 On ch=2 n=63 v=0
26352 On ch=2 n=60 v=80
26352 On ch=2 n=48 v=80
26400 On ch=2 n=60 v=0
26400 On ch=2 n=48 v=0
26424 On ch=2 n=53 v=80
26424 On ch=2 n=57 v=80
26424 On ch=2 n=60 v=80
26424 On ch=2 n=63 v=80
26472 On ch=2 n=53 v=0
26472 On ch=2 n=57 v=0
26472 On ch=2 n=60 v=0
26472 On ch=2 n=63 v=0
26495 On ch=2 n=58 v=80
26495 On ch=2 n=46 v=80
26544 On ch=2 n=58 v=0
26544 On ch=2 n=46 v=0
26568 On ch=2 n=53 v=80
26568 On ch=2 n=58 v=80
26568 On ch=2 n=61 v=80
26616 On ch=2 n=53 v=0
26616 On ch=2 n=58 v=0
26616 On ch=2 n=61 v=0
26640 On ch=2 n=58 v=80
26640 On ch=2 n=46 v=80
26688 On ch=2 n=58 v=0
26688 On ch=2 n=46 v=0
26712 On ch=2 n=44 v=80
26712 On ch=2 n=56 v=80
26760 On ch=2 n=44 v=0
26760 On ch=2 n=56 v=0
26784 On ch=2 n=54 v=80
26784 On ch=2 n=42 v=80
26832 On ch=2 n=54 v=0
26832 On ch=2 n=42 v=0
26855 On ch=2 n=58 v=80
26855 On ch=2 n=61 v=80
26855 On ch=2 n=66 v=80
26904 On ch=2 n=58 v=0
26904 On ch=2 n=61 v=0
26904 On ch=2 n=66 v=0
26928 On ch=2 n=58 v=80
26928 On ch=2 n=46 v=80
26976 On ch=2 n=58 v=0
26976 On ch=2 n=46 v=0
27000 On ch=2 n=57 v=80
27000 On ch=2 n=45 v=80
27048 On ch=2 n=57 v=0
27048 On ch=2 n=45 v=0
27072 On ch=2 n=56 v=80
27072 On ch=2 n=44 v=80
27120 On ch=2 n=56 v=0
27120 On ch=2 n=44 v=0
27144 On ch=2 n=56 v=80
27144 On ch=2 n=61 v=80
27144 On ch=2 n=65 v=80
27192 On ch=2 n=56 v=0
27192 On ch=2 n=61 v=0
27192 On ch=2 n=65 v=0
27215 On ch=2 n=53 v=80
27215 On ch=2 n=41 v=80
27264 On ch=2 n=53 v=0
27264 On ch=2 n=41 v=0
27288 On ch=2 n=44 v=80
27288 On ch=2 n=56 v=80
27336 On ch=2 n=44 v=0
27336 On ch=2 n=56 v=0
27360 On ch=2 n=44 v=80
27360 On ch=2 n=32 v=80
27408 On ch=2 n=44 v=0
27408 On ch=2 n=32 v=0
27432 On ch=2 n=54 v=80
27432 On ch=2 n=56 v=80
27432 On ch=2 n=60 v=80
27480 On ch=2 n=54 v=0
27480 On ch=2 n=56 v=0
27480 On ch=2 n=60 v=0
27504 On ch=2 n=44 v=80
27504 On ch=2 n=32 v=80
27552 On ch=2 n=44 v=0
27552 On ch=2 n=32 v=0
27575 On ch=2 n=54 v=80
27575 On ch=2 n=56 v=80
27575 On ch=2 n=60 v=80
27624 On ch=2 n=54 v=0
27624 On ch=2 n=56 v=0
27624 On ch=2 n=60 v=0
27647 On ch=2 n=49 v=80
27647 On ch=2 n=37 v=80
27695 On ch=2 n=49 v=0
27695 On ch=2 n=37 v=0
27720 On ch=2 n=56 v=80
27720 On ch=2 n=44 v=80
27744 On ch=2 n=56 v=0
27744 On ch=2 n=44 v=0
27755 On ch=2 n=58 v=80
27755 On ch=2 n=46 v=80
27804 On ch=2 n=58 v=0
27804 On ch=2 n=46 v=0
27827 On ch=2 n=56 v=80
27827 On ch=2 n=44 v=80
27851 On ch=2 n=56 v=0
27851 On ch=2 n=44 v=0
27864 On ch=2 n=42 v=80
27864 On ch=2 n=54 v=80
27887 On ch=2 n=42 v=0
27887 On ch=2 n=54 v=0
27900 On ch=2 n=51 v=80
27900 On ch=2 n=39 v=80
27924 On ch=2 n=51 v=0
27924 On ch=2 n=39 v=0
27935 On ch=2 n=49 v=80
27935 On ch=2 n=37 v=80
27984 On ch=2 n=49 v=0
27984 On ch=2 n=37 v=0
28007 On ch=2 n=53 v=80
28007 On ch=2 n=56 v=80
28007 On ch=2 n=61 v=80
28055 On ch=2 n=53 v=0
28055 On ch=2 n=56 v=0
28055 On ch=2 n=61 v=0
28080 On ch=2 n=54 v=80
28080 On ch=2 n=42 v=80
28128 On ch=2 n=54 v=0
28128 On ch=2 n=42 v=0
28152 On ch=2 n=54 v=80
28152 On ch=2 n=58 v=80
28152 On ch=2 n=61 v=80
28200 On ch=2 n=54 v=0
28200 On ch=2 n=58 v=0
28200 On ch=2 n=61 v=0
28224 On ch=2 n=49 v=80
28224 On ch=2 n=37 v=80
28272 On ch=2 n=49 v=0
28272 On ch=2 n=37 v=0
28295 On ch=2 n=53 v=80
28295 On ch=2 n=56 v=80
28295 On ch=2 n=61 v=80
28344 On ch=2 n=53 v=0
28344 On ch=2 n=56 v=0
28344 On ch=2 n=61 v=0
28367 On ch=2 n=53 v=80
28367 On ch=2 n=41 v=80
28415 On ch=2 n=53 v=0
28415 On ch=2 n=41 v=0
28440 On ch=2 n=53 v=80
28440 On ch=2 n=56 v=80
28440 On ch=2 n=61 v=80
28488 On ch=2 n=53 v=0
28488 On ch=2 n=56 v=0
28488 On ch=2 n=61 v=0
28512 On ch=2 n=44 v=80
28512 On ch=2 n=32 v=80
28560 On ch=2 n=44 v=0
28560 On ch=2 n=32 v=0
28584 On ch=2 n=54 v=80
28584 On ch=2 n=56 v=80
28584 On ch=2 n=60 v=80
28632 On ch=2 n=54 v=0
28632 On ch=2 n=56 v=0
28632 On ch=2 n=60 v=0
28655 On ch=2 n=48 v=80
28655 On ch=2 n=36 v=80
28704 On ch=2 n=48 v=0
28704 On ch=2 n=36 v=0
28727 On ch=2 n=54 v=80
28727 On ch=2 n=56 v=80
28727 On ch=2 n=60 v=80
28775 On ch=2 n=54 v=0
28775 On ch=2 n=56 v=0
28775 On ch=2 n=60 v=0
28800 On ch=2 n=49 v=80
28800 On ch=2 n=37 v=80
28848 On ch=2 n=49 v=0
28848 On ch=2 n=37 v=0
28872 On ch=2 n=53 v=80
28872 On ch=2 n=56 v=80
28872 On ch=2 n=61 v=80
28920 On ch=2 n=53 v=0
28920 On ch=2 n=56 v=0
28920 On ch=2 n=61 v=0
28944 On ch=2 n=49 v=80
28944 On ch=2 n=37 v=80
28992 On ch=2 n=49 v=0
28992 On ch=2 n=37 v=0
29015 On ch=2 n=46 v=80
29015 On ch=2 n=34 v=80
29064 On ch=2 n=46 v=0
29064 On ch=2 n=34 v=0
29087 On ch=2 n=48 v=80
29087 On ch=2 n=36 v=80
29135 On ch=2 n=48 v=0
29135 On ch=2 n=36 v=0
29160 On ch=2 n=53 v=80
29160 On ch=2 n=56 v=80
29160 On ch=2 n=60 v=80
29208 On ch=2 n=53 v=0
29208 On ch=2 n=56 v=0
29208 On ch=2 n=60 v=0
29232 On ch=2 n=55 v=80
29232 On ch=2 n=43 v=80
29280 On ch=2 n=55 v=0
29280 On ch=2 n=43 v=0
29304 On ch=2 n=48 v=80
29304 On ch=2 n=36 v=80
29352 On ch=2 n=48 v=0
29352 On ch=2 n=36 v=0
29375 On ch=2 n=53 v=80
29375 On ch=2 n=41 v=80
29424 On ch=2 n=53 v=0
29424 On ch=2 n=41 v=0
29447 On ch=2 n=51 v=80
29447 On ch=2 n=63 v=80
29495 On ch=2 n=51 v=0
29495 On ch=2 n=63 v=0
29520 On ch=2 n=62 v=80
29520 On ch=2 n=50 v=80
29568 On ch=2 n=62 v=0
29568 On ch=2 n=50 v=0
29592 On ch=2 n=49 v=80
29592 On ch=2 n=61 v=80
29640 On ch=2 n=49 v=0
29640 On ch=2 n=61 v=0
29664 On ch=2 n=60 v=80
29664 On ch=2 n=48 v=80
29712 On ch=2 n=60 v=0
29712 On ch=2 n=48 v=0
29735 On ch=2 n=47 v=80
29735 On ch=2 n=59 v=80
29784 On ch=2 n=47 v=0
29784 On ch=2 n=59 v=0
29807 On ch=2 n=58 v=80
29807 On ch=2 n=46 v=80
29855 On ch=2 n=58 v=0
29855 On ch=2 n=46 v=0
29880 On ch=2 n=45 v=80
29880 On ch=2 n=57 v=80
29928 On ch=2 n=45 v=0
29928 On ch=2 n=57 v=0
29952 On ch=2 n=56 v=80
29952 On ch=2 n=44 v=80
30000 On ch=2 n=56 v=0
30000 On ch=2 n=44 v=0
30024 On ch=2 n=42 v=80
30024 On ch=2 n=54 v=80
30072 On ch=2 n=42 v=0
30072 On ch=2 n=54 v=0
30095 On ch=2 n=53 v=80
30095 On ch=2 n=41 v=80
30144 On ch=2 n=53 v=0
30144 On ch=2 n=41 v=0
30167 On ch=2 n=39 v=80
30167 On ch=2 n=51 v=80
30215 On ch=2 n=39 v=0
30215 On ch=2 n=51 v=0
30240 On ch=2 n=49 v=80
30240 On ch=2 n=37 v=80
30288 On ch=2 n=49 v=0
30288 On ch=2 n=37 v=0
30312 On ch=2 n=53 v=80
30312 On ch=2 n=56 v=80
30312 On ch=2 n=61 v=80
30360 On ch=2 n=53 v=0
30360 On ch=2 n=56 v=0
30360 On ch=2 n=61 v=0
30384 On ch=2 n=54 v=80
30384 On ch=2 n=42 v=80
30432 On ch=2 n=54 v=0
30432 On ch=2 n=42 v=0
30455 On ch=2 n=54 v=80
30455 On ch=2 n=58 v=80
30455 On ch=2 n=61 v=80
30504 On ch=2 n=54 v=0
30504 On ch=2 n=58 v=0
30504 On ch=2 n=61 v=0
30527 On ch=2 n=49 v=80
30527 On ch=2 n=37 v=80
30575 On ch=2 n=49 v=0
30575 On ch=2 n=37 v=0
30600 On ch=2 n=53 v=80
30600 On ch=2 n=56 v=80
30600 On ch=2 n=61 v=80
30648 On ch=2 n=53 v=0
30648 On ch=2 n=56 v=0
30648 On ch=2 n=61 v=0
30672 On ch=2 n=53 v=80
30672 On ch=2 n=41 v=80
30720 On ch=2 n=53 v=0
30720 On ch=2 n=41 v=0
30744 On ch=2 n=53 v=80
30744 On ch=2 n=56 v=80
30744 On ch=2 n=61 v=80
30791 On ch=2 n=53 v=0
30791 On ch=2 n=56 v=0
30791 On ch=2 n=61 v=0
30816 On ch=2 n=53 v=80
30816 On ch=2 n=41 v=80
30864 On ch=2 n=53 v=0
30864 On ch=2 n=41 v=0
30887 On ch=2 n=53 v=80
30887 On ch=2 n=57 v=80
30887 On ch=2 n=60 v=80
30887 On ch=2 n=63 v=80
30935 On ch=2 n=53 v=0
30935 On ch=2 n=57 v=0
30935 On ch=2 n=60 v=0
30935 On ch=2 n=63 v=0
30960 On ch=2 n=60 v=80
30960 On ch=2 n=48 v=80
31007 On ch=2 n=60 v=0
31007 On ch=2 n=48 v=0
31031 On ch=2 n=53 v=80
31031 On ch=2 n=57 v=80
31031 On ch=2 n=60 v=80
31031 On ch=2 n=63 v=80
31079 On ch=2 n=53 v=0
31079 On ch=2 n=57 v=0
31079 On ch=2 n=60 v=0
31079 On ch=2 n=63 v=0
31104 On ch=2 n=58 v=80
31104 On ch=2 n=46 v=80
31151 On ch=2 n=58 v=0
31151 On ch=2 n=46 v=0
31176 On ch=2 n=53 v=80
31176 On ch=2 n=58 v=80
31176 On ch=2 n=61 v=80
31224 On ch=2 n=53 v=0
31224 On ch=2 n=58 v=0
31224 On ch=2 n=61 v=0
31247 On ch=2 n=58 v=80
31247 On ch=2 n=46 v=80
31295 On ch=2 n=58 v=0
31295 On ch=2 n=46 v=0
31320 On ch=2 n=44 v=80
31320 On ch=2 n=56 v=80
31367 On ch=2 n=44 v=0
31367 On ch=2 n=56 v=0
31391 On ch=2 n=54 v=80
31391 On ch=2 n=42 v=80
31439 On ch=2 n=54 v=0
31439 On ch=2 n=42 v=0
31464 On ch=2 n=58 v=80
31464 On ch=2 n=61 v=80
31464 On ch=2 n=66 v=80
31511 On ch=2 n=58 v=0
31511 On ch=2 n=61 v=0
31511 On ch=2 n=66 v=0
31536 On ch=2 n=58 v=80
31536 On ch=2 n=46 v=80
31584 On ch=2 n=58 v=0
31584 On ch=2 n=46 v=0
31607 On ch=2 n=57 v=80
31607 On ch=2 n=45 v=80
31655 On ch=2 n=57 v=0
31655 On ch=2 n=45 v=0
31680 On ch=2 n=56 v=80
31680 On ch=2 n=44 v=80
31727 On ch=2 n=56 v=0
31727 On ch=2 n=44 v=0
31751 On ch=2 n=56 v=80
31751 On ch=2 n=61 v=80
31751 On ch=2 n=65 v=80
31799 On ch=2 n=56 v=0
31799 On ch=2 n=61 v=0
31799 On ch=2 n=65 v=0
31824 On ch=2 n=53 v=80
31824 On ch=2 n=41 v=80
31871 On ch=2 n=53 v=0
31871 On ch=2 n=41 v=0
31896 On ch=2 n=44 v=80
31896 On ch=2 n=56 v=80
31944 On ch=2 n=44 v=0
31944 On ch=2 n=56 v=0
31967 On ch=2 n=44 v=80
31967 On ch=2 n=32 v=80
32015 On ch=2 n=44 v=0
32015 On ch=2 n=32 v=0
32040 On ch=2 n=54 v=80
32040 On ch=2 n=56 v=80
32040 On ch=2 n=60 v=80
32087 On ch=2 n=54 v=0
32087 On ch=2 n=56 v=0
32087 On ch=2 n=60 v=0
32111 On ch=2 n=44 v=80
32111 On ch=2 n=32 v=80
32159 On ch=2 n=44 v=0
32159 On ch=2 n=32 v=0
32184 On ch=2 n=54 v=80
32184 On ch=2 n=56 v=80
32184 On ch=2 n=60 v=80
32231 On ch=2 n=54 v=0
32231 On ch=2 n=56 v=0
32231 On ch=2 n=60 v=0
32256 On ch=2 n=49 v=80
32256 On ch=2 n=37 v=80
32304 On ch=2 n=49 v=0
32304 On ch=2 n=37 v=0
32327 On ch=2 n=61 v=80
32327 On ch=2 n=49 v=80
32375 On ch=2 n=61 v=0
32375 On ch=2 n=49 v=0
32400 On ch=2 n=60 v=80
32400 On ch=2 n=48 v=80
32447 On ch=2 n=60 v=0
32447 On ch=2 n=48 v=0
32471 On ch=2 n=47 v=80
32471 On ch=2 n=59 v=80
32519 On ch=2 n=47 v=0
32519 On ch=2 n=59 v=0
32544 On ch=2 n=58 v=80
32544 On ch=2 n=46 v=80
32591 On ch=2 n=58 v=0
32591 On ch=2 n=46 v=0
32616 On ch=2 n=58 v=80
32616 On ch=2 n=61 v=80
32616 On ch=2 n=66 v=80
32664 On ch=2 n=58 v=0
32664 On ch=2 n=61 v=0
32664 On ch=2 n=66 v=0
32687 On ch=2 n=54 v=80
32687 On ch=2 n=42 v=80
32735 On ch=2 n=54 v=0
32735 On ch=2 n=42 v=0
32760 On ch=2 n=45 v=80
32760 On ch=2 n=57 v=80
32808 On ch=2 n=45 v=0
32808 On ch=2 n=57 v=0
32831 On ch=2 n=58 v=80
32831 On ch=2 n=46 v=80
32879 On ch=2 n=58 v=0
32879 On ch=2 n=46 v=0
32904 On ch=2 n=58 v=80
32904 On ch=2 n=61 v=80
32904 On ch=2 n=66 v=80
32951 On ch=2 n=58 v=0
32951 On ch=2 n=61 v=0
32951 On ch=2 n=66 v=0
32976 On ch=2 n=58 v=80
32976 On ch=2 n=46 v=80
33024 On ch=2 n=58 v=0
33024 On ch=2 n=46 v=0
33048 On ch=2 n=42 v=80
33048 On ch=2 n=54 v=80
33095 On ch=2 n=42 v=0
33095 On ch=2 n=54 v=0
33120 On ch=2 n=53 v=80
33120 On ch=2 n=41 v=80
33168 On ch=2 n=53 v=0
33168 On ch=2 n=41 v=0
33191 On ch=2 n=56 v=80
33191 On ch=2 n=61 v=80
33191 On ch=2 n=65 v=80
33239 On ch=2 n=56 v=0
33239 On ch=2 n=61 v=0
33239 On ch=2 n=65 v=0
33264 On ch=2 n=56 v=80
33264 On ch=2 n=61 v=80
33264 On ch=2 n=65 v=80
33311 On ch=2 n=56 v=0
33311 On ch=2 n=61 v=0
33311 On ch=2 n=65 v=0
33336 On ch=2 n=44 v=80
33336 On ch=2 n=32 v=80
33384 On ch=2 n=44 v=0
33384 On ch=2 n=32 v=0
33408 On ch=2 n=49 v=80
33408 On ch=2 n=37 v=80
33455 On ch=2 n=49 v=0
33455 On ch=2 n=37 v=0
33480 On ch=2 n=56 v=80
33480 On ch=2 n=61 v=80
33480 On ch=2 n=65 v=80
33528 On ch=2 n=56 v=0
33528 On ch=2 n=61 v=0
33528 On ch=2 n=65 v=0
33551 On ch=2 n=53 v=80
33551 On ch=2 n=41 v=80
33599 On ch=2 n=53 v=0
33599 On ch=2 n=41 v=0
33624 On ch=2 n=40 v=80
33624 On ch=2 n=52 v=80
33671 On ch=2 n=40 v=0
33671 On ch=2 n=52 v=0
33696 On ch=2 n=51 v=80
33696 On ch=2 n=39 v=80
33744 On ch=2 n=51 v=0
33744 On ch=2 n=39 v=0
33768 On ch=2 n=56 v=80
33768 On ch=2 n=60 v=80
33768 On ch=2 n=63 v=80
33815 On ch=2 n=56 v=0
33815 On ch=2 n=60 v=0
33815 On ch=2 n=63 v=0
33840 On ch=2 n=44 v=80
33840 On ch=2 n=32 v=80
33888 On ch=2 n=44 v=0
33888 On ch=2 n=32 v=0
33911 On ch=2 n=38 v=80
33911 On ch=2 n=50 v=80
33959 On ch=2 n=38 v=0
33959 On ch=2 n=50 v=0
33984 On ch=2 n=51 v=80
33984 On ch=2 n=39 v=80
34031 On ch=2 n=51 v=0
34031 On ch=2 n=39 v=0
34056 On ch=2 n=56 v=80
34056 On ch=2 n=60 v=80
34056 On ch=2 n=63 v=80
34104 On ch=2 n=56 v=0
34104 On ch=2 n=60 v=0
34104 On ch=2 n=63 v=0
34128 On ch=2 n=56 v=80
34128 On ch=2 n=44 v=80
34175 On ch=2 n=56 v=0
34175 On ch=2 n=44 v=0
34200 On ch=2 n=42 v=80
34200 On ch=2 n=54 v=80
34248 On ch=2 n=42 v=0
34248 On ch=2 n=54 v=0
34271 On ch=2 n=53 v=80
34271 On ch=2 n=41 v=80
34319 On ch=2 n=53 v=0
34319 On ch=2 n=41 v=0
34344 On ch=2 n=56 v=80
34344 On ch=2 n=61 v=80
34344 On ch=2 n=65 v=80
34391 On ch=2 n=56 v=0
34391 On ch=2 n=61 v=0
34391 On ch=2 n=65 v=0
34416 On ch=2 n=55 v=80
34440 On ch=2 n=55 v=0
34451 On ch=2 n=58 v=80
34475 On ch=2 n=58 v=0
34488 On ch=2 n=61 v=80
34511 On ch=2 n=61 v=0
34524 On ch=2 n=64 v=80
34548 On ch=2 n=64 v=0
34560 On ch=2 n=65 v=80
34608 On ch=2 n=65 v=0
34631 On ch=2 n=61 v=80
34631 On ch=2 n=49 v=80
34679 On ch=2 n=61 v=0
34679 On ch=2 n=49 v=0
34704 On ch=2 n=60 v=80
34704 On ch=2 n=48 v=80
34751 On ch=2 n=60 v=0
34751 On ch=2 n=48 v=0
34776 On ch=2 n=59 v=80
34776 On ch=2 n=47 v=80
34824 On ch=2 n=59 v=0
34824 On ch=2 n=47 v=0
34848 On ch=2 n=58 v=80
34848 On ch=2 n=46 v=80
34895 On ch=2 n=58 v=0
34895 On ch=2 n=46 v=0
34920 On ch=2 n=58 v=80
34920 On ch=2 n=61 v=80
34920 On ch=2 n=66 v=80
34968 On ch=2 n=58 v=0
34968 On ch=2 n=61 v=0
34968 On ch=2 n=66 v=0
34991 On ch=2 n=54 v=80
34991 On ch=2 n=42 v=80
35039 On ch=2 n=54 v=0
35039 On ch=2 n=42 v=0
35064 On ch=2 n=45 v=80
35064 On ch=2 n=57 v=80
35111 On ch=2 n=45 v=0
35111 On ch=2 n=57 v=0
35136 On ch=2 n=58 v=80
35136 On ch=2 n=46 v=80
35184 On ch=2 n=58 v=0
35184 On ch=2 n=46 v=0
35208 On ch=2 n=58 v=80
35208 On ch=2 n=61 v=80
35208 On ch=2 n=66 v=80
35255 On ch=2 n=58 v=0
35255 On ch=2 n=61 v=0
35255 On ch=2 n=66 v=0
35280 On ch=2 n=58 v=80
35280 On ch=2 n=46 v=80
35328 On ch=2 n=58 v=0
35328 On ch=2 n=46 v=0
35351 On ch=2 n=42 v=80
35351 On ch=2 n=54 v=80
35399 On ch=2 n=42 v=0
35399 On ch=2 n=54 v=0
35424 On ch=2 n=53 v=80
35424 On ch=2 n=41 v=80
35471 On ch=2 n=53 v=0
35471 On ch=2 n=41 v=0
35496 On ch=2 n=56 v=80
35496 On ch=2 n=61 v=80
35496 On ch=2 n=65 v=80
35544 On ch=2 n=56 v=0
35544 On ch=2 n=61 v=0
35544 On ch=2 n=65 v=0
35568 On ch=2 n=56 v=80
35568 On ch=2 n=61 v=80
35568 On ch=2 n=65 v=80
35615 On ch=2 n=56 v=0
35615 On ch=2 n=61 v=0
35615 On ch=2 n=65 v=0
35640 On ch=2 n=44 v=80
35640 On ch=2 n=32 v=80
35688 On ch=2 n=44 v=0
35688 On ch=2 n=32 v=0
35711 On ch=2 n=49 v=80
35711 On ch=2 n=37 v=80
35759 On ch=2 n=49 v=0
35759 On ch=2 n=37 v=0
35784 On ch=2 n=56 v=80
35784 On ch=2 n=61 v=80
35784 On ch=2 n=65 v=80
35831 On ch=2 n=56 v=0
35831 On ch=2 n=61 v=0
35831 On ch=2 n=65 v=0
35856 On ch=2 n=53 v=80
35856 On ch=2 n=41 v=80
35904 On ch=2 n=53 v=0
35904 On ch=2 n=41 v=0
35928 On ch=2 n=56 v=80
35928 On ch=2 n=44 v=80
35975 On ch=2 n=56 v=0
35975 On ch=2 n=44 v=0
36000 On ch=2 n=57 v=80
36000 On ch=2 n=45 v=80
36048 On ch=2 n=57 v=0
36048 On ch=2 n=45 v=0
36071 On ch=2 n=52 v=80
36071 On ch=2 n=57 v=80
36071 On ch=2 n=61 v=80
36119 On ch=2 n=52 v=0
36119 On ch=2 n=57 v=0
36119 On ch=2 n=61 v=0
36144 On ch=2 n=56 v=80
36144 On ch=2 n=44 v=80
36191 On ch=2 n=56 v=0
36191 On ch=2 n=44 v=0
36216 On ch=2 n=52 v=80
36216 On ch=2 n=56 v=80
36216 On ch=2 n=59 v=80
36264 On ch=2 n=52 v=0
36264 On ch=2 n=56 v=0
36264 On ch=2 n=59 v=0
36288 On ch=2 n=57 v=80
36288 On ch=2 n=45 v=80
36335 On ch=2 n=57 v=0
36335 On ch=2 n=45 v=0
36360 On ch=2 n=52 v=80
36360 On ch=2 n=57 v=80
36360 On ch=2 n=61 v=80
36408 On ch=2 n=52 v=0
36408 On ch=2 n=57 v=0
36408 On ch=2 n=61 v=0
36431 On ch=2 n=44 v=80
36455 On ch=2 n=44 v=0
36468 On ch=2 n=49 v=80
36491 On ch=2 n=49 v=0
36504 On ch=2 n=53 v=80
36528 On ch=2 n=53 v=0
36540 On ch=2 n=56 v=80
36564 On ch=2 n=56 v=0
36576 On ch=2 n=44 v=80
36624 On ch=2 n=44 v=0
36648 On ch=2 n=54 v=80
36648 On ch=2 n=56 v=80
36648 On ch=2 n=60 v=80
36695 On ch=2 n=54 v=0
36695 On ch=2 n=56 v=0
36695 On ch=2 n=60 v=0
36720 On ch=2 n=44 v=80
36720 On ch=2 n=32 v=80
36768 On ch=2 n=44 v=0
36768 On ch=2 n=32 v=0
36791 On ch=2 n=54 v=80
36791 On ch=2 n=56 v=80
36791 On ch=2 n=60 v=80
36839 On ch=2 n=54 v=0
36839 On ch=2 n=56 v=0
36839 On ch=2 n=60 v=0
36864 On ch=2 n=49 v=80
36864 On ch=2 n=37 v=80
36911 On ch=2 n=49 v=0
36911 On ch=2 n=37 v=0
36936 On ch=2 n=61 v=80
36936 On ch=2 n=49 v=80
36984 On ch=2 n=61 v=0
36984 On ch=2 n=49 v=0
37008 On ch=2 n=60 v=80
37008 On ch=2 n=48 v=80
37055 On ch=2 n=60 v=0
37055 On ch=2 n=48 v=0
37080 On ch=2 n=47 v=80
37080 On ch=2 n=59 v=80
37128 On ch=2 n=47 v=0
37128 On ch=2 n=59 v=0
37151 On ch=2 n=58 v=80
37151 On ch=2 n=46 v=80
37199 On ch=2 n=58 v=0
37199 On ch=2 n=46 v=0
37224 On ch=2 n=58 v=80
37224 On ch=2 n=61 v=80
37224 On ch=2 n=66 v=80
37271 On ch=2 n=58 v=0
37271 On ch=2 n=61 v=0
37271 On ch=2 n=66 v=0
37296 On ch=2 n=54 v=80
37296 On ch=2 n=42 v=80
37344 On ch=2 n=54 v=0
37344 On ch=2 n=42 v=0
37368 On ch=2 n=45 v=80
37368 On ch=2 n=57 v=80
37415 On ch=2 n=45 v=0
37415 On ch=2 n=57 v=0
37440 On ch=2 n=58 v=80
37440 On ch=2 n=46 v=80
37488 On ch=2 n=58 v=0
37488 On ch=2 n=46 v=0
37511 On ch=2 n=58 v=80
37511 On ch=2 n=61 v=80
37511 On ch=2 n=66 v=80
37559 On ch=2 n=58 v=0
37559 On ch=2 n=61 v=0
37559 On ch=2 n=66 v=0
37584 On ch=2 n=58 v=80
37584 On ch=2 n=46 v=80
37631 On ch=2 n=58 v=0
37631 On ch=2 n=46 v=0
37656 On ch=2 n=42 v=80
37656 On ch=2 n=54 v=80
37704 On ch=2 n=42 v=0
37704 On ch=2 n=54 v=0
37728 On ch=2 n=53 v=80
37728 On ch=2 n=41 v=80
37775 On ch=2 n=53 v=0
37775 On ch=2 n=41 v=0
37800 On ch=2 n=56 v=80
37800 On ch=2 n=61 v=80
37800 On ch=2 n=65 v=80
37848 On ch=2 n=56 v=0
37848 On ch=2 n=61 v=0
37848 On ch=2 n=65 v=0
37871 On ch=2 n=56 v=80
37871 On ch=2 n=61 v=80
37871 On ch=2 n=65 v=80
37919 On ch=2 n=56 v=0
37919 On ch=2 n=61 v=0
37919 On ch=2 n=65 v=0
37944 On ch=2 n=44 v=80
37944 On ch=2 n=32 v=80
37991 On ch=2 n=44 v=0
37991 On ch=2 n=32 v=0
38016 On ch=2 n=49 v=80
38016 On ch=2 n=37 v=80
38064 On ch=2 n=49 v=0
38064 On ch=2 n=37 v=0
38088 On ch=2 n=56 v=80
38088 On ch=2 n=61 v=80
38088 On ch=2 n=65 v=80
38135 On ch=2 n=56 v=0
38135 On ch=2 n=61 v=0
38135 On ch=2 n=65 v=0
38160 On ch=2 n=53 v=80
38160 On ch=2 n=41 v=80
38208 On ch=2 n=53 v=0
38208 On ch=2 n=41 v=0
38231 On ch=2 n=40 v=80
38231 On ch=2 n=52 v=80
38279 On ch=2 n=40 v=0
38279 On ch=2 n=52 v=0
38304 On ch=2 n=51 v=80
38304 On ch=2 n=39 v=80
38351 On ch=2 n=51 v=0
38351 On ch=2 n=39 v=0
38376 On ch=2 n=56 v=80
38376 On ch=2 n=60 v=80
38376 On ch=2 n=63 v=80
38424 On ch=2 n=56 v=0
38424 On ch=2 n=60 v=0
38424 On ch=2 n=63 v=0
38448 On ch=2 n=44 v=80
38448 On ch=2 n=32 v=80
38495 On ch=2 n=44 v=0
38495 On ch=2 n=32 v=0
38520 On ch=2 n=38 v=80
38520 On ch=2 n=50 v=80
38568 On ch=2 n=38 v=0
38568 On ch=2 n=50 v=0
38591 On ch=2 n=51 v=80
38591 On ch=2 n=39 v=80
38639 On ch=2 n=51 v=0
38639 On ch=2 n=39 v=0
38664 On ch=2 n=56 v=80
38664 On ch=2 n=60 v=80
38664 On ch=2 n=63 v=80
38711 On ch=2 n=56 v=0
38711 On ch=2 n=60 v=0
38711 On ch=2 n=63 v=0
38736 On ch=2 n=56 v=80
38736 On ch=2 n=44 v=80
38784 On ch=2 n=56 v=0
38784 On ch=2 n=44 v=0
38808 On ch=2 n=42 v=80
38808 On ch=2 n=54 v=80
38855 On ch=2 n=42 v=0
38855 On ch=2 n=54 v=0
38880 On ch=2 n=53 v=80
38880 On ch=2 n=41 v=80
38928 On ch=2 n=53 v=0
38928 On ch=2 n=41 v=0
38951 On ch=2 n=56 v=80
38951 On ch=2 n=61 v=80
38951 On ch=2 n=65 v=80
38999 On ch=2 n=56 v=0
38999 On ch=2 n=61 v=0
38999 On ch=2 n=65 v=0
39024 On ch=2 n=55 v=80
39048 On ch=2 n=55 v=0
39060 On ch=2 n=58 v=80
39084 On ch=2 n=58 v=0
39096 On ch=2 n=61 v=80
39120 On ch=2 n=61 v=0
39131 On ch=2 n=64 v=80
39155 On ch=2 n=64 v=0
39168 On ch=2 n=65 v=80
39215 On ch=2 n=65 v=0
39240 On ch=2 n=61 v=80
39240 On ch=2 n=49 v=80
39288 On ch=2 n=61 v=0
39288 On ch=2 n=49 v=0
39311 On ch=2 n=60 v=80
39311 On ch=2 n=48 v=80
39359 On ch=2 n=60 v=0
39359 On ch=2 n=48 v=0
39384 On ch=2 n=59 v=80
39384 On ch=2 n=47 v=80
39431 On ch=2 n=59 v=0
39431 On ch=2 n=47 v=0
39456 On ch=2 n=58 v=80
39456 On ch=2 n=46 v=80
39504 On ch=2 n=58 v=0
39504 On ch=2 n=46 v=0
39528 On ch=2 n=58 v=80
39528 On ch=2 n=61 v=80
39528 On ch=2 n=66 v=80
39575 On ch=2 n=58 v=0
39575 On ch=2 n=61 v=0
39575 On ch=2 n=66 v=0
39600 On ch=2 n=54 v=80
39600 On ch=2 n=42 v=80
39648 On ch=2 n=54 v=0
39648 On ch=2 n=42 v=0
39671 On ch=2 n=45 v=80
39671 On ch=2 n=57 v=80
39719 On ch=2 n=45 v=0
39719 On ch=2 n=57 v=0
39744 On ch=2 n=58 v=80
39744 On ch=2 n=46 v=80
39791 On ch=2 n=58 v=0
39791 On ch=2 n=46 v=0
39816 On ch=2 n=58 v=80
39816 On ch=2 n=61 v=80
39816 On ch=2 n=66 v=80
39864 On ch=2 n=58 v=0
39864 On ch=2 n=61 v=0
39864 On ch=2 n=66 v=0
39888 On ch=2 n=58 v=80
39888 On ch=2 n=46 v=80
39935 On ch=2 n=58 v=0
39935 On ch=2 n=46 v=0
39960 On ch=2 n=42 v=80
39960 On ch=2 n=54 v=80
40008 On ch=2 n=42 v=0
40008 On ch=2 n=54 v=0
40031 On ch=2 n=53 v=80
40031 On ch=2 n=41 v=80
40079 On ch=2 n=53 v=0
40079 On ch=2 n=41 v=0
40104 On ch=2 n=56 v=80
40104 On ch=2 n=61 v=80
40104 On ch=2 n=65 v=80
40151 On ch=2 n=56 v=0
40151 On ch=2 n=61 v=0
40151 On ch=2 n=65 v=0
40176 On ch=2 n=56 v=80
40176 On ch=2 n=61 v=80
40176 On ch=2 n=65 v=80
40224 On ch=2 n=56 v=0
40224 On ch=2 n=61 v=0
40224 On ch=2 n=65 v=0
40248 On ch=2 n=44 v=80
40248 On ch=2 n=32 v=80
40295 On ch=2 n=44 v=0
40295 On ch=2 n=32 v=0
40320 On ch=2 n=49 v=80
40320 On ch=2 n=37 v=80
40368 On ch=2 n=49 v=0
40368 On ch=2 n=37 v=0
40391 On ch=2 n=56 v=80
40391 On ch=2 n=61 v=80
40391 On ch=2 n=65 v=80
40439 On ch=2 n=56 v=0
40439 On ch=2 n=61 v=0
40439 On ch=2 n=65 v=0
40464 On ch=2 n=53 v=80
40464 On ch=2 n=41 v=80
40511 On ch=2 n=53 v=0
40511 On ch=2 n=41 v=0
40536 On ch=2 n=56 v=80
40536 On ch=2 n=44 v=80
40584 On ch=2 n=56 v=0
40584 On ch=2 n=44 v=0
40608 On ch=2 n=57 v=80
40608 On ch=2 n=45 v=80
40655 On ch=2 n=57 v=0
40655 On ch=2 n=45 v=0
40680 On ch=2 n=52 v=80
40680 On ch=2 n=57 v=80
40680 On ch=2 n=61 v=80
40728 On ch=2 n=52 v=0
40728 On ch=2 n=57 v=0
40728 On ch=2 n=61 v=0
40751 On ch=2 n=56 v=80
40751 On ch=2 n=44 v=80
40799 On ch=2 n=56 v=0
40799 On ch=2 n=44 v=0
40824 On ch=2 n=52 v=80
40824 On ch=2 n=56 v=80
40824 On ch=2 n=59 v=80
40871 On ch=2 n=52 v=0
40871 On ch=2 n=56 v=0
40871 On ch=2 n=59 v=0
40896 On ch=2 n=57 v=80
40896 On ch=2 n=45 v=80
40944 On ch=2 n=57 v=0
40944 On ch=2 n=45 v=0
40968 On ch=2 n=52 v=80
40968 On ch=2 n=57 v=80
40968 On ch=2 n=61 v=80
41015 On ch=2 n=52 v=0
41015 On ch=2 n=57 v=0
41015 On ch=2 n=61 v=0
41040 On ch=2 n=44 v=80
41064 On ch=2 n=44 v=0
41076 On ch=2 n=49 v=80
41100 On ch=2 n=49 v=0
41111 On ch=2 n=53 v=80
41135 On ch=2 n=53 v=0
41148 On ch=2 n=56 v=80
41171 On ch=2 n=56 v=0
41184 On ch=2 n=44 v=80
41231 On ch=2 n=44 v=0
41256 On ch=2 n=54 v=80
41256 On ch=2 n=56 v=80
41256 On ch=2 n=60 v=80
41304 On ch=2 n=54 v=0
41304 On ch=2 n=56 v=0
41304 On ch=2 n=60 v=0
41328 On ch=2 n=44 v=80
41328 On ch=2 n=32 v=80
41375 On ch=2 n=44 v=0
41375 On ch=2 n=32 v=0
41400 On ch=2 n=54 v=80
41400 On ch=2 n=56 v=80
41400 On ch=2 n=60 v=80
41448 On ch=2 n=54 v=0
41448 On ch=2 n=56 v=0
41448 On ch=2 n=60 v=0
41471 On ch=2 n=49 v=80
41471 On ch=2 n=37 v=80
41519 On ch=2 n=49 v=0
41519 On ch=2 n=37 v=0
41526 On ch=2 n=43 v=80
41535 On ch=2 n=43 v=0
41544 On ch=2 n=44 v=80
41591 On ch=2 n=44 v=0
41616 On ch=2 n=37 v=80
41664 On ch=2 n=37 v=0
41664 Meta TrkEnd
TrkEnd
MTrk
41616 On ch=3 n=36 v=1
41664 On ch=3 n=36 v=0
41664 Meta TrkEnd
TrkEnd
